<?xml version="1.0" standalone="no"?>
<!DOCTYPE svg PUBLIC "-//W3C//DTD SVG 1.1//EN" "http://www.w3.org/Graphics/SVG/1.1/DTD/svg11.dtd" >
<svg xmlns="http://www.w3.org/2000/svg">
<metadata></metadata>
<defs>
<font id="gentona_boldbold_italic" horiz-adv-x="1402" >
<font-face units-per-em="2048" ascent="1638" descent="-410" />
<missing-glyph horiz-adv-x="409" />
<glyph unicode="&#xfb01;" horiz-adv-x="1294" d="M55 721l37 268h137l7 39q28 198 128 284.5t300 86.5q81 0 229 -31l-45 -215q-132 4 -133 4q-76 0 -111 -37.5t-45 -107.5l-4 -23h692l-139 -989h-328l103 721h-365l-100 -721h-328l103 721h-138zM948 1294q10 72 65 111t128 39q82 0 132.5 -49t37.5 -135 q-10 -72 -65 -111t-128 -39q-81 0 -131 48.5t-39 135.5z" />
<glyph unicode="&#xfb02;" horiz-adv-x="1273" d="M55 721l37 268h137l7 39q28 198 128 284.5t300 86.5q91 0 303 -47l4 30h327l-194 -1382h-328l162 1151q-147 6 -223 6t-111 -37.5t-45 -107.5l-4 -23h246l-37 -268h-246l-100 -721h-328l103 721h-138z" />
<glyph horiz-adv-x="2048" />
<glyph horiz-adv-x="2048" />
<glyph unicode="&#xd;" horiz-adv-x="2048" />
<glyph unicode=" "  horiz-adv-x="409" />
<glyph unicode="&#x09;" horiz-adv-x="409" />
<glyph unicode="&#xa0;" horiz-adv-x="409" />
<glyph unicode="!" horiz-adv-x="536" d="M68 158q8 59 51.5 98t107.5 39q72 0 112.5 -50t29.5 -122q-8 -59 -52 -98t-108 -39q-72 0 -112 50t-29 122zM135 446l66 803h348l-160 -803h-254z" />
<glyph unicode="&#x22;" horiz-adv-x="845" d="M156 797l73 524h295l-147 -524h-221zM487 797l74 524h295l-147 -524h-222z" />
<glyph unicode="#" horiz-adv-x="1449" d="M80 211l45 238h207l45 229h-201l45 240h203l41 208h260l-41 -208h238l41 208h258l-41 -208h215l-45 -240h-217l-46 -229h213l-45 -238h-215l-41 -211h-258l41 211h-237l-41 -211h-260l41 211h-205zM592 449h237l45 229h-237z" />
<glyph unicode="$" horiz-adv-x="1126" d="M2 143l125 226q226 -140 403 -140q151 0 164 90q4 39 -46 68.5t-206 83.5q-184 57 -250 143t-45 224q18 128 118 208.5t263 90.5l17 118h211l-19 -129q142 -20 334 -94l-94 -221q-250 90 -377 90q-62 0 -100.5 -22t-44.5 -62q-3 -27 16 -46t69 -39.5t165 -57.5 q182 -51 251.5 -135.5t49.5 -229.5q-19 -140 -131 -226.5t-297 -96.5l-17 -113h-211l17 125q-198 36 -365 145z" />
<glyph unicode="%" horiz-adv-x="1794" d="M121 899q26 189 120 280t261 91q177 0 253 -102t48 -302q-26 -185 -120.5 -274.5t-262.5 -89.5q-355 0 -299 397zM330 866q-11 -92 11 -133t89 -41q77 0 114 50.5t50 156.5q9 97 -12 138.5t-88 41.5q-77 0 -115 -52.5t-49 -160.5zM373 0l878 1249h189l-881 -1249h-186z M1028 381q26 187 121 279t262 92q355 0 299 -406q-26 -186 -119.5 -275t-261.5 -89q-177 0 -253 100.5t-48 298.5zM1237 346q-9 -93 12 -133.5t88 -40.5q77 0 115 52t49 157q11 96 -10 138t-88 42q-77 0 -115.5 -52.5t-50.5 -162.5z" />
<glyph unicode="&#x26;" horiz-adv-x="1372" d="M57 373q13 98 81 168t218 141q-107 122 -86 279q22 150 140 229.5t315 79.5q172 0 265 -89.5t73 -236.5q-13 -87 -81 -171t-189 -142l163 -129q56 70 123 162l199 -148q-90 -126 -127 -172l149 -119l-178 -223l-155 137q-96 -87 -191 -122t-219 -35q-269 0 -398.5 99.5 t-101.5 291.5zM377 379q-10 -74 45 -111t145 -37q113 0 209 74l-250 221q-139 -68 -149 -147zM557 932q-5 -37 6.5 -71t46.5 -75l4 2q188 61 205 168q15 105 -98 105q-60 0 -108.5 -36.5t-55.5 -92.5z" />
<glyph unicode="'" horiz-adv-x="514" d="M172 797l74 524h295l-148 -524h-221z" />
<glyph unicode="(" horiz-adv-x="702" d="M131 512q33 236 145.5 451.5t292.5 396.5l195 -123q-292 -377 -346 -760q-53 -371 129 -741l-209 -96q-277 388 -207 872z" />
<glyph unicode=")" horiz-adv-x="686" d="M-80 -238q292 377 346 760q53 372 -129 742l209 96q277 -388 207 -873q-67 -473 -438 -847z" />
<glyph unicode="*" horiz-adv-x="921" d="M152 711l188 159l-184 152l86 131l204 -115l80 222l164 -46l-41 -231l240 -4l8 -156l-238 -39l82 -231l-141 -68l-129 230l-229 -133z" />
<glyph unicode="+" horiz-adv-x="1032" d="M76 381l33 233h307l43 306h231l-43 -308h309l-34 -231h-308l-43 -307h-231l43 307h-307z" />
<glyph unicode="," horiz-adv-x="577" d="M-10 -176q56 38 103 86.5t69 89.5q-54 22 -81 72t-18 116q11 73 65.5 120.5t131.5 47.5q87 0 133.5 -63t32.5 -156q-17 -110 -116 -225.5t-244 -192.5z" />
<glyph unicode="-" horiz-adv-x="837" d="M106 422l39 287h607l-41 -287h-605z" />
<glyph unicode="." horiz-adv-x="569" d="M57 188q11 73 65.5 120.5t131.5 47.5q86 0 132.5 -58t35.5 -144q-11 -73 -65.5 -120.5t-131.5 -47.5q-87 0 -133.5 58t-34.5 144z" />
<glyph unicode="/" horiz-adv-x="819" d="M-141 -403l778 1744h281l-785 -1744h-274z" />
<glyph unicode="0" horiz-adv-x="1280" d="M90 639q88 631 645 631q290 0 413.5 -172t78.5 -494q-43 -305 -203.5 -463.5t-441.5 -158.5q-290 0 -413.5 169.5t-78.5 487.5zM424 604q-24 -169 13 -246t159 -77q132 0 201.5 88.5t95.5 269.5q24 174 -13 253t-159 79q-133 0 -202 -90.5t-95 -276.5z" />
<glyph unicode="1" horiz-adv-x="1042" d="M35 0l39 279h286l93 618q-109 -27 -285 -59l-51 200q171 73 438 215l268 -4l-137 -970h256l-39 -279h-868z" />
<glyph unicode="2" horiz-adv-x="1101" d="M-6 0l29 240q61 44 157.5 113t150 107.5t126 92.5t113 89.5t81.5 76.5t61 74.5t25 64.5q9 66 -27 99.5t-106 33.5q-147 0 -418 -108l-71 239q185 78 313.5 113t249.5 35q208 0 316.5 -120.5t82.5 -318.5q-7 -47 -27.5 -92t-49 -84.5t-74.5 -81.5t-91 -76.5t-111.5 -77.5 t-122.5 -76t-138 -79q117 15 231 15h316l-39 -279h-977z" />
<glyph unicode="3" horiz-adv-x="1144" d="M-16 119l112 217q196 -92 426 -92q95 0 154 37.5t69 107.5q8 62 -51.5 91.5t-191.5 29.5h-180l34 244h168q128 0 193.5 31t75.5 100q7 61 -34 93t-124 32q-146 0 -424 -86l-51 225q290 119 532 119q200 0 315.5 -103.5t92.5 -267.5q-11 -84 -65 -149.5t-132 -102.5 q88 -36 128 -115.5t26 -181.5q-25 -173 -166.5 -269.5t-364.5 -96.5q-298 0 -542 137z" />
<glyph unicode="4" horiz-adv-x="1267" d="M14 227l17 248l794 774h330l-104 -747h178l-39 -275h-178l-33 -227h-328l33 227h-670zM381 502h342l57 383q-17 -19 -59 -62.5t-51 -52.5l-152 -145q-51 -51 -137 -123z" />
<glyph unicode="5" horiz-adv-x="1161" d="M-16 119l114 233q196 -92 406 -92q101 0 177 50.5t89 133.5q8 64 -33.5 103t-122.5 39q-101 0 -221 -88l-268 45l143 706h879l-39 -278h-598l-57 -246q118 74 276 74q190 0 282 -108t66 -296q-27 -195 -179 -304t-361 -109q-141 0 -287.5 35t-265.5 102z" />
<glyph unicode="6" horiz-adv-x="1193" d="M82 582q45 322 243.5 505t489.5 183q68 0 172.5 -21.5t202.5 -64.5l-100 -226q-159 43 -283 43q-142 -1 -239 -80t-142 -223q137 111 350 111q183 0 281 -112.5t73 -290.5q-28 -198 -173 -311t-375 -113q-280 0 -409.5 161t-90.5 439zM399 459q0 -104 49 -158.5 t144 -54.5q90 0 155 56.5t78 152.5q10 68 -33.5 106.5t-127.5 38.5q-73 0 -144.5 -38t-120.5 -103z" />
<glyph unicode="7" horiz-adv-x="1021" d="M86 0q131 266 291.5 523t327.5 446h-611l41 280h971l-33 -276q-179 -216 -337 -471t-261 -502h-389z" />
<glyph unicode="8" horiz-adv-x="1187" d="M25 373q26 187 280 293q-173 101 -147 276q22 159 165 243.5t384 84.5q237 0 351.5 -91.5t90.5 -254.5q-11 -83 -70 -142t-182 -108q131 -55 188 -133.5t39 -200.5q-23 -171 -175 -264.5t-394 -93.5q-303 0 -430 100t-100 291zM342 365q-9 -66 42.5 -100t150.5 -34 t165.5 43.5t77.5 114.5q7 53 -45.5 89t-202.5 87q-97 -42 -138 -91.5t-50 -108.5zM475 911q-7 -49 32.5 -80t149.5 -67q190 67 193 186q2 52 -40 81.5t-122 29.5q-85 0 -144.5 -42.5t-68.5 -107.5z" />
<glyph unicode="9" horiz-adv-x="1193" d="M47 74l100 223q159 -47 287 -47q268 3 354 291q-66 -59 -144 -84t-189 -25q-183 0 -281.5 117.5t-73.5 296.5q28 198 174 311t381 113q273 0 395.5 -160t84.5 -440q-47 -344 -225.5 -516t-471.5 -172q-199 0 -391 92zM403 797q-10 -68 35 -107t129 -39q63 0 130 36.5 t122 92.5q6 226 -176 226q-93 0 -159 -56.5t-81 -152.5z" />
<glyph unicode=":" horiz-adv-x="569" d="M57 188q11 73 65.5 120.5t131.5 47.5q86 0 132.5 -58t35.5 -144q-11 -73 -65.5 -120.5t-131.5 -47.5q-87 0 -133.5 58t-34.5 144zM143 805q11 73 65.5 120.5t131.5 47.5q86 0 132.5 -58t35.5 -145q-11 -73 -65.5 -120.5t-131.5 -47.5q-86 0 -133 58.5t-35 144.5z" />
<glyph unicode=";" horiz-adv-x="638" d="M-10 -176q56 38 103 86.5t69 89.5q-54 22 -81 72t-18 116q11 73 65.5 120.5t131.5 47.5q87 0 133.5 -63t32.5 -156q-17 -110 -116 -225.5t-244 -192.5zM193 803q11 73 65 121.5t131 48.5q86 0 133 -58.5t35 -144.5q-11 -73 -65.5 -120.5t-131.5 -47.5q-87 0 -133 57.5 t-34 143.5z" />
<glyph unicode="&#x3c;" horiz-adv-x="849" d="M70 524l600 441l125 -177l-287 -219l-86 -55q4 -3 25 -20.5t34 -26.5l240 -209l-164 -172z" />
<glyph unicode="=" horiz-adv-x="1011" d="M55 231l29 203h827l-30 -203h-826zM102 575l29 201h827l-28 -201h-828z" />
<glyph unicode="&#x3e;" horiz-adv-x="923" d="M96 262l287 219l86 56q-4 3 -25 20.5t-34 26.5l-240 209l164 172l487 -439l-600 -440z" />
<glyph unicode="?" horiz-adv-x="1105" d="M125 1122q185 78 313.5 113t249.5 35q206 0 317.5 -116t84.5 -292q-20 -140 -141.5 -234t-330.5 -134l-16 -99h-260l-4 303q148 4 238.5 25.5t127.5 53.5t44 81q9 66 -27.5 100.5t-106.5 34.5q-84 0 -182.5 -28t-234.5 -82zM289 158q8 59 52 98t108 39q72 0 112 -50 t31 -122q-8 -59 -53 -98t-109 -39q-72 0 -112 50t-29 122z" />
<glyph unicode="@" horiz-adv-x="1810" d="M61 436q34 247 171 437.5t345.5 293.5t454.5 103q244 0 416 -98.5t248 -275t45 -404.5q-14 -95 -42 -173t-61 -130t-75.5 -91t-81 -60.5t-83 -34.5t-76.5 -17t-65 -4q-85 0 -144.5 24.5t-86.5 91.5q-96 -69 -164.5 -92.5t-161.5 -23.5q-162 0 -233 114t-39 346 q28 195 137.5 313.5t263.5 118.5q132 0 254 -98l13 82h280l-82 -586q-12 -60 -6.5 -90.5t18 -38.5t44.5 -8q19 0 42 8t55.5 34t61 66.5t55.5 113.5t42 167q40 283 -112 451t-456 168q-328 0 -560.5 -205t-278.5 -535q-44 -306 110.5 -482.5t456.5 -176.5q147 0 268 25.5 t258 76.5l41 -118q-113 -58 -263 -90.5t-298 -32.5q-245 0 -419 103.5t-250.5 292.5t-41.5 435zM698 410q-17 -119 11 -164t102 -45q60 0 107 23t98 71l41 283q-75 61 -154 61q-85 0 -136 -53t-69 -176z" />
<glyph unicode="A" horiz-adv-x="1423" d="M-53 0l643 1249h454l289 -1249h-352l-41 199h-532l-99 -199h-362zM555 502h324l-76 366q-18 89 -21 111h-2q-17 -57 -53 -127z" />
<glyph unicode="B" horiz-adv-x="1255" d="M49 0l176 1249h510q255 1 360 -89q84 -72 84 -207q0 -33 -5 -70q-11 -78 -60.5 -137.5t-128.5 -88.5q111 -29 161 -101q39 -56 39 -131q0 -21 -3 -44q-28 -201 -166 -291t-438 -90h-529zM422 276h192q108 0 163.5 32t66.5 100q1 8 1 15q-1 41 -29 63q-34 26 -114 26h-247 zM492 770h194q158 0 172 104q1 8 1 15q1 38 -25 59q-30 25 -105 25h-209z" />
<glyph unicode="C" horiz-adv-x="1253" d="M90 639q42 304 229 467.5t484 163.5q248 0 459 -117l-125 -244q-206 62 -334 62q-160 0 -257 -93.5t-122 -273.5q-6 -37 -5 -71q0 -99 47 -163q64 -88 193 -87q108 0 200.5 20.5t223.5 73.5l86 -256q-143 -74 -271.5 -106.5t-270.5 -32.5q-293 0 -437 173 q-111 133 -110 346q0 65 10 138z" />
<glyph unicode="D" horiz-adv-x="1345" d="M49 0l176 1249h437q338 0 504 -175q134 -141 134 -359q0 -52 -8 -109q-39 -281 -236 -443.5t-524 -162.5h-483zM424 293h121q187 0 287.5 85t125.5 261q5 36 5 69q-1 110 -61 170q-78 78 -265 78h-119z" />
<glyph unicode="E" horiz-adv-x="1146" d="M49 0l176 1249h922l-43 -303h-588l-27 -188h502l-41 -287h-501l-25 -184h604l-41 -287h-938z" />
<glyph unicode="F" horiz-adv-x="1077" d="M49 0l176 1249h905l-43 -303h-571l-35 -254h492l-41 -286h-492l-57 -406h-334z" />
<glyph unicode="G" horiz-adv-x="1378" d="M90 639q40 285 231 458t467 173q127 0 269.5 -30.5t261.5 -86.5l-105 -242q-240 68 -411 68q-147 0 -251.5 -103.5t-127.5 -269.5q-5 -35 -5 -67q0 -99 48 -166q63 -88 186 -88q69 0 106.5 1.5t97 11.5t114.5 30l18 121h-315l37 262h608l-76 -578q-175 -81 -321 -116 t-299 -35q-289 0 -433 174q-110 132 -110 345q0 65 10 138z" />
<glyph unicode="H" horiz-adv-x="1376" d="M49 0l176 1249h334l-65 -469h471l65 469h334l-176 -1249h-334l68 477h-471l-68 -477h-334z" />
<glyph unicode="I" horiz-adv-x="571" d="M49 0l176 1249h334l-176 -1249h-334z" />
<glyph unicode="J" horiz-adv-x="993" d="M-29 96l99 236q146 -47 254 -47q177 0 211 219l104 745h334l-107 -762q-38 -267 -151 -386t-332 -119q-196 0 -412 114z" />
<glyph unicode="K" horiz-adv-x="1318" d="M49 0l176 1249h334l-78 -551l543 551h367l-5 -18l-507 -522l352 -689l-4 -20h-357l-237 457l-217 -224l-33 -233h-334z" />
<glyph unicode="L" horiz-adv-x="1064" d="M49 0l176 1249h334l-133 -946h557l-43 -303h-891z" />
<glyph unicode="M" horiz-adv-x="1712" d="M43 0l225 1249h371l192 -690q14 -49 19 -84q20 51 45 103l385 671h377l-127 -1249h-336l76 659l12 58l-393 -717h-201l-192 717l-7 -49l-110 -668h-336z" />
<glyph unicode="N" d="M49 0l176 1249h301l435 -702q2 27 10 90l86 612h334l-177 -1249h-301l-434 694q-1 -18 -6 -54.5t-6 -41.5l-84 -598h-334z" />
<glyph unicode="O" d="M90 639q42 304 228 467.5t479 163.5q303 0 450 -175q113 -135 114 -353q0 -65 -11 -138q-42 -299 -228.5 -460.5t-478.5 -161.5q-303 0 -450 172q-113 133 -113 349q0 64 10 136zM424 604q-4 -34 -3 -64q0 -114 50 -178q64 -81 199 -81q146 0 236.5 92.5t109.5 265.5 q4 35 4 66q0 117 -51 183q-64 84 -199 83q-146 0 -236.5 -94.5t-109.5 -272.5z" />
<glyph unicode="P" horiz-adv-x="1212" d="M49 0l176 1249h494q280 0 398 -128q93 -101 93 -279q0 -47 -6 -99q-28 -220 -180.5 -338t-407.5 -118h-192l-41 -287h-334zM463 569h178q107 0 171.5 53.5t74.5 153.5q1 15 1 28q0 72 -39 112q-47 48 -161 47h-170z" />
<glyph unicode="Q" horiz-adv-x="1372" d="M90 639q42 304 228 467.5t479 163.5q303 0 450 -175q113 -135 113 -353q0 -65 -10 -138q-42 -299 -228.5 -460.5t-478.5 -161.5q-303 0 -450 172q-113 133 -113 349q0 64 10 136zM424 604q-4 -34 -4 -64q0 -114 51 -178q64 -81 199 -81q146 0 236.5 92.5t109.5 265.5 q4 35 4 66q0 117 -51 183q-64 83 -199 83q-146 0 -236.5 -94.5t-109.5 -272.5zM426 -264l68 186q190 -51 300 -63.5t310 -12.5l-23 -258q-174 0 -346 38t-309 110z" />
<glyph unicode="R" horiz-adv-x="1277" d="M49 0l176 1249h512q265 1 393 -125q106 -104 106 -271q0 -35 -5 -73q-18 -145 -89.5 -245.5t-185.5 -153.5l215 -354l-4 -27h-362l-174 328h-201l-47 -328h-334zM469 608h217q97 0 153.5 49.5t63.5 141.5q1 8 1 15q0 61 -44 102q-49 46 -147 47h-195z" />
<glyph unicode="S" horiz-adv-x="1212" d="M2 156l139 241q265 -131 447 -131q67 0 107.5 23.5t41.5 68.5q1 31 -13.5 50.5t-70.5 46.5t-172 65q-187 62 -264 157q-59 72 -59 183q0 34 6 72q23 155 153.5 246.5t327.5 91.5q153 0 271.5 -21.5t265.5 -72.5l-103 -258q-248 83 -432 83q-76 0 -109.5 -20.5 t-35.5 -60.5q-1 -42 51.5 -71t245.5 -97q183 -64 251 -158q51 -71 51 -177q0 -35 -5 -73q-23 -164 -166.5 -263t-356.5 -99q-130 0 -280 47t-291 127z" />
<glyph unicode="T" horiz-adv-x="1179" d="M100 946l43 303h1106l-43 -303h-387l-133 -946h-334l133 946h-385z" />
<glyph unicode="U" horiz-adv-x="1357" d="M125 604l90 645h334l-94 -661q-7 -53 -8 -96q1 -88 31 -137q44 -74 157 -74q123 0 198.5 81.5t98.5 241.5l90 645h334l-94 -663q-43 -310 -200.5 -457t-443.5 -147q-505 0 -505 469q0 71 12 153z" />
<glyph unicode="V" horiz-adv-x="1374" d="M127 1249h373l141 -792q3 -18 21 -121q10 26 29.5 71.5t27.5 65.5l381 776h364l-653 -1249h-383z" />
<glyph unicode="W" horiz-adv-x="1904" d="M127 1249h367l65 -751q6 -51 6 -152q8 31 47 168l265 735h360l53 -751q4 -49 4 -146q24 92 45 162l281 735h375l-504 -1249h-416l-74 580q-6 51 -10 184q-7 -24 -18.5 -68t-20 -72.5t-20.5 -60.5l-238 -563h-415z" />
<glyph unicode="X" horiz-adv-x="1343" d="M-51 0l485 629l-299 620h367l184 -356q6 -11 15.5 -30.5t9.5 -20.5q19 30 49 67l289 340h376l-481 -620l305 -629h-360l-193 377q-11 19 -26 53q-23 -37 -47 -68l-306 -362h-368z" />
<glyph unicode="Y" horiz-adv-x="1306" d="M127 1249h346l150 -401q5 -13 26 -69t29 -81q45 86 98 166l266 385h355l-590 -856h-2l-55 -393h-332l55 399z" />
<glyph unicode="Z" horiz-adv-x="1239" d="M14 0l31 244l719 710q-184 -8 -252 -8h-319l43 303h1028l-35 -260l-674 -696q153 10 242 10h342l-43 -303h-1082z" />
<glyph unicode="[" horiz-adv-x="798" d="M55 -365l242 1717h582l-35 -252h-287l-170 -1215h285l-35 -250h-582z" />
<glyph unicode="\" horiz-adv-x="931" d="M211 1341h272l297 -1767h-266z" />
<glyph unicode="]" horiz-adv-x="798" d="M-82 -365l35 252h287l170 1215h-285l35 250h581l-241 -1717h-582z" />
<glyph unicode="^" horiz-adv-x="1034" d="M100 688l428 633l4 -4v4h201l-2 -8l250 -625h-256l-84 244q-32 89 -41 129q-25 -61 -80 -146l-153 -227h-267z" />
<glyph unicode="_" horiz-adv-x="1001" d="M-6 -307l33 231h780l-33 -231h-780z" />
<glyph unicode="`" horiz-adv-x="1013" d="M375 1292v60l223 143l219 -338l-84 -80q-203 87 -358 215z" />
<glyph unicode="a" horiz-adv-x="1173" d="M62 276q-8 50 -8 110q0 62 9 134q68 481 429 481q91 0 163.5 -24.5t147.5 -79.5l12 92h328l-139 -989h-328l12 86q-81 -57 -141 -80.5t-154 -23.5q-82 0 -148.5 31t-116.5 96t-66 167zM385 487q-6 -41 -6 -75q0 -162 133 -162q61 0 107.5 23.5t105.5 74.5l43 305 q-43 43 -83 62.5t-89 19.5q-178 0 -211 -248z" />
<glyph unicode="b" horiz-adv-x="1173" d="M31 0l186 1321h328l-62 -436q88 65 164 94t156 29q322 0 322 -370q0 -69 -11 -151q-18 -131 -63 -230.5t-106.5 -158.5t-132.5 -87.5t-150 -28.5q-55 0 -95.5 7.5t-76 27.5t-56.5 36.5t-61 52.5l-15 -106h-327zM406 326q39 -41 74 -58.5t87 -17.5q89 0 149.5 67t80.5 203 q6 40 6 72q0 60 -21 93q-32 50 -110 50q-57 0 -109 -25.5t-114 -76.5z" />
<glyph unicode="c" horiz-adv-x="1007" d="M61 506q34 244 179.5 373t357.5 129q219 0 397 -113l-106 -199q-82 32 -138 42t-120 10q-102 0 -168.5 -72.5t-83.5 -202.5q-5 -33 -5 -62q0 -67 28 -109q40 -60 133 -60q150 0 315 80l84 -197q-112 -78 -217 -110.5t-242 -32.5q-211 0 -330 138q-92 107 -92 279 q0 51 8 107z" />
<glyph unicode="d" horiz-adv-x="1175" d="M62 276q-8 50 -8 110q0 62 9 134q69 488 429 488q91 0 164.5 -30t146.5 -97l61 440h328l-186 -1321h-328l12 84q-79 -56 -140.5 -79t-156.5 -23q-82 0 -148.5 31t-116.5 96t-66 167zM381 487q-6 -40 -6 -74q0 -163 137 -163q61 0 107 23t108 73l43 305q-84 84 -174 84 q-182 0 -215 -248z" />
<glyph unicode="e" horiz-adv-x="1083" d="M61 504q35 248 181.5 376t378.5 128q218 0 327 -128q84 -98 84 -260q0 -49 -8 -104q-8 -58 -25 -117h-639q1 -85 41 -124t123 -39q102 0 185 21.5t184 72.5l78 -195q-222 -153 -471 -153q-237 0 -356 134q-91 103 -91 277q0 52 8 111zM389 594h367q2 21 2 40 q0 68 -28 102q-36 44 -116 44q-164 0 -225 -186z" />
<glyph unicode="f" horiz-adv-x="757" d="M55 721l37 268h129l6 39q28 197 132 284t305 87q97 0 215 -25l-41 -221q-94 4 -123 4q-143 0 -164 -147l-2 -21h252l-37 -268h-254l-100 -721h-328l102 721h-129z" />
<glyph unicode="g" horiz-adv-x="1163" d="M33 -268l63 217q218 -58 334 -58q111 0 175.5 60t88.5 196q-75 -60 -140.5 -82t-166.5 -22q-182 0 -269 126q-62 90 -62 240q0 58 10 126q35 245 140.5 359t285.5 114q85 0 155.5 -31t153.5 -94l14 106h328l-117 -825q-37 -250 -182.5 -385t-378.5 -135 q-114 0 -232.5 24.5t-199.5 63.5zM381 502q-4 -33 -4 -60q0 -67 25 -100q35 -47 116 -47q61 0 106.5 23t106.5 75l37 258q-44 44 -84 64t-88 20q-91 0 -144 -54.5t-71 -178.5z" />
<glyph unicode="h" horiz-adv-x="1159" d="M31 0l186 1321h328l-64 -453q94 74 172.5 107t159.5 33q163 0 231 -96q48 -68 47 -186q0 -49 -8 -108l-88 -618h-327l73 524q6 46 6 77q0 33 -7 49q-14 32 -78 32q-53 0 -105 -27.5t-117 -79.5l-82 -575h-327z" />
<glyph unicode="i" horiz-adv-x="550" d="M43 0l139 989h328l-139 -989h-328zM205 1294q10 73 64 111.5t126 38.5q83 0 133 -49q41 -40 41 -105q0 -14 -2 -30q-10 -73 -64.5 -111.5t-127.5 -38.5q-83 0 -133 49q-40 39 -40 101q0 16 3 34z" />
<glyph unicode="j" horiz-adv-x="550" d="M-113 -139q86 43 121 100.5t51 165.5l121 862h328l-123 -878q-14 -101 -42.5 -174.5t-80.5 -133.5t-133.5 -100t-196.5 -65zM201 1294q10 73 64.5 111.5t127.5 38.5q82 0 133 -49q40 -39 40 -101q0 -16 -3 -34q-10 -73 -64.5 -111.5t-127.5 -38.5q-81 0 -131 48 q-41 40 -41 106q0 14 2 30z" />
<glyph unicode="k" horiz-adv-x="1142" d="M31 0l186 1321h328l-94 -674l364 342h367l-6 -22l-433 -414l318 -528l-4 -25h-344l-199 334l-125 -119l-31 -215h-327z" />
<glyph unicode="l" horiz-adv-x="528" d="M31 0l186 1321h328l-187 -1321h-327z" />
<glyph unicode="m" horiz-adv-x="1732" d="M31 0l139 989h328l-15 -102q85 63 155.5 92t143.5 29q206 0 260 -156q108 86 190 121t159 35q161 0 227 -94q47 -67 46 -187q0 -49 -7 -106l-88 -621h-328l76 545q5 40 5 69q0 36 -8 54q-14 34 -67 34q-41 0 -86 -23t-108 -73l-86 -606h-328l76 545q5 35 5 62 q0 39 -10 59q-18 36 -71 36q-43 0 -87.5 -24t-109.5 -74l-84 -604h-327z" />
<glyph unicode="n" horiz-adv-x="1159" d="M31 0l139 989h328l-15 -106q99 65 175.5 95t154.5 30q163 0 231 -96q48 -68 47 -186q0 -49 -8 -108l-88 -618h-327l75 545q8 46 7.5 76.5t-7.5 47.5q-15 33 -79 33q-52 0 -103 -26.5t-119 -79.5l-84 -596h-327z" />
<glyph unicode="o" horiz-adv-x="1148" d="M61 506q34 242 183.5 372t388.5 130q249 0 369 -140q92 -109 93 -286q0 -52 -8 -109q-34 -236 -183.5 -363.5t-389.5 -127.5q-248 0 -368 138q-93 107 -93 280q0 50 8 106zM379 473q-6 -42 -6 -76q0 -69 24 -103q36 -52 129 -52q102 0 163 63t81 201q6 43 6 78 q0 72 -25 109q-37 55 -130 55q-100 0 -161 -65t-81 -210z" />
<glyph unicode="p" horiz-adv-x="1171" d="M-14 -315l184 1304h328l-13 -88q176 107 318 107q188 0 267 -127q54 -86 54 -237q0 -72 -12 -159q-19 -131 -63 -230.5t-105.5 -157.5t-132 -86.5t-149.5 -28.5q-55 0 -95.5 7.5t-77 28.5t-55.5 36t-61 52l-60 -421h-327zM403 328q40 -42 76 -60t88 -18q89 0 149.5 67 t80.5 203q6 40 6 72q0 60 -21 93q-32 50 -110 50q-100 0 -226 -102z" />
<glyph unicode="q" horiz-adv-x="1173" d="M62 276q-8 50 -8 110q0 62 9 134q36 255 142 371.5t287 116.5q85 0 155 -30.5t154 -94.5l14 106h328l-185 -1304h-327l57 399q-79 -56 -140 -79t-155 -23q-82 0 -148.5 31t-116 96t-66.5 167zM383 487q-6 -41 -6 -75q0 -162 135 -162q61 0 106 22.5t107 73.5l43 305 q-44 44 -83.5 64t-88.5 20q-180 0 -213 -248z" />
<glyph unicode="r" horiz-adv-x="835" d="M31 0l139 989h328l-21 -143q72 84 137 123t138 39q33 0 129 -7l-58 -329q-49 4 -110 4q-91 0 -158.5 -36.5t-122.5 -123.5l-74 -516h-327z" />
<glyph unicode="s" horiz-adv-x="983" d="M2 104l100 205q85 -37 188 -63.5t161 -26.5q127 0 127 68q0 27 -38.5 43t-183.5 57q-148 41 -204 109q-43 53 -43 134q0 24 4 52q23 156 122.5 241t262.5 85q217 0 452 -90l-100 -216q-242 68 -330 68q-47 0 -80 -17t-34 -53q0 -27 31 -41.5t146 -47.5q33 -10 52 -15 q153 -44 215 -112q49 -54 49 -138q0 -23 -4 -47q-23 -164 -136.5 -240.5t-330.5 -76.5q-135 0 -229 31t-197 91z" />
<glyph unicode="t" horiz-adv-x="804" d="M53 721l37 268h139l31 219h328l-31 -219h242l-37 -268h-244l-49 -352q-3 -23 -3 -41q0 -37 12 -55q18 -27 85 -27q84 0 137 4l17 -201q-57 -30 -136.5 -46.5t-152.5 -16.5q-179 0 -247 92q-48 65 -48 185q0 50 8 108l49 350h-137z" />
<glyph unicode="u" horiz-adv-x="1165" d="M76 371l88 618h328l-78 -551q-4 -27 -4 -50q0 -50 18 -74q26 -36 94 -35q82 0 193 79l88 631h327l-139 -989h-327l12 94q-96 -62 -157.5 -87t-131.5 -25q-168 0 -253 98q-65 74 -65 203q0 41 7 88z" />
<glyph unicode="v" horiz-adv-x="1150" d="M88 989h324l102 -504q9 -43 23 -145l67 162l246 487h348l-516 -989h-356z" />
<glyph unicode="w" horiz-adv-x="1579" d="M94 989h307l68 -553q4 -41 4 -114q17 80 37 131l233 536h228l78 -553q6 -47 6 -114q4 13 16 59t21 72l221 536h317l-405 -989h-369l-57 532l-209 -532h-369z" />
<glyph unicode="x" horiz-adv-x="1103" d="M-57 0l407 496l-260 493h344l119 -248q11 -22 20 -43q32 48 41 60l191 231h352l-403 -493l264 -496h-338l-129 250q-6 10 -13.5 26t-7.5 17q-17 -32 -41 -60l-200 -233h-346z" />
<glyph unicode="y" horiz-adv-x="1134" d="M29 -84q163 66 278 176l-233 897h334l108 -463q12 -52 27 -135q81 123 151.5 260.5t159.5 337.5h344q-19 -39 -83 -172.5t-92 -189.5t-78.5 -155t-91.5 -170t-83 -134q-144 -195 -294.5 -315t-360.5 -187z" />
<glyph unicode="z" horiz-adv-x="1077" d="M4 0l27 205l557 522q-91 -6 -191 -6h-272l37 268h887l-25 -198l-541 -533q120 6 211 6h277l-37 -264h-930z" />
<glyph unicode="{" horiz-adv-x="829" d="M31 379l39 233q133 10 186.5 61.5t71.5 174.5l14 92q32 228 165 322.5t413 99.5l-35 -229q-70 -9 -114 -23.5t-70 -42t-37.5 -60t-18.5 -85.5l-12 -91q-24 -164 -95 -239t-204 -98q126 -27 176.5 -108.5t26.5 -244.5l-13 -90q-12 -64 0 -104t53 -60t132 -32l-39 -228 q-272 6 -378.5 108.5t-72.5 332.5l12 92q17 119 -25 163.5t-175 55.5z" />
<glyph unicode="|" horiz-adv-x="700" d="M88 -410l244 1731h268l-242 -1731h-270z" />
<glyph unicode="}" horiz-adv-x="829" d="M-92 -373l35 230q70 9 114 23.5t69.5 42t37 59.5t18.5 86l13 90q24 164 95 239.5t204 98.5q-126 27 -176.5 108t-26.5 244l12 90q12 64 0.5 104t-53 60.5t-131.5 32.5l39 227q272 -6 378 -108t72 -332l-12 -93q-17 -119 25 -163.5t176 -55.5l-39 -233 q-133 -10 -186.5 -61.5t-71.5 -174.5l-15 -92q-16 -116 -56 -195.5t-111.5 -129t-170 -72.5t-239.5 -25z" />
<glyph unicode="~" horiz-adv-x="1048" d="M96 528q75 108 142.5 158t131.5 49.5t138 -28.5l141 -62q50 -23 98.5 -1.5t112.5 101.5l117 -102q-75 -108 -144 -158.5t-132.5 -50.5t-135.5 27l-143 61q-49 25 -96.5 5.5t-114.5 -99.5z" />
<glyph unicode="&#xa1;" horiz-adv-x="831" d="M150 -254l159 803h254l-65 -803h-348zM330 872q8 60 52 99t107 39q72 0 112.5 -50t29.5 -122q-8 -59 -52 -98.5t-108 -39.5q-72 0 -112 50t-29 122z" />
<glyph unicode="&#xa2;" horiz-adv-x="1058" d="M81 337q-16 102 1 238q34 241 166.5 387t322.5 173l17 114h211l-17 -119q133 -22 281 -104l-107 -203q-125 54 -266 54q-118 0 -195 -88t-100 -248q-20 -142 26 -218.5t152 -76.5q169 0 322 90l88 -209q-91 -64 -176 -97t-186 -44l-15 -105h-211l15 111q-84 16 -150 57.5 t-114.5 113.5t-64.5 174z" />
<glyph unicode="&#xa3;" horiz-adv-x="1187" d="M12 0l33 240l133 20l51 217h-149l18 131h162q68 281 203.5 411t351.5 130q222 0 404 -117l-109 -203q-138 62 -260 62q-97 0 -161 -65.5t-103 -217.5h332l-21 -131h-344l-49 -209h534l-37 -268h-989z" />
<glyph unicode="&#xa5;" horiz-adv-x="1189" d="M90 244l21 127h297l-27 67h-254l23 127h180l-221 559h335l127 -336q14 -38 41 -139q35 88 82 156l221 319h347l-379 -559h213l-23 -127h-276l-45 -67h309l-21 -127h-313l-37 -244h-332l37 244h-305z" />
<glyph unicode="&#xa6;" horiz-adv-x="700" d="M88 -410l98 705h271l-99 -705h-270zM231 616l101 705h268l-98 -705h-271z" />
<glyph unicode="&#xa7;" horiz-adv-x="1243" d="M72 -51l106 223q95 -66 195.5 -98.5t179.5 -32.5q60 0 96.5 21t36.5 59q0 32 -39 51.5t-192 69.5q-214 64 -291 135.5t-60 185.5q10 77 60.5 128t132.5 91q-62 76 -43 201q18 132 124 209.5t281 77.5q231 0 453 -96l-104 -224q-85 43 -174.5 67.5t-149.5 24.5 q-131 0 -131 -73q0 -39 34.5 -57t194.5 -72q213 -62 289.5 -134.5t61.5 -187.5q-11 -80 -60 -131t-133 -88q59 -75 43 -201q-19 -135 -129.5 -218t-292.5 -83q-123 0 -253 41t-236 111zM395 575q0 -16 12.5 -29t44.5 -27t60.5 -23.5t88 -28.5t99.5 -33q6 -2 76 -26 q38 35 51.5 53t14.5 47q1 16 -11.5 29t-44 26t-61.5 23t-89 28.5t-101 32.5q-33 10 -76 27q-36 -35 -50 -55t-14 -44z" />
<glyph unicode="&#xa8;" horiz-adv-x="1013" d="M250 1286q9 62 56.5 97.5t105.5 35.5q70 0 112 -45t33 -121q-9 -63 -54 -97t-108 -34q-67 0 -111 45.5t-34 118.5zM676 1286q9 64 53 98.5t107 34.5q67 0 111 -45.5t34 -120.5q-8 -62 -55.5 -96.5t-106.5 -34.5q-70 0 -112.5 45t-30.5 119z" />
<glyph unicode="&#xa9;" horiz-adv-x="1499" d="M129 625q0 175 85.5 323.5t233.5 235t324 86.5q175 0 322.5 -86.5t233 -235t85.5 -323.5q0 -176 -85.5 -324t-233 -233.5t-322.5 -85.5q-176 0 -324 85.5t-233.5 233.5t-85.5 324zM205 625q0 -155 75.5 -285.5t206 -206.5t285.5 -76q153 0 283 75.5t206 206.5t76 286 q0 154 -76 285t-206 207.5t-283 76.5q-155 0 -285.5 -76.5t-206 -207.5t-75.5 -285zM418 618q24 175 133.5 275t269.5 100q158 0 287 -80l-86 -149q-111 47 -195 47q-156 0 -182 -193q-26 -184 131 -184q102 0 228 68l51 -140q-80 -57 -158.5 -83.5t-175.5 -26.5 q-154 0 -240.5 98.5t-62.5 267.5z" />
<glyph unicode="&#xaa;" horiz-adv-x="802" d="M94 776q15 105 93 154t229 49q25 0 73.5 -1t71.5 -1l2 10q8 61 -7.5 84t-70.5 23q-94 0 -237 -33l-27 158q199 51 307 51q160 0 223.5 -71.5t41.5 -229.5l-60 -418h-233l8 53q-112 -67 -201 -67q-124 0 -178.5 56t-34.5 183zM311 770q-6 -35 12 -49t60 -14q63 0 147 53 l13 88h-99q-119 0 -133 -78z" />
<glyph unicode="&#xab;" horiz-adv-x="1261" d="M70 524l512 441l145 -162l-233 -215q-37 -35 -97 -74q54 -50 70 -68l182 -204l-180 -156zM551 524l512 441l145 -162l-233 -215q-40 -37 -96 -74q49 -45 69 -68l182 -204l-180 -156z" />
<glyph unicode="&#xad;" horiz-adv-x="837" d="M106 422l39 287h607l-41 -287h-605z" />
<glyph unicode="&#xae;" horiz-adv-x="1499" d="M129 625q0 175 85.5 323.5t233.5 235t324 86.5q175 0 322.5 -86.5t233 -235t85.5 -323.5q0 -176 -85.5 -324t-233 -233.5t-322.5 -85.5q-176 0 -324 85.5t-233.5 233.5t-85.5 324zM205 625q0 -155 75.5 -285.5t206 -206.5t285.5 -76q153 0 283 75.5t206 206.5t76 286 q0 154 -76 285t-206 207.5t-283 76.5q-155 0 -285.5 -76.5t-206 -207.5t-75.5 -285zM430 270l98 713h303q168 0 237.5 -63.5t51.5 -188.5q-21 -150 -157 -186q25 -15 44 -40t30.5 -49t21 -62.5t13 -61t9.5 -62.5h-241q-17 122 -32 155q-20 48 -63 48h-90l-26 -203h-199z M692 633h107q97 0 110 90q6 47 -19.5 71.5t-80.5 24.5h-90z" />
<glyph unicode="&#xaf;" horiz-adv-x="1013" d="M285 1153l32 231h631l-33 -231h-630z" />
<glyph unicode="&#xb0;" horiz-adv-x="755" d="M147 985q19 131 106 208t220 77q142 0 215 -88.5t53 -231.5q-17 -126 -105.5 -201t-221.5 -75q-141 0 -215 86.5t-52 224.5zM324 950q3 -98 102 -98q61 0 99 36.5t40 96.5q-3 109 -102 109q-60 0 -99 -40t-40 -104z" />
<glyph unicode="&#xb1;" horiz-adv-x="1032" d="M29 43l28 201h832l-31 -201h-829zM102 575l29 203h322l34 244h203l-35 -246h324l-29 -201h-323l-35 -245h-201l35 245h-324z" />
<glyph unicode="&#xb2;" horiz-adv-x="731" d="M90 686l16 154q37 27 97.5 70t93 66t78 57t70 56t50 48.5t37.5 48t15 41.5q6 37 -13.5 54t-60.5 17q-95 0 -260 -69l-51 155q216 91 350 91q129 0 197 -77.5t53 -203.5q-5 -39 -27.5 -76t-52 -67t-82 -67t-97 -63.5t-118.5 -68.5q70 12 137 12h199l-25 -178h-606z" />
<glyph unicode="&#xb3;" horiz-adv-x="737" d="M68 768l65 135q122 -61 260 -61q58 0 96 26t46 70q5 35 -30 51.5t-118 16.5h-119l23 155h104q156 0 168 86q4 36 -18.5 52t-73.5 16q-94 0 -262 -53l-37 145q180 70 326 70q128 0 200.5 -65t55.5 -169q-14 -109 -152 -162q68 -22 101 -69t24 -111q-15 -108 -99 -164.5 t-222 -56.5q-189 0 -338 88z" />
<glyph unicode="&#xb4;" horiz-adv-x="1013" d="M406 1157l307 338l186 -143l-4 -70q-171 -116 -414 -213z" />
<glyph unicode="&#xb6;" horiz-adv-x="1210" d="M125 831q31 221 167 319.5t408 98.5h537l-35 -245l-192 -29l-138 -975h-301l54 391h-31q-273 0 -388 107t-81 333z" />
<glyph unicode="&#xb7;" horiz-adv-x="589" d="M123 573q11 73 65 120.5t131 47.5q86 0 132.5 -58t35.5 -144q-11 -73 -65 -120.5t-131 -47.5q-87 0 -133.5 58t-34.5 144z" />
<glyph unicode="&#xb8;" horiz-adv-x="1013" d="M162 -373l33 117q78 -16 151 -16q43 0 65.5 16.5t28.5 54.5q4 34 -15 44t-81 10h-63l67 208h121l-18 -120q110 -5 146 -43t21 -142q-11 -78 -67 -127t-148 -49q-112 0 -241 47z" />
<glyph unicode="&#xb9;" horiz-adv-x="700" d="M102 678l25 178h176l57 365q-75 -17 -180 -35l-35 139q150 53 279 135l172 -6l-84 -598h174l-24 -178h-560z" />
<glyph unicode="&#xba;" horiz-adv-x="872" d="M129 915q25 171 129.5 263t273.5 92q179 0 264.5 -102.5t59.5 -286.5q-23 -167 -127.5 -255.5t-273.5 -88.5q-179 0 -265.5 99.5t-60.5 278.5zM350 881q-11 -72 18 -117t87 -45q79 0 121 45t61 151q11 77 -18 124.5t-87 47.5q-85 0 -127 -47t-55 -159z" />
<glyph unicode="&#xbb;" horiz-adv-x="1261" d="M61 242l232 217q40 35 98 73q-39 36 -67 68l-185 203l180 162l400 -441l-514 -438zM543 242l231 217q40 35 98 73q-39 36 -67 68l-184 203l180 162l399 -441l-514 -438z" />
<glyph unicode="&#xbc;" horiz-adv-x="1830" d="M109 473l24 178h176l58 365q-72 -17 -181 -35l-34 139q148 52 278 135l172 -6l-84 -598h174l-24 -178h-559zM426 0l879 1249h188l-881 -1249h-186zM952 137l9 144l495 495h205l-66 -481h111l-23 -158h-112l-19 -137h-202l20 137h-418zM1159 295h234l39 258 q-39 -44 -62 -64l-125 -118q-56 -56 -86 -76z" />
<glyph unicode="&#xbd;" horiz-adv-x="1867" d="M100 473l25 178h176l57 365q-75 -17 -180 -35l-35 139q150 52 279 135l172 -6l-84 -598h174l-25 -178h-559zM418 0l878 1249h189l-881 -1249h-186zM1092 0l16 154q36 26 97.5 69.5t93 66.5t77.5 57.5t70 56t50 48t37.5 48t14.5 41.5q6 37 -13 54t-60 17q-96 0 -261 -69 l-51 155q214 90 350 90q129 0 197 -77t53 -203q-5 -39 -27.5 -76t-52 -67t-82 -67t-97 -63.5t-118.5 -68.5q70 12 138 12h198l-24 -178h-606z" />
<glyph unicode="&#xbe;" horiz-adv-x="1800" d="M74 561l65 135q122 -61 260 -61q58 0 96 26t46 70q5 35 -30 51.5t-118 16.5h-119l23 155h104q156 0 168 86q4 36 -18.5 52t-73.5 16q-94 0 -262 -53l-37 145q180 70 326 70q128 0 200.5 -65t55.5 -169q-14 -109 -152 -162q68 -22 101 -69t24 -111q-15 -108 -99 -164.5 t-222 -56.5q-189 0 -338 88zM418 0l878 1249h189l-881 -1249h-186zM952 137l9 144l495 495h205l-66 -481h111l-23 -158h-112l-19 -137h-202l20 137h-418zM1159 295h234l39 258q-39 -44 -62 -64l-125 -118q-56 -56 -86 -76z" />
<glyph unicode="&#xbf;" horiz-adv-x="1105" d="M0 133q20 140 141.5 234.5t329.5 134.5l16 98h261l4 -303q-148 -4 -238.5 -25.5t-127.5 -53.5t-44 -81q-9 -66 27.5 -100.5t105.5 -34.5q83 0 182 28t236 83l72 -240q-183 -77 -313 -112t-251 -35q-206 0 -317 115.5t-84 291.5zM498 872q8 59 52.5 98.5t108.5 39.5 q72 0 112.5 -50t29.5 -122q-8 -59 -52 -98.5t-108 -39.5q-72 0 -112 50t-31 122z" />
<glyph unicode="&#xc0;" horiz-adv-x="1423" d="M-53 0l643 1249h454l289 -1249h-352l-41 199h-532l-99 -199h-362zM555 502h324l-76 366q-18 89 -21 111h-2q-17 -57 -53 -127zM582 1509v60l249 129l193 -307l-84 -80q-117 46 -194 88.5t-164 109.5z" />
<glyph unicode="&#xc1;" horiz-adv-x="1423" d="M-53 0l643 1249h454l289 -1249h-352l-41 199h-532l-99 -199h-362zM555 502h324l-76 366q-18 89 -21 111h-2q-17 -57 -53 -127zM647 1395l271 307l219 -127l-4 -70q-103 -66 -190 -106.5t-220 -89.5z" />
<glyph unicode="&#xc2;" horiz-adv-x="1423" d="M-53 0l643 1249h454l289 -1249h-352l-41 199h-532l-99 -199h-362zM477 1391l307 282h187l229 -282l-88 -86l-258 170l-301 -170zM555 502h324l-76 366q-18 89 -21 111h-2q-17 -57 -53 -127z" />
<glyph unicode="&#xc3;" horiz-adv-x="1423" d="M-53 0l643 1249h454l289 -1249h-352l-41 199h-532l-99 -199h-362zM483 1384q15 76 46 129.5t69 79.5t83 35t86.5 2t80.5 -26l104 -54q23 -11 41 -12t38 11.5t36 28t45 48.5l119 -20q-15 -77 -47.5 -131.5t-72.5 -81t-86.5 -36t-89 -2.5t-79.5 25l-108 54 q-20 12 -37.5 13.5t-36 -9t-35 -27t-41.5 -47.5zM555 502h324l-76 366q-18 89 -21 111h-2q-17 -57 -53 -127z" />
<glyph unicode="&#xc4;" horiz-adv-x="1423" d="M-53 0l643 1249h454l289 -1249h-352l-41 199h-532l-99 -199h-362zM498 1520q9 60 53.5 93.5t99.5 33.5q68 0 108.5 -44.5t31.5 -117.5q-9 -59 -51.5 -91t-102.5 -32q-63 0 -105.5 44t-33.5 114zM555 502h324l-76 366q-18 89 -21 111h-2q-17 -57 -53 -127zM922 1520 q9 61 51.5 94t101.5 33q63 0 105 -45t32 -117q-9 -58 -52.5 -90.5t-98.5 -32.5q-68 0 -108.5 43.5t-30.5 114.5z" />
<glyph unicode="&#xc5;" horiz-adv-x="1423" d="M-53 0l643 1249h454l289 -1249h-352l-41 199h-532l-99 -199h-362zM555 502h324l-76 366q-18 89 -21 111h-2q-17 -57 -53 -127zM641 1556q12 93 77.5 148t160.5 55q104 0 160 -65.5t42 -171.5q-12 -88 -78 -141.5t-161 -53.5q-103 0 -159.5 64.5t-41.5 164.5zM768 1554 q-6 -45 17 -73.5t65 -28.5t69.5 22.5t32.5 59.5q6 46 -16.5 74t-65.5 28q-41 0 -69 -23t-33 -59z" />
<glyph unicode="&#xc6;" horiz-adv-x="1931" d="M-53 0l954 1249h1030l-43 -303h-588l-26 -188h502l-41 -287h-502l-25 -184h604l-40 -287h-938l28 199h-391l-141 -199h-383zM684 502h221l53 387z" />
<glyph unicode="&#xc7;" horiz-adv-x="1253" d="M90 639q42 304 229 467.5t484 163.5q248 0 459 -117l-125 -244q-206 62 -334 62q-160 0 -257 -93.5t-122 -273.5q-22 -146 42 -233.5t193 -87.5q108 0 200.5 20.5t223.5 73.5l86 -256q-143 -74 -271.5 -106.5t-270.5 -32.5h-23l-6 -41q111 -5 147 -43t21 -142 q-11 -78 -67 -127t-148 -49q-113 0 -242 47l33 117q78 -16 152 -16q43 0 65.5 16.5t28.5 54.5q4 34 -15 44t-81 10h-64l47 143q-218 43 -320.5 210.5t-64.5 432.5z" />
<glyph unicode="&#xc8;" horiz-adv-x="1146" d="M49 0l176 1249h922l-43 -303h-588l-27 -188h502l-41 -287h-501l-25 -184h604l-41 -287h-938zM434 1509v60l250 129l193 -307l-84 -80q-118 47 -195.5 89.5t-163.5 108.5z" />
<glyph unicode="&#xc9;" horiz-adv-x="1146" d="M49 0l176 1249h922l-43 -303h-588l-27 -188h502l-41 -287h-501l-25 -184h604l-41 -287h-938zM500 1395l270 307l219 -127l-4 -70q-103 -66 -190 -106.5t-220 -89.5z" />
<glyph unicode="&#xca;" horiz-adv-x="1146" d="M49 0l176 1249h922l-43 -303h-588l-27 -188h502l-41 -287h-501l-25 -184h604l-41 -287h-938zM330 1391l307 282h186l230 -282l-88 -86l-258 170l-301 -170z" />
<glyph unicode="&#xcb;" horiz-adv-x="1146" d="M49 0l176 1249h922l-43 -303h-588l-27 -188h502l-41 -287h-501l-25 -184h604l-41 -287h-938zM350 1520q9 60 54 93.5t100 33.5q68 0 108 -44.5t31 -117.5q-9 -59 -51.5 -91t-102.5 -32q-63 0 -105.5 44t-33.5 114zM774 1520q9 61 51.5 94t102.5 33q63 0 105 -45t32 -117 q-9 -58 -53 -90.5t-99 -32.5q-68 0 -108.5 43.5t-30.5 114.5z" />
<glyph unicode="&#xcc;" horiz-adv-x="571" d="M49 0l176 1249h334l-176 -1249h-334zM156 1509v60l250 129l192 -307l-84 -80q-117 46 -194 88.5t-164 109.5z" />
<glyph unicode="&#xcd;" horiz-adv-x="571" d="M49 0l176 1249h334l-176 -1249h-334zM221 1395l271 307l219 -127l-4 -70q-103 -66 -190 -106.5t-220 -89.5z" />
<glyph unicode="&#xce;" horiz-adv-x="571" d="M49 0l176 1249h334l-176 -1249h-334zM51 1391l307 282h187l229 -282l-88 -86l-258 170l-301 -170z" />
<glyph unicode="&#xcf;" horiz-adv-x="571" d="M49 0l176 1249h334l-176 -1249h-334zM72 1520q9 60 53.5 93.5t99.5 33.5q68 0 108.5 -44.5t31.5 -117.5q-9 -59 -51.5 -91t-102.5 -32q-63 0 -105.5 44t-33.5 114zM496 1520q9 61 51.5 94t101.5 33q63 0 105 -45t32 -117q-9 -58 -52.5 -90.5t-98.5 -32.5 q-68 0 -108.5 43.5t-30.5 114.5z" />
<glyph unicode="&#xd0;" horiz-adv-x="1345" d="M10 494l37 256h109l69 499h437q337 0 503.5 -175t126.5 -468q-39 -281 -236 -443.5t-524 -162.5h-483l70 494h-109zM424 293h121q187 0 287.5 85t125.5 261q23 161 -55.5 239t-265.5 78h-119l-29 -206h193l-37 -256h-192z" />
<glyph unicode="&#xd1;" d="M49 0l176 1249h301l435 -702q2 27 10 90l86 612h334l-177 -1249h-301l-434 694q-1 -18 -6 -54.5t-6 -41.5l-84 -598h-334zM471 1384q15 76 46 129.5t69 79.5t83 35t86.5 2t80.5 -26l104 -54q23 -11 41 -12t38 11.5t36 28t45 48.5l119 -20q-15 -77 -47.5 -131.5t-72.5 -81 t-86.5 -36t-89 -2.5t-79.5 25l-109 54q-20 12 -37 14t-35.5 -9t-35 -27.5t-41.5 -47.5z" />
<glyph unicode="&#xd2;" d="M90 639q42 304 228 467.5t479 163.5q303 0 450 -175t103 -491q-42 -299 -228.5 -460.5t-478.5 -161.5q-303 0 -450 172.5t-103 484.5zM424 604q-17 -161 47 -242t199 -81q146 0 236.5 92.5t109.5 265.5q17 165 -47 248.5t-199 83.5q-146 0 -236.5 -94.5t-109.5 -272.5z M569 1509v60l250 129l193 -307l-84 -80q-118 47 -195.5 89.5t-163.5 108.5z" />
<glyph unicode="&#xd3;" d="M90 639q42 304 228 467.5t479 163.5q303 0 450 -175t103 -491q-42 -299 -228.5 -460.5t-478.5 -161.5q-303 0 -450 172.5t-103 484.5zM424 604q-17 -161 47 -242t199 -81q146 0 236.5 92.5t109.5 265.5q17 165 -47 248.5t-199 83.5q-146 0 -236.5 -94.5t-109.5 -272.5z M635 1395l270 307l219 -127l-4 -70q-104 -66 -190.5 -106.5t-218.5 -89.5z" />
<glyph unicode="&#xd4;" d="M90 639q42 304 228 467.5t479 163.5q303 0 450 -175t103 -491q-42 -299 -228.5 -460.5t-478.5 -161.5q-303 0 -450 172.5t-103 484.5zM424 604q-17 -161 47 -242t199 -81q146 0 236.5 92.5t109.5 265.5q17 165 -47 248.5t-199 83.5q-146 0 -236.5 -94.5t-109.5 -272.5z M465 1391l307 282h186l230 -282l-88 -86l-258 170l-301 -170z" />
<glyph unicode="&#xd5;" d="M90 639q42 304 228 467.5t479 163.5q303 0 450 -175t103 -491q-42 -299 -228.5 -460.5t-478.5 -161.5q-303 0 -450 172.5t-103 484.5zM424 604q-17 -161 47 -242t199 -81q146 0 236.5 92.5t109.5 265.5q17 165 -47 248.5t-199 83.5q-146 0 -236.5 -94.5t-109.5 -272.5z M471 1384q15 76 46 129.5t69 79.5t83 35t86.5 2t80.5 -26l104 -54q23 -11 41 -12t38 11.5t36 28t45 48.5l119 -20q-15 -77 -47.5 -131.5t-72.5 -81t-86.5 -36t-89 -2.5t-79.5 25l-109 54q-20 12 -37 14t-35.5 -9t-35 -27.5t-41.5 -47.5z" />
<glyph unicode="&#xd6;" d="M90 639q42 304 228 467.5t479 163.5q303 0 450 -175t103 -491q-42 -299 -228.5 -460.5t-478.5 -161.5q-303 0 -450 172.5t-103 484.5zM424 604q-17 -161 47 -242t199 -81q146 0 236.5 92.5t109.5 265.5q17 165 -47 248.5t-199 83.5q-146 0 -236.5 -94.5t-109.5 -272.5z M485 1520q9 60 54 93.5t100 33.5q68 0 108 -44.5t31 -117.5q-9 -59 -51 -91t-102 -32q-63 0 -106 44t-34 114zM909 1520q9 61 51.5 94t102.5 33q63 0 105 -45t32 -117q-9 -58 -52.5 -90.5t-98.5 -32.5q-68 0 -109 43.5t-31 114.5z" />
<glyph unicode="&#xd7;" horiz-adv-x="1013" d="M106 301l242 213l-186 217l184 168l191 -219l247 219l140 -168l-244 -217l184 -213l-188 -164l-182 211l-240 -211z" />
<glyph unicode="&#xd8;" d="M37 100l117 109q-101 163 -64 430q42 304 228 467.5t479 163.5q246 0 391 -117l123 113l106 -117l-127 -117q96 -172 60 -428q-42 -299 -228.5 -460.5t-478.5 -161.5q-242 0 -383 108l-117 -106zM424 604q-9 -80 4 -145l508 463q-61 49 -166 49q-146 0 -236.5 -94.5 t-109.5 -272.5zM514 322q59 -41 156 -41q146 0 236.5 92.5t109.5 265.5q8 73 -2 139z" />
<glyph unicode="&#xd9;" horiz-adv-x="1357" d="M125 604l90 645h334l-94 -661q-22 -159 22.5 -233t157.5 -74q123 0 198.5 81.5t98.5 241.5l90 645h334l-94 -663q-43 -310 -200.5 -457t-443.5 -147q-581 0 -493 622zM547 1509v60l250 129l192 -307l-84 -80q-117 46 -194 88.5t-164 109.5z" />
<glyph unicode="&#xda;" horiz-adv-x="1357" d="M125 604l90 645h334l-94 -661q-22 -159 22.5 -233t157.5 -74q123 0 198.5 81.5t98.5 241.5l90 645h334l-94 -663q-43 -310 -200.5 -457t-443.5 -147q-581 0 -493 622zM612 1395l271 307l219 -127l-4 -70q-103 -66 -190 -106.5t-220 -89.5z" />
<glyph unicode="&#xdb;" horiz-adv-x="1357" d="M125 604l90 645h334l-94 -661q-22 -159 22.5 -233t157.5 -74q123 0 198.5 81.5t98.5 241.5l90 645h334l-94 -663q-43 -310 -200.5 -457t-443.5 -147q-581 0 -493 622zM442 1391l308 282h186l229 -282l-88 -86l-258 170l-301 -170z" />
<glyph unicode="&#xdc;" horiz-adv-x="1357" d="M125 604l90 645h334l-94 -661q-22 -159 22.5 -233t157.5 -74q123 0 198.5 81.5t98.5 241.5l90 645h334l-94 -663q-43 -310 -200.5 -457t-443.5 -147q-581 0 -493 622zM463 1520q9 60 53.5 93.5t99.5 33.5q68 0 108.5 -44.5t31.5 -117.5q-9 -59 -51.5 -91t-102.5 -32 q-63 0 -105.5 44t-33.5 114zM887 1520q9 61 51.5 94t101.5 33q63 0 105.5 -45t32.5 -117q-9 -58 -53 -90.5t-99 -32.5q-68 0 -108.5 43.5t-30.5 114.5z" />
<glyph unicode="&#xdd;" horiz-adv-x="1306" d="M127 1249h346l150 -401q5 -13 26 -69t29 -81q45 86 98 166l266 385h355l-590 -856h-2l-55 -393h-332l55 399zM588 1395l270 307l219 -127l-4 -70q-104 -66 -190.5 -106.5t-218.5 -89.5z" />
<glyph unicode="&#xde;" horiz-adv-x="1216" d="M49 0l176 1249h334l-24 -168h159q283 0 403.5 -120t86.5 -365q-32 -231 -173.5 -333.5t-416.5 -102.5h-188l-23 -160h-334zM442 424h174q108 0 171 52.5t77 152.5q14 91 -31.5 129.5t-166.5 38.5h-170z" />
<glyph unicode="&#xdf;" horiz-adv-x="1265" d="M55 754l33 235h148q74 145 222 227t341 82q207 0 324 -101t94 -263q-13 -98 -77 -166.5t-155 -103.5q125 -29 180 -117.5t35 -229.5q-22 -152 -141.5 -243.5t-296.5 -91.5q-134 0 -250 34l43 228q96 -13 162 -13q78 0 129.5 43.5t62.5 114.5q10 70 -52 97.5t-191 27.5 h-62l35 242h49q91 0 150 46t71 126q7 53 -22.5 78.5t-95.5 25.5q-120 0 -196 -65t-93 -181l-111 -786h-328l103 737z" />
<glyph unicode="&#xe0;" horiz-adv-x="1173" d="M62.5 276q-16.5 102 0.5 244q68 481 429 481q91 0 163.5 -24.5t147.5 -79.5l12 92h328l-139 -989h-328l12 86q-81 -57 -141 -80.5t-154 -23.5q-82 0 -148.5 31t-116 96t-66 167zM385 487q-34 -237 127 -237q61 0 107.5 23.5t105.5 74.5l43 305q-43 43 -83 62.5t-89 19.5 q-178 0 -211 -248zM430 1292v60l223 143l219 -338l-84 -80q-203 87 -358 215z" />
<glyph unicode="&#xe1;" horiz-adv-x="1173" d="M62.5 276q-16.5 102 0.5 244q68 481 429 481q91 0 163.5 -24.5t147.5 -79.5l12 92h328l-139 -989h-328l12 86q-81 -57 -141 -80.5t-154 -23.5q-82 0 -148.5 31t-116 96t-66 167zM385 487q-34 -237 127 -237q61 0 107.5 23.5t105.5 74.5l43 305q-43 43 -83 62.5t-89 19.5 q-178 0 -211 -248zM461 1157l307 338l186 -143l-4 -70q-172 -117 -413 -213z" />
<glyph unicode="&#xe2;" horiz-adv-x="1173" d="M62.5 276q-16.5 102 0.5 244q68 481 429 481q91 0 163.5 -24.5t147.5 -79.5l12 92h328l-139 -989h-328l12 86q-81 -57 -141 -80.5t-154 -23.5q-82 0 -148.5 31t-116 96t-66 167zM319 1167l275 281h178l221 -287l-82 -76q-44 29 -123 79.5t-118 76.5q-53 -31 -140.5 -80 t-130.5 -74zM385 487q-34 -237 127 -237q61 0 107.5 23.5t105.5 74.5l43 305q-43 43 -83 62.5t-89 19.5q-178 0 -211 -248z" />
<glyph unicode="&#xe3;" horiz-adv-x="1173" d="M62.5 276q-16.5 102 0.5 244q68 481 429 481q91 0 163.5 -24.5t147.5 -79.5l12 92h328l-139 -989h-328l12 86q-81 -57 -141 -80.5t-154 -23.5q-82 0 -148.5 31t-116 96t-66 167zM303 1180q15 76 46 129.5t69 79t83 34.5t86.5 2t80.5 -26l104 -53q23 -11 41 -12.5t38 11 t36 28.5t45 48l119 -20q-15 -77 -47.5 -131.5t-72.5 -81t-86.5 -35.5t-89 -2.5t-79.5 25.5l-109 53q-20 12 -37 14t-35.5 -9t-35 -27.5t-41.5 -47.5zM385 487q-34 -237 127 -237q61 0 107.5 23.5t105.5 74.5l43 305q-43 43 -83 62.5t-89 19.5q-178 0 -211 -248z" />
<glyph unicode="&#xe4;" horiz-adv-x="1173" d="M62.5 276q-16.5 102 0.5 244q68 481 429 481q91 0 163.5 -24.5t147.5 -79.5l12 92h328l-139 -989h-328l12 86q-81 -57 -141 -80.5t-154 -23.5q-82 0 -148.5 31t-116 96t-66 167zM305 1286q9 62 56.5 97.5t105.5 35.5q70 0 112 -45t33 -121q-9 -63 -53.5 -97t-107.5 -34 q-67 0 -111.5 45.5t-34.5 118.5zM385 487q-34 -237 127 -237q61 0 107.5 23.5t105.5 74.5l43 305q-43 43 -83 62.5t-89 19.5q-178 0 -211 -248zM731 1286q9 64 53 98.5t107 34.5q67 0 111 -45.5t34 -120.5q-8 -62 -55.5 -96.5t-106.5 -34.5q-70 0 -112.5 45t-30.5 119z" />
<glyph unicode="&#xe5;" horiz-adv-x="1173" d="M62.5 276q-16.5 102 0.5 244q68 481 429 481q91 0 163.5 -24.5t147.5 -79.5l12 92h328l-139 -989h-328l12 86q-81 -57 -141 -80.5t-154 -23.5q-82 0 -148.5 31t-116 96t-66 167zM385 487q-34 -237 127 -237q61 0 107.5 23.5t105.5 74.5l43 305q-43 43 -83 62.5t-89 19.5 q-178 0 -211 -248zM449 1321q12 93 77 148t160 55q104 0 160.5 -66t42.5 -172q-12 -87 -78 -140.5t-162 -53.5q-103 0 -159 64.5t-41 164.5zM575 1319q-6 -45 17 -73.5t65 -28.5q43 0 70.5 22t32.5 59q6 46 -16.5 74.5t-65.5 28.5q-41 0 -69.5 -23t-33.5 -59z" />
<glyph unicode="&#xe6;" horiz-adv-x="1677" d="M20 309q40 283 447 283h201l2 8q13 90 -6.5 128t-98.5 38q-124 0 -329 -45l-35 215q281 72 434 72q184 0 264 -80q133 80 315 80q218 0 327.5 -127.5t76.5 -364.5q-8 -58 -25 -117h-639q1 -85 41 -124t123 -39q102 0 185 21.5t184 72.5l78 -195q-222 -153 -471 -153 q-227 0 -344 120q-197 -120 -396 -120q-197 0 -277.5 74.5t-56.5 252.5zM322 299q-6 -40 23.5 -62t94.5 -22q95 0 222 51q-15 58 -15 133h-6h-135q-95 0 -136 -21t-48 -79zM983 594h367q10 98 -26.5 142t-115.5 44q-164 0 -225 -186z" />
<glyph unicode="&#xe7;" horiz-adv-x="1007" d="M61 506q34 244 179.5 373t357.5 129q219 0 397 -113l-106 -199q-82 32 -138 42t-120 10q-102 0 -168.5 -72.5t-83.5 -202.5q-17 -112 23.5 -171.5t132.5 -59.5q150 0 315 80l84 -197q-108 -76 -211 -108.5t-236 -34.5l-6 -41q111 -5 147 -43t21 -142q-11 -78 -67 -127 t-148 -49q-112 0 -241 47l32 117q78 -16 152 -16q43 0 65.5 16.5t28.5 54.5q4 34 -15 44t-81 10h-64l45 141q-159 37 -242 169.5t-53 342.5z" />
<glyph unicode="&#xe8;" horiz-adv-x="1083" d="M61 504q35 248 181.5 376t378.5 128q218 0 327 -127.5t76 -364.5q-8 -58 -25 -117h-639q1 -85 41 -124t123 -39q102 0 185 21.5t184 72.5l78 -195q-222 -153 -471 -153q-237 0 -356 134.5t-83 387.5zM389 594h367q10 98 -26.5 142t-115.5 44q-164 0 -225 -186zM406 1292 v60l223 143l219 -338l-84 -80q-203 87 -358 215z" />
<glyph unicode="&#xe9;" horiz-adv-x="1083" d="M61 504q35 248 181.5 376t378.5 128q218 0 327 -127.5t76 -364.5q-8 -58 -25 -117h-639q1 -85 41 -124t123 -39q102 0 185 21.5t184 72.5l78 -195q-222 -153 -471 -153q-237 0 -356 134.5t-83 387.5zM389 594h367q10 98 -26.5 142t-115.5 44q-164 0 -225 -186zM436 1157 l307 338l187 -143l-4 -70q-171 -116 -414 -213z" />
<glyph unicode="&#xea;" horiz-adv-x="1083" d="M61 504q35 248 181.5 376t378.5 128q218 0 327 -127.5t76 -364.5q-8 -58 -25 -117h-639q1 -85 41 -124t123 -39q102 0 185 21.5t184 72.5l78 -195q-222 -153 -471 -153q-237 0 -356 134.5t-83 387.5zM295 1167l274 281h179l221 -287l-82 -76q-44 29 -123.5 79.5 t-118.5 76.5q-53 -32 -141 -81t-129 -73zM389 594h367q10 98 -26.5 142t-115.5 44q-164 0 -225 -186z" />
<glyph unicode="&#xeb;" horiz-adv-x="1083" d="M61 504q35 248 181.5 376t378.5 128q218 0 327 -127.5t76 -364.5q-8 -58 -25 -117h-639q1 -85 41 -124t123 -39q102 0 185 21.5t184 72.5l78 -195q-222 -153 -471 -153q-237 0 -356 134.5t-83 387.5zM281 1286q9 62 56 97.5t105 35.5q70 0 112.5 -45t33.5 -121 q-9 -63 -54 -97t-108 -34q-67 0 -111 45.5t-34 118.5zM389 594h367q10 98 -26.5 142t-115.5 44q-164 0 -225 -186zM707 1286q9 64 53 98.5t106 34.5q67 0 111.5 -46t34.5 -120q-8 -62 -55.5 -96.5t-106.5 -34.5q-70 0 -112.5 45t-30.5 119z" />
<glyph unicode="&#xec;" horiz-adv-x="550" d="M43 0l139 989h328l-139 -989h-328zM143 1292v60l224 143l219 -338l-84 -80q-206 88 -359 215z" />
<glyph unicode="&#xed;" horiz-adv-x="550" d="M43 0l139 989h328l-139 -989h-328zM174 1157l307 338l187 -143l-4 -70q-171 -116 -414 -213z" />
<glyph unicode="&#xee;" horiz-adv-x="550" d="M33 1167l274 281h178l222 -287l-82 -76q-44 29 -123.5 79.5t-118.5 76.5q-53 -32 -141 -81t-129 -73zM43 0l139 989h328l-139 -989h-328z" />
<glyph unicode="&#xef;" horiz-adv-x="550" d="M18 1286q9 62 56.5 97.5t105.5 35.5q70 0 112.5 -45t33.5 -121q-9 -63 -54 -97t-108 -34q-67 0 -111.5 45.5t-34.5 118.5zM43 0l139 989h328l-139 -989h-328zM444 1286q9 64 53 98.5t107 34.5q67 0 111.5 -46t34.5 -120q-8 -62 -55.5 -96.5t-106.5 -34.5q-70 0 -113 45 t-31 119z" />
<glyph unicode="&#xf0;" horiz-adv-x="1146" d="M61 506q14 100 59 184t118.5 146.5t181 96t239.5 30.5q-38 52 -100 114l-223 -86l-25 109l156 61q-37 28 -113 86l-2 39l332 111q20 -22 55.5 -59.5t48.5 -51.5l187 72l24 -109l-133 -51q56 -67 95 -126t72 -128t46.5 -136.5t18.5 -152t-11 -174.5q-34 -242 -183 -370.5 t-390 -128.5q-248 0 -368 138t-85 386zM375 457q-17 -119 20.5 -168.5t130.5 -46.5q101 0 161.5 61.5t78.5 194.5q20 156 -10 268q-133 -5 -211.5 -39.5t-116 -97.5t-53.5 -172z" />
<glyph unicode="&#xf1;" horiz-adv-x="1159" d="M31 0l139 989h328l-15 -106q99 65 175.5 95t154.5 30q163 0 230.5 -95.5t39.5 -294.5l-88 -618h-327l75 545q15 91 0 124t-79 33q-52 0 -103 -26.5t-119 -79.5l-84 -596h-327zM324 1180q15 76 46 129.5t69 79t82.5 34.5t86 2t80.5 -26l105 -53q23 -11 40.5 -12.5 t37.5 11.5t36 28t45 48l119 -20q-15 -77 -47.5 -131.5t-72.5 -81t-86.5 -35.5t-89 -2.5t-79.5 25.5l-108 53q-20 12 -37.5 13.5t-36 -9t-35 -27t-41.5 -47.5z" />
<glyph unicode="&#xf2;" horiz-adv-x="1148" d="M61 506q34 242 183.5 372t388.5 130q250 0 369.5 -140.5t84.5 -394.5q-34 -236 -183.5 -363.5t-389.5 -127.5q-248 0 -368 138t-85 386zM379 473q-18 -126 18 -178.5t129 -52.5q102 0 163 63t81 201q18 132 -19 187t-130 55q-100 0 -161 -65t-81 -210zM442 1292v60 l224 143l219 -338l-84 -80q-206 88 -359 215z" />
<glyph unicode="&#xf3;" horiz-adv-x="1148" d="M61 506q34 242 183.5 372t388.5 130q250 0 369.5 -140.5t84.5 -394.5q-34 -236 -183.5 -363.5t-389.5 -127.5q-248 0 -368 138t-85 386zM379 473q-18 -126 18 -178.5t129 -52.5q102 0 163 63t81 201q18 132 -19 187t-130 55q-100 0 -161 -65t-81 -210zM473 1157l307 338 l187 -143l-4 -70q-171 -116 -414 -213z" />
<glyph unicode="&#xf4;" horiz-adv-x="1148" d="M61 506q34 242 183.5 372t388.5 130q250 0 369.5 -140.5t84.5 -394.5q-34 -236 -183.5 -363.5t-389.5 -127.5q-248 0 -368 138t-85 386zM332 1167l274 281h178l222 -287l-82 -76q-44 29 -123.5 79.5t-118.5 76.5q-53 -32 -141 -81t-129 -73zM379 473q-18 -126 18 -178.5 t129 -52.5q102 0 163 63t81 201q18 132 -19 187t-130 55q-100 0 -161 -65t-81 -210z" />
<glyph unicode="&#xf5;" horiz-adv-x="1148" d="M61 506q34 242 183.5 372t388.5 130q250 0 369.5 -140.5t84.5 -394.5q-34 -236 -183.5 -363.5t-389.5 -127.5q-248 0 -368 138t-85 386zM315 1180q15 76 46 129.5t69 79t83 34.5t86.5 2t80.5 -26l104 -53q23 -11 41 -12.5t38 11t36 28.5t45 48l119 -20 q-15 -77 -47.5 -131.5t-72.5 -81t-86.5 -35.5t-89 -2.5t-79.5 25.5l-108 53q-20 12 -37.5 13.5t-36 -9t-35 -27t-41.5 -47.5zM379 473q-18 -126 18 -178.5t129 -52.5q102 0 163 63t81 201q18 132 -19 187t-130 55q-100 0 -161 -65t-81 -210z" />
<glyph unicode="&#xf6;" horiz-adv-x="1148" d="M61 506q34 242 183.5 372t388.5 130q250 0 369.5 -140.5t84.5 -394.5q-34 -236 -183.5 -363.5t-389.5 -127.5q-248 0 -368 138t-85 386zM317 1286q9 62 56.5 97.5t105.5 35.5q70 0 112.5 -45t33.5 -121q-9 -63 -54 -97t-108 -34q-67 0 -111.5 45.5t-34.5 118.5zM379 473 q-18 -126 18 -178.5t129 -52.5q102 0 163 63t81 201q18 132 -19 187t-130 55q-100 0 -161 -65t-81 -210zM743 1286q9 64 53 98.5t107 34.5q67 0 111.5 -46t34.5 -120q-8 -62 -55.5 -96.5t-106.5 -34.5q-70 0 -113 45t-31 119z" />
<glyph unicode="&#xf7;" horiz-adv-x="1015" d="M76 385l35 231h829l-35 -231h-829zM352 188q6 43 38 71t79 28q56 0 86.5 -38t24.5 -95q-6 -43 -39 -71t-80 -28q-55 0 -86.5 38.5t-22.5 94.5zM444 850q6 43 38 70.5t79 27.5q56 0 86.5 -38t24.5 -95q-6 -43 -39 -70.5t-80 -27.5q-55 0 -86.5 38.5t-22.5 94.5z" />
<glyph unicode="&#xf8;" horiz-adv-x="1148" d="M20 82l93 84q-82 133 -52 340q34 242 183.5 372t388.5 130q191 0 307 -84l88 80l80 -84l-86 -78q95 -136 65 -369q-34 -236 -183.5 -363.5t-389.5 -127.5q-207 0 -326 96l-90 -82zM373 403l348 320q-39 25 -100 25q-100 0 -161 -65t-81 -210q-6 -37 -6 -70zM410 281 q34 -39 116 -39q102 0 163 63t81 201q8 54 4 108z" />
<glyph unicode="&#xf9;" horiz-adv-x="1165" d="M76 371l88 618h328l-78 -551q-12 -88 14.5 -123.5t93.5 -35.5q82 0 193 79l88 631h327l-139 -989h-327l12 94q-96 -62 -157.5 -87t-131.5 -25q-168 0 -253 97.5t-58 291.5zM451 1292v60l223 143l219 -338l-84 -80q-203 87 -358 215z" />
<glyph unicode="&#xfa;" horiz-adv-x="1165" d="M76 371l88 618h328l-78 -551q-12 -88 14.5 -123.5t93.5 -35.5q82 0 193 79l88 631h327l-139 -989h-327l12 94q-96 -62 -157.5 -87t-131.5 -25q-168 0 -253 97.5t-58 291.5zM481 1157l307 338l187 -143l-4 -70q-171 -116 -414 -213z" />
<glyph unicode="&#xfb;" horiz-adv-x="1165" d="M76 371l88 618h328l-78 -551q-12 -88 14.5 -123.5t93.5 -35.5q82 0 193 79l88 631h327l-139 -989h-327l12 94q-96 -62 -157.5 -87t-131.5 -25q-168 0 -253 97.5t-58 291.5zM340 1167l274 281h179l221 -287l-82 -76q-44 29 -123.5 79.5t-118.5 76.5q-53 -32 -141 -81 t-129 -73z" />
<glyph unicode="&#xfc;" horiz-adv-x="1165" d="M76 371l88 618h328l-78 -551q-12 -88 14.5 -123.5t93.5 -35.5q82 0 193 79l88 631h327l-139 -989h-327l12 94q-96 -62 -157.5 -87t-131.5 -25q-168 0 -253 97.5t-58 291.5zM326 1286q9 62 56 97.5t105 35.5q70 0 112.5 -45t33.5 -121q-9 -63 -54 -97t-108 -34 q-67 0 -111 45.5t-34 118.5zM752 1286q9 64 53 98.5t106 34.5q67 0 111.5 -46t34.5 -120q-8 -62 -55.5 -96.5t-106.5 -34.5q-70 0 -112.5 45t-30.5 119z" />
<glyph unicode="&#xfd;" horiz-adv-x="1134" d="M29 -84q163 66 278 176l-233 897h334l108 -463q12 -52 27 -135q81 123 151.5 260.5t159.5 337.5h344q-19 -39 -83 -172.5t-92 -189.5t-78.5 -155t-91.5 -170t-83 -134q-144 -195 -294.5 -315t-360.5 -187zM467 1157l307 338l187 -143l-5 -70q-172 -117 -413 -213z" />
<glyph unicode="&#xfe;" horiz-adv-x="1163" d="M-14 -315l221 1564h328l-48 -336q179 95 306 95q189 0 268 -127t43 -394q-18 -131 -63 -230.5t-107 -158.5t-133 -87.5t-150 -28.5q-97 0 -151.5 24t-128.5 82l-58 -403h-327zM401 309q40 -32 75 -45.5t83 -13.5q87 0 146 67t79 203q17 115 -13.5 165t-108.5 50 q-52 0 -100 -21t-111 -65z" />
<glyph unicode="&#xff;" horiz-adv-x="1134" d="M29 -84q163 66 278 176l-233 897h334l108 -463q12 -52 27 -135q81 123 151.5 260.5t159.5 337.5h344q-19 -39 -83 -172.5t-92 -189.5t-78.5 -155t-91.5 -170t-83 -134q-144 -195 -294.5 -315t-360.5 -187zM311 1286q9 62 56.5 97.5t105.5 35.5q70 0 112 -45t33 -121 q-9 -63 -53.5 -97t-107.5 -34q-67 0 -111.5 45.5t-34.5 118.5zM737 1286q9 64 53 98.5t107 34.5q67 0 111 -45.5t34 -120.5q-8 -62 -55 -96.5t-106 -34.5q-70 0 -113 45t-31 119z" />
<glyph unicode="&#x152;" horiz-adv-x="1853" d="M88 631q44 309 231 474t484 165q69 0 151 -21h899l-43 -303h-587l-27 -188h502l-41 -287h-502l-25 -184h605l-41 -287h-891q-77 -18 -166 -18q-298 0 -445 171.5t-104 477.5zM424 612q-46 -331 240 -331q68 0 135 26l92 647q-56 17 -115 17q-141 0 -234 -93.5 t-118 -265.5z" />
<glyph unicode="&#x153;" horiz-adv-x="1798" d="M61 506q34 242 183.5 372t388.5 130q222 0 344 -113q137 113 358 113q218 0 327.5 -127.5t76.5 -364.5q-8 -58 -25 -117h-639q1 -85 41 -124t123 -39q102 0 185 21.5t184 72.5l78 -195q-222 -153 -472 -153q-215 0 -331 110q-147 -110 -369 -110q-248 0 -368 138t-85 386 zM379 473q-18 -126 18 -178.5t129 -52.5q102 0 163 63t81 201q18 132 -19 187t-130 55q-100 0 -161 -65t-81 -210zM1104 594h366q10 98 -26 142t-115 44q-164 0 -225 -186z" />
<glyph unicode="&#x178;" horiz-adv-x="1306" d="M127 1249h346l150 -401q5 -13 26 -69t29 -81q45 86 98 166l266 385h355l-590 -856h-2l-55 -393h-332l55 399zM438 1520q9 60 54 93.5t100 33.5q68 0 108 -44.5t31 -117.5q-9 -59 -51 -91t-102 -32q-63 0 -106 44t-34 114zM862 1520q9 61 51.5 94t102.5 33q63 0 105 -45 t32 -117q-9 -58 -53 -90.5t-99 -32.5q-68 0 -108.5 43.5t-30.5 114.5z" />
<glyph unicode="&#x2c6;" horiz-adv-x="1013" d="M264 1167l275 281h178l221 -287l-82 -76q-44 29 -123.5 79.5t-118.5 76.5q-53 -32 -141 -81t-129 -73z" />
<glyph unicode="&#x2dc;" horiz-adv-x="1013" d="M248 1180q15 76 46 129.5t69 79t82.5 34.5t86 2t80.5 -26l105 -53q23 -11 41 -12.5t38 11t36 28.5t45 48l118 -20q-15 -77 -47 -131.5t-72 -81t-86.5 -35.5t-89 -2.5t-79.5 25.5l-109 53q-20 12 -37.5 13.5t-36 -9t-35 -27t-41.5 -47.5z" />
<glyph unicode="&#x2000;" horiz-adv-x="879" />
<glyph unicode="&#x2001;" horiz-adv-x="1759" />
<glyph unicode="&#x2002;" horiz-adv-x="879" />
<glyph unicode="&#x2003;" horiz-adv-x="1759" />
<glyph unicode="&#x2004;" horiz-adv-x="586" />
<glyph unicode="&#x2005;" horiz-adv-x="439" />
<glyph unicode="&#x2006;" horiz-adv-x="293" />
<glyph unicode="&#x2007;" horiz-adv-x="293" />
<glyph unicode="&#x2008;" horiz-adv-x="219" />
<glyph unicode="&#x2009;" horiz-adv-x="351" />
<glyph unicode="&#x200a;" horiz-adv-x="97" />
<glyph unicode="&#x2010;" horiz-adv-x="837" d="M106 422l39 287h607l-41 -287h-605z" />
<glyph unicode="&#x2011;" horiz-adv-x="837" d="M106 422l39 287h607l-41 -287h-605z" />
<glyph unicode="&#x2012;" horiz-adv-x="837" d="M106 422l39 287h607l-41 -287h-605z" />
<glyph unicode="&#x2013;" horiz-adv-x="1021" d="M106 434l35 242h789l-33 -242h-791z" />
<glyph unicode="&#x2014;" horiz-adv-x="1902" d="M106 434l35 242h1669l-32 -242h-1672z" />
<glyph unicode="&#x2018;" horiz-adv-x="575" d="M176 942q17 110 116.5 225.5t244.5 192.5l75 -105q-56 -38 -103 -86.5t-69 -89.5q54 -22 81 -72t18 -116q-11 -73 -65.5 -120.5t-131.5 -47.5q-87 0 -133.5 63t-32.5 156z" />
<glyph unicode="&#x2019;" horiz-adv-x="577" d="M131 823q56 38 103 86.5t69 89.5q-54 22 -80.5 72.5t-17.5 116.5q11 73 65 120.5t131 47.5q87 0 133.5 -63t32.5 -156q-17 -110 -116 -225.5t-244 -192.5z" />
<glyph unicode="&#x201a;" horiz-adv-x="577" d="M-8 -160q56 38 103 86.5t69 89.5q-54 22 -80.5 72.5t-17.5 116.5q11 73 65 120.5t131 47.5q87 0 133.5 -63t32.5 -156q-17 -110 -116 -225.5t-244 -192.5z" />
<glyph unicode="&#x201c;" horiz-adv-x="1026" d="M174 942q17 110 116.5 225.5t244.5 192.5l75 -105q-56 -38 -103 -86.5t-69 -89.5q54 -22 81 -72t18 -116q-11 -73 -65.5 -120.5t-131.5 -47.5q-87 0 -133.5 63t-32.5 156zM625 942q17 110 116 225.5t244 192.5l76 -105q-56 -38 -103 -86.5t-69 -89.5q54 -22 80.5 -72 t17.5 -116q-11 -73 -65 -120.5t-131 -47.5q-87 0 -133.5 63t-32.5 156z" />
<glyph unicode="&#x201d;" horiz-adv-x="1028" d="M131 823q56 38 103 86.5t69 89.5q-54 22 -80.5 72.5t-17.5 116.5q11 73 65 120.5t131 47.5q87 0 133.5 -63t32.5 -156q-17 -110 -116 -225.5t-244 -192.5zM582 823q56 38 103 86.5t69 89.5q-54 22 -81 72.5t-18 116.5q11 73 65.5 120.5t131.5 47.5q87 0 133.5 -63 t32.5 -156q-17 -110 -116.5 -225.5t-244.5 -192.5z" />
<glyph unicode="&#x201e;" horiz-adv-x="1028" d="M-8 -160q56 38 103 86.5t69 89.5q-54 22 -80.5 72.5t-17.5 116.5q11 73 65 120.5t131 47.5q87 0 133.5 -63t32.5 -156q-17 -110 -116 -225.5t-244 -192.5zM442 -160q56 38 103 86.5t69 89.5q-54 22 -80.5 72.5t-17.5 116.5q11 73 65.5 120.5t131.5 47.5q87 0 133.5 -63 t32.5 -156q-17 -110 -116.5 -225.5t-244.5 -192.5z" />
<glyph unicode="&#x2022;" horiz-adv-x="710" d="M121 567q14 101 87.5 165.5t178.5 64.5q112 0 173.5 -75.5t47.5 -189.5q-14 -98 -88 -162.5t-178 -64.5q-113 0 -174.5 75.5t-46.5 186.5z" />
<glyph unicode="&#x2026;" horiz-adv-x="1687" d="M57 188q11 73 65.5 120.5t131.5 47.5q86 0 132.5 -58t35.5 -144q-11 -73 -65.5 -120.5t-131.5 -47.5q-87 0 -133.5 58t-34.5 144zM616 188q11 73 65.5 120.5t131.5 47.5q86 0 132.5 -58t35.5 -144q-11 -73 -65.5 -120.5t-131.5 -47.5q-87 0 -133.5 58t-34.5 144z M1176 188q11 73 65 120.5t131 47.5q86 0 132.5 -58t35.5 -144q-11 -73 -65.5 -120.5t-131.5 -47.5q-86 0 -132.5 58t-34.5 144z" />
<glyph unicode="&#x202f;" horiz-adv-x="351" />
<glyph unicode="&#x2039;" horiz-adv-x="780" d="M70 524l512 441l145 -162l-233 -215q-37 -35 -97 -74q54 -50 70 -68l182 -204l-180 -156z" />
<glyph unicode="&#x203a;" horiz-adv-x="780" d="M61 242l232 217q40 35 98 73q-39 36 -67 68l-185 203l180 162l400 -441l-514 -438z" />
<glyph unicode="&#x205f;" horiz-adv-x="439" />
<glyph unicode="&#x20ac;" horiz-adv-x="1153" d="M35 375l18 127h105q4 46 8 71h-103l19 127h111q62 210 209 325.5t335 115.5q114 0 210 -27t200 -88l-107 -203q-144 62 -264 62q-79 0 -146.5 -44.5t-107.5 -140.5h381l-49 -127h-369l-4 -32q-4 -28 -4 -39h350l-43 -127h-305q12 -78 58.5 -107.5t117.5 -29.5 q157 0 324 98l90 -209q-115 -79 -221.5 -112t-249.5 -33q-176 0 -296.5 98.5t-141.5 294.5h-125z" />
<glyph unicode="&#x2122;" horiz-adv-x="1605" d="M152 1079l24 170h610l-24 -170h-207l-61 -438h-193l61 438h-210zM750 641l112 608h209l100 -342q3 -9 11 -47q3 5 9.5 22t10.5 25l201 342h207l-58 -608h-190l39 326l-180 -326h-142l-86 324l-55 -324h-188z" />
<glyph unicode="&#x25fc;" horiz-adv-x="993" d="M0 0v993h993v-993h-993z" />
<glyph unicode="&#xfb03;" horiz-adv-x="2029" d="M55 721l37 268h129l6 39q28 197 132 284t305 87q97 0 215 -25l-41 -221q-94 4 -123 4q-143 0 -164 -147l-2 -21h416l6 39q28 198 128.5 284.5t301.5 86.5q69 0 207 -27l-43 -219q-57 4 -113 4q-78 0 -113 -37.5t-45 -107.5l-4 -23h695l-140 -989h-327l102 721h-367 l-100 -721h-328l103 721h-418l-100 -721h-328l102 721h-129zM1683 1294q10 72 65 111t128 39q82 0 132.5 -49t37.5 -135q-10 -72 -65 -111t-128 -39q-81 0 -131 48.5t-39 135.5z" />
<glyph unicode="&#xfb04;" horiz-adv-x="2017" d="M55 721l37 268h129l6 39q28 197 132 284t305 87q97 0 215 -25l-41 -221q-94 4 -123 4q-143 0 -164 -147l-2 -21h422l6 39q28 198 128 284.5t300 86.5q89 0 305 -47l4 30h328l-195 -1382h-327l161 1151q-147 6 -223 6q-78 0 -113 -37.5t-45 -107.5l-4 -23h246l-37 -268 h-245l-101 -721h-328l103 721h-424l-100 -721h-328l102 721h-129z" />
</font>
</defs>
</svg>
