<?xml version="1.0" standalone="no"?>
<!DOCTYPE svg PUBLIC "-//W3C//DTD SVG 1.1//EN" "http://www.w3.org/Graphics/SVG/1.1/DTD/svg11.dtd" >
<svg xmlns="http://www.w3.org/2000/svg">
<metadata></metadata>
<defs>
<font id="gentonaextralight_italic" horiz-adv-x="1142" >
<font-face units-per-em="2048" ascent="1638" descent="-410" />
<missing-glyph horiz-adv-x="491" />
<glyph unicode="&#xfb01;" horiz-adv-x="1060" d="M113 874l8 76h143l17 109q21 154 92.5 227.5t216.5 73.5q71 0 219 -21l-16 -69q-129 14 -197 14q-108 0 -160.5 -56.5t-66.5 -170.5l-15 -107h592l-131 -950h-90l123 874h-506l-123 -874h-88l123 874h-141zM883 1231q3 27 21 41t44 14q29 0 44.5 -16.5t11.5 -44.5 q-3 -26 -21.5 -41t-44.5 -15q-28 0 -43.5 16.5t-11.5 45.5z" />
<glyph unicode="&#xfb02;" horiz-adv-x="1050" d="M113 874l8 76h143l17 109q21 154 92.5 227.5t216.5 73.5q93 0 319 -39l6 37h89l-191 -1358h-88l176 1251q-209 33 -305 33q-108 0 -160.5 -56.5t-66.5 -170.5l-15 -107h322l-8 -76h-326l-123 -874h-88l123 874h-141z" />
<glyph horiz-adv-x="2048" />
<glyph horiz-adv-x="2048" />
<glyph unicode="&#xd;" horiz-adv-x="2048" />
<glyph unicode=" "  horiz-adv-x="491" />
<glyph unicode="&#x09;" horiz-adv-x="491" />
<glyph unicode="&#xa0;" horiz-adv-x="491" />
<glyph unicode="!" horiz-adv-x="393" d="M78 59q3 25 20 40.5t43 15.5q28 0 42 -17t10 -45q-1 -25 -18.5 -40t-43.5 -15q-28 0 -42 16.5t-11 44.5zM145 381l109 868h96l-133 -868h-72z" />
<glyph unicode="&#x22;" horiz-adv-x="524" d="M170 823l74 525h88l-103 -525h-59zM360 823l74 525h90l-102 -525h-62z" />
<glyph unicode="#" horiz-adv-x="1390" d="M111 299l14 68h264l100 395h-264l15 67h268l76 297h78l-76 -297h379l77 297h78l-76 -297h279l-14 -67h-283l-100 -395h282l-16 -68h-283l-78 -299h-77l75 299h-378l-76 -299h-80l78 299h-262zM467 367h381l100 395h-379z" />
<glyph unicode="$" horiz-adv-x="1052" d="M35 166l51 63q77 -87 184 -129.5t228 -42.5q133 0 221 58.5t100 152.5q7 49 -2.5 83t-45.5 65t-95.5 58t-161.5 61q-46 16 -79.5 29t-67 27.5t-56 27.5t-45 28.5t-34 31t-24 35t-14.5 39.5t-5 45.5t4 53.5q17 115 117 184.5t253 69.5l21 145h67l-18 -147 q162 -17 328 -105l-37 -65q-195 100 -363 100q-117 0 -193.5 -51.5t-88.5 -136.5q-7 -46 1.5 -76.5t43.5 -59t90.5 -52.5t156.5 -58q141 -45 216.5 -92.5t102.5 -104.5t15 -139q-17 -127 -129.5 -204.5t-281.5 -77.5h-19l-18 -123h-70l21 127q-230 21 -373 180z" />
<glyph unicode="%" horiz-adv-x="1681" d="M150 905q25 177 113.5 271t228.5 94q142 0 205 -95t38 -274q-25 -176 -113.5 -269t-228.5 -93q-142 0 -205 94.5t-38 271.5zM217 901q-20 -145 26 -222t154 -77q110 0 180.5 78.5t90.5 224.5q20 147 -26.5 225t-154.5 78q-110 0 -180 -79.5t-90 -227.5zM344 0l916 1249 h69l-917 -1249h-68zM975 348q25 177 113.5 271t228.5 94q142 0 205.5 -96t38.5 -275q-25 -175 -113 -267.5t-229 -92.5q-142 0 -205.5 94t-38.5 272zM1042 342q-20 -143 26.5 -220t154.5 -77q110 0 180 78.5t90 224.5q22 146 -24.5 223.5t-155.5 77.5q-110 0 -179.5 -79 t-91.5 -228z" />
<glyph unicode="&#x26;" horiz-adv-x="1292" d="M86 328q14 108 97.5 178.5t262.5 146.5q-94 108 -125 178t-18 160q19 129 118.5 204t250.5 75q148 0 225 -80.5t57 -220.5q-29 -203 -333 -322l-41 -16l350 -342q81 91 194 258l62 -41q-103 -156 -201 -268l180 -179l-51 -59l-184 178q-105 -103 -212 -149.5t-235 -46.5 q-207 0 -313.5 91.5t-83.5 254.5zM174 330q-17 -128 67 -200.5t246 -72.5q108 0 202 41.5t188 132.5l-377 369q-163 -66 -238 -123.5t-88 -146.5zM387 987q-12 -81 18 -142.5t121 -158.5l68 27q136 54 202.5 116t77.5 144q15 109 -40.5 168t-165.5 59q-113 0 -190.5 -58.5 t-90.5 -154.5z" />
<glyph unicode="'" horiz-adv-x="331" d="M168 823l74 525h90l-105 -525h-59z" />
<glyph unicode="(" horiz-adv-x="612" d="M188 504q66 470 424 846l52 -41q-331 -370 -392 -811q-61 -440 164 -805l-63 -41q-251 373 -185 852z" />
<glyph unicode=")" horiz-adv-x="610" d="M-41 -307q330 366 391 811q61 437 -164 805l64 41q250 -372 184 -852q-65 -470 -424 -846z" />
<glyph unicode="*" horiz-adv-x="827" d="M195 772l211 156l-211 159l28 41l219 -141l76 258l51 -12l-63 -264l262 14l4 -51l-262 -31l104 -239l-45 -25l-120 242l-226 -150z" />
<glyph unicode="+" horiz-adv-x="933" d="M57 444l13 74h362l51 363h74l-53 -365h366l-10 -72h-366l-52 -364h-71l51 364h-365z" />
<glyph unicode="," horiz-adv-x="491" d="M37 -223q51 41 90 103t53 122q-23 5 -35 21.5t-8 39.5q3 28 21.5 45t46.5 17q30 0 44 -21t11 -57q-7 -75 -62 -157.5t-135 -141.5z" />
<glyph unicode="-" horiz-adv-x="788" d="M150 541l12 82h510l-10 -82h-512z" />
<glyph unicode="." horiz-adv-x="466" d="M115 63q3 28 21 45t46 17q30 0 45.5 -18.5t12.5 -49.5q-3 -26 -22 -42.5t-48 -16.5t-44.5 18t-10.5 47z" />
<glyph unicode="/" horiz-adv-x="571" d="M-135 -420l776 1786h82l-778 -1786h-80z" />
<glyph unicode="0" horiz-adv-x="1245" d="M135 627q43 311 196.5 477t399.5 166q247 0 355.5 -168.5t64.5 -480.5q-43 -308 -196.5 -473.5t-399.5 -165.5q-247 0 -355 167.5t-65 477.5zM227 621q-38 -268 48 -411.5t286 -143.5q204 0 333 145t167 416q37 271 -49 415t-287 144q-202 0 -331 -146.5t-167 -418.5z " />
<glyph unicode="1" horiz-adv-x="956" d="M43 0l10 80h367l147 1057q-196 -79 -385 -123l-14 61q243 71 436 174h70l-164 -1169h301l-10 -80h-758z" />
<glyph unicode="2" horiz-adv-x="1042" d="M18 0l9 70q65 48 155 112.5t155 110.5t144 104.5t134.5 104t113 99.5t94 100.5t62.5 97t33 98.5q19 136 -49 214.5t-207 78.5q-105 0 -228 -29.5t-235 -81.5l-21 68q259 123 488 123q182 0 271 -101.5t64 -277.5q-8 -52 -33 -105.5t-57.5 -99.5t-89 -101.5t-104 -97 t-127 -101t-134.5 -98.5t-150 -105.5t-150 -106.5q102 4 145 4h621l-11 -80h-893z" />
<glyph unicode="3" horiz-adv-x="1054" d="M6 100l41 68q95 -53 216.5 -81t230.5 -28q156 0 261 74.5t122 198.5q20 135 -68 205.5t-262 70.5h-189l11 80h186q163 0 258.5 59.5t110.5 172.5q17 120 -56.5 193t-208.5 73q-105 0 -230.5 -28.5t-233.5 -78.5l-19 66q118 57 246.5 88t243.5 31q175 0 269.5 -95 t72.5 -249q-15 -106 -89 -176t-194 -97q277 -62 238 -323q-20 -155 -150 -248.5t-324 -93.5q-122 0 -254 31t-229 87z" />
<glyph unicode="4" horiz-adv-x="1198" d="M43 313l8 72l885 864h90l-121 -856h230l-11 -80h-229l-43 -313h-92l43 313h-760zM162 393h653l105 742q-55 -65 -129 -138l-490 -471q-129 -125 -139 -133z" />
<glyph unicode="5" horiz-adv-x="1081" d="M12 100l41 70q98 -53 210 -81t216 -28q165 0 279.5 86.5t134.5 227.5q19 134 -62.5 215.5t-234.5 81.5t-356 -84l-78 14l139 647h758l-10 -80h-678l-113 -507q203 79 360 79q187 0 285.5 -102.5t75.5 -271.5q-25 -175 -162.5 -280t-335.5 -105q-121 0 -245 31t-224 87z " />
<glyph unicode="6" horiz-adv-x="1146" d="M123 584q28 203 125.5 359.5t242.5 241t314 85.5q179 0 301 -60l-37 -69q-111 49 -270 49q-226 0 -385.5 -166.5t-204.5 -462.5q79 104 199.5 168t267.5 64q195 0 299 -106t78 -286q-19 -133 -91 -228.5t-178 -143t-235 -47.5q-251 0 -359.5 156t-66.5 446zM203 459 q-8 -192 81 -296t271 -104q158 0 273 92t139 259q20 146 -65 226.5t-249 80.5q-136 0 -254 -69.5t-196 -188.5z" />
<glyph unicode="7" horiz-adv-x="901" d="M119 1169l10 80h875l-11 -69q-218 -224 -422 -547t-327 -633h-107q136 319 336.5 636.5t415.5 532.5h-770z" />
<glyph unicode="8" horiz-adv-x="1193" d="M72 328q16 119 110.5 202.5t276.5 118.5q-274 74 -240 301q20 145 155 232.5t337 87.5t310.5 -88.5t86.5 -233.5q-30 -225 -334 -297q346 -68 307 -327q-23 -161 -169.5 -251.5t-379.5 -90.5q-242 0 -362.5 91.5t-97.5 254.5zM160 328q-17 -127 82 -199t290 -72 q193 0 314.5 73t140.5 202q15 117 -73.5 183.5t-313.5 102.5q-403 -50 -440 -290zM309 946q-15 -112 62 -177t262 -91q358 47 389 274q15 111 -71.5 179.5t-245.5 68.5q-161 0 -271 -70.5t-125 -183.5z" />
<glyph unicode="9" horiz-adv-x="1146" d="M100 55l39 68q114 -62 275 -62q230 0 375.5 160.5t191.5 468.5q-76 -103 -199.5 -167t-271.5 -64q-195 0 -298.5 105.5t-78.5 285.5q29 199 170.5 309.5t347.5 110.5q233 0 343.5 -160t70.5 -442q-46 -322 -220.5 -504t-434.5 -182q-184 0 -310 73zM221 842 q-21 -146 63 -226.5t248 -80.5q137 0 260.5 70t194.5 186q8 191 -81 296t-261 105q-167 0 -283.5 -91t-140.5 -259z" />
<glyph unicode=":" horiz-adv-x="468" d="M119 63q3 28 21 45t46 17q31 0 47 -18.5t11 -49.5q-3 -26 -21.5 -42.5t-46.5 -16.5q-31 0 -46.5 18t-10.5 47zM219 780q3 28 21.5 45t46.5 17q31 0 46.5 -18.5t10.5 -47.5q-3 -28 -21.5 -44.5t-46.5 -16.5q-31 0 -46.5 18t-10.5 47z" />
<glyph unicode=";" horiz-adv-x="501" d="M31 -223q51 41 90 103t53 122q-23 4 -34.5 21t-8.5 40q3 28 21.5 45t46.5 17q30 0 45 -21t12 -57q-9 -75 -63.5 -158t-133.5 -141zM246 780q5 28 23.5 45t45.5 17q30 0 45.5 -18t12.5 -48q-5 -28 -23.5 -44.5t-46.5 -16.5q-30 0 -45 17.5t-12 47.5z" />
<glyph unicode="&#x3c;" horiz-adv-x="806" d="M123 489l553 412l43 -55l-418 -307q-24 -16 -76 -54l62 -49l327 -307l-53 -47z" />
<glyph unicode="=" horiz-adv-x="913" d="M41 334l12 65h781l-11 -65h-782zM80 612l12 68h780l-10 -68h-782z" />
<glyph unicode="&#x3e;" horiz-adv-x="806" d="M84 135l418 307q15 11 39 29t34 25l-59 51l-328 307l52 47l440 -409l-553 -410z" />
<glyph unicode="?" horiz-adv-x="1013" d="M137 1147q259 123 488 123q182 0 271.5 -100t64.5 -273q-19 -141 -149 -236t-339 -126l-24 -179h-76l18 244q205 22 332.5 100t144.5 195q19 136 -49.5 213.5t-210.5 77.5q-193 0 -448 -107zM311 59q3 25 20.5 40.5t43.5 15.5q28 0 42 -17t11 -45q-3 -25 -20 -40t-43 -15 q-28 0 -42.5 16.5t-11.5 44.5z" />
<glyph unicode="@" horiz-adv-x="1902" d="M106 422q35 251 173 444.5t349.5 298.5t461.5 105q184 0 327.5 -54.5t233.5 -153t127 -238t14 -306.5q-20 -138 -66 -245t-106.5 -168.5t-125.5 -92t-132 -30.5q-170 0 -162 163q-107 -88 -191.5 -125.5t-195.5 -37.5q-354 0 -291 448q31 220 148 325t295 105 q183 0 317 -121l14 105h80l-92 -662q-10 -75 13.5 -109t80.5 -34q53 0 106.5 28.5t104 84.5t90.5 152t58 218q29 207 -39 363.5t-225.5 242.5t-385.5 86q-236 0 -434.5 -99t-327.5 -280.5t-163 -416.5q-31 -229 41.5 -403.5t236.5 -269.5t396 -95q281 0 512 129l22 -43 q-238 -144 -536 -144q-251 0 -428.5 103t-256.5 292t-43 435zM594.5 276q6.5 -64 23.5 -107t50.5 -69t74 -37.5t93.5 -11.5q105 0 191 45.5t183 141.5l60 417q-124 133 -293 133q-149 0 -249 -87.5t-126 -274.5q-14 -86 -7.5 -150z" />
<glyph unicode="A" horiz-adv-x="1304" d="M-31 0l731 1249h119l381 -1249h-96l-111 362h-712l-211 -362h-101zM332 449h635l-181 589q-29 111 -36 142h-2q-33 -77 -74 -144z" />
<glyph unicode="B" horiz-adv-x="1267" d="M141 0l174 1249h390q235 -1 335 -85q82 -69 82 -196q0 -29 -4 -61q-14 -98 -76.5 -165.5t-164.5 -92.5q135 -27 197 -111q47 -64 46 -154q0 -28 -4 -58q-24 -171 -158 -248.5t-391 -77.5h-426zM246 86h332q208 0 318 57t130 191q3 24 3 46q1 100 -71 155q-88 67 -290 67 h-351zM330 688h350q318 0 348 219q4 26 4 50q0 97 -62 145q-78 62 -274 61h-301z" />
<glyph unicode="C" horiz-adv-x="1284" d="M135 627q43 311 217.5 477t458.5 166q116 0 232.5 -29t187.5 -78l-45 -69q-70 41 -174 65.5t-205 24.5q-245 0 -393.5 -145t-186.5 -418q-10 -69 -10 -130q0 -173 77 -279q104 -144 331 -144q292 0 479 139l33 -70q-197 -155 -523 -155q-272 0 -397 168q-93 125 -93 328 q0 70 11 149z" />
<glyph unicode="D" horiz-adv-x="1335" d="M135 0l174 1249h359q147 0 261 -38t190.5 -112.5t107.5 -191.5q18 -70 18 -152q0 -55 -8 -116q-46 -318 -241.5 -478.5t-495.5 -160.5h-365zM238 86h270q254 0 425.5 140.5t211.5 418.5q7 54 7 102q0 71 -15 129q-26 100 -91 162t-161.5 93.5t-222.5 31.5h-273z" />
<glyph unicode="E" horiz-adv-x="1153" d="M135 0l174 1249h791l-10 -86h-701l-67 -483h616l-12 -86h-617l-71 -508h718l-12 -86h-809z" />
<glyph unicode="F" horiz-adv-x="1062" d="M135 0l174 1249h770l-10 -86h-680l-70 -495h599l-13 -86h-598l-82 -582h-90z" />
<glyph unicode="G" horiz-adv-x="1363" d="M135 627q43 307 218.5 475t455.5 168q119 0 241 -28.5t210 -78.5l-41 -76q-86 46 -196 71.5t-216 25.5q-243 0 -392.5 -145.5t-187.5 -415.5q-10 -72 -10 -135q0 -171 73 -276q100 -144 316 -144q278 0 496 139l45 325h-508l12 84h598l-65 -456q-269 -178 -588 -178 q-259 0 -382 169q-90 125 -90 326q0 70 11 150z" />
<glyph unicode="H" horiz-adv-x="1413" d="M141 0l174 1249h93l-80 -565h817l78 565h92l-174 -1249h-92l84 598h-816l-84 -598h-92z" />
<glyph unicode="I" horiz-adv-x="505" d="M135 0l174 1249h92l-176 -1249h-90z" />
<glyph unicode="J" horiz-adv-x="974" d="M-2 84l41 74q48 -25 84.5 -41t99 -31.5t125.5 -15.5q287 0 330 321l121 858h90l-119 -860q-58 -407 -416 -407q-173 0 -356 102z" />
<glyph unicode="K" horiz-adv-x="1261" d="M135 0l174 1249h92l-110 -780l874 780h113l-2 -6l-576 -520l449 -715l-2 -8h-92l-422 664l-361 -324l-47 -340h-90z" />
<glyph unicode="L" horiz-adv-x="1019" d="M135 0l174 1249h92l-163 -1161h651l-12 -88h-742z" />
<glyph unicode="M" horiz-adv-x="1708" d="M137 0l217 1249h103l327 -1073q2 -12 8.5 -33t8.5 -30q4 10 9.5 21t13.5 24.5t12 21.5l626 1069h103l-131 -1249h-95l107 1012l6 45l-623 -1057h-90l-325 1057l-6 -45l-179 -1012h-92z" />
<glyph unicode="N" horiz-adv-x="1419" d="M137 0l176 1249h82l678 -1095l4 41l150 1054h90l-174 -1249h-82l-680 1092l-8 -76l-144 -1016h-92z" />
<glyph unicode="O" horiz-adv-x="1368" d="M135 627q43 309 215 476t443 167q273 0 399 -168q93 -125 93 -329q0 -71 -11 -152q-43 -306 -215 -472.5t-443 -166.5q-274 0 -399 168q-93 125 -93 328q0 70 11 149zM227 621q-10 -71 -10 -132q0 -172 76 -278q103 -143 330 -143q231 0 376 144.5t183 414.5 q10 72 10 136q0 172 -75 277q-103 144 -331 144q-231 0 -376 -146t-183 -417z" />
<glyph unicode="P" horiz-adv-x="1157" d="M121 0l174 1249h387q240 -1 348 -107q87 -86 87 -236q0 -37 -5 -77q-26 -212 -166.5 -326t-374.5 -114h-305l-53 -389h-92zM279 475h301q192 0 307 93.5t135 265.5q4 32 4 61q0 122 -68 187q-84 81 -284 81h-299z" />
<glyph unicode="Q" horiz-adv-x="1361" d="M129 627q43 310 213 476.5t442 166.5t397 -169q92 -125 92 -328q0 -71 -11 -152q-43 -307 -213.5 -473t-442.5 -166t-396 168q-92 124 -92 325q0 71 11 152zM221 621q-10 -73 -10 -137q0 -169 73 -273q101 -143 330 -143q230 0 373.5 144.5t181.5 414.5q10 74 10 138 q0 171 -73 275q-101 144 -330 144q-230 0 -373.5 -145.5t-181.5 -417.5zM469 -170l35 64q105 -88 234 -128t313 -40l-11 -86q-366 0 -571 190z" />
<glyph unicode="R" horiz-adv-x="1236" d="M135 0l174 1249h430q231 0 341 -104q91 -87 91 -232q0 -29 -4 -61q-21 -182 -132 -288t-279 -118l327 -438l-4 -8h-102l-336 444h-352l-64 -444h-90zM301 530h412q150 0 247.5 85.5t114.5 240.5q3 25 3 47q0 115 -71 181q-85 80 -270 79h-348z" />
<glyph unicode="S" horiz-adv-x="1163" d="M41 188l53 66q90 -93 214.5 -139.5t254.5 -46.5q163 0 257.5 62t111.5 177q2 16 2 30q0 80 -64 136q-76 66 -290 139q-226 76 -308 156q-65 64 -65 170q0 27 4 57q17 125 136.5 200t297.5 75q230 0 447 -90l-39 -74q-207 82 -416 82q-135 0 -226.5 -56.5t-103.5 -146.5 q-2 -17 -2 -33q-1 -80 57 -132q70 -62 287 -136q228 -76 312 -162q69 -71 68 -175q0 -23 -3 -48q-12 -82 -54 -144t-106.5 -99t-142 -55.5t-166.5 -18.5q-149 0 -287 53t-229 153z" />
<glyph unicode="T" horiz-adv-x="1077" d="M121 1163l10 86h1030l-12 -86h-469l-162 -1163h-92l164 1163h-469z" />
<glyph unicode="U" horiz-adv-x="1359" d="M182 553l99 696h90l-97 -698q-8 -61 -9 -115q0 -151 67 -242q90 -124 289 -124q197 0 326 128t161 355l96 696h92l-98 -698q-38 -274 -190.5 -421.5t-395.5 -147.5q-244 0 -356 148q-84 111 -84 292q0 62 10 131z" />
<glyph unicode="V" horiz-adv-x="1261" d="M139 1249h103l295 -1020q24 -88 34 -141q28 67 72 145l578 1016h104l-707 -1249h-114z" />
<glyph unicode="W" horiz-adv-x="1775" d="M139 1249h101l159 -1020q15 -98 19 -143q13 41 61 147l457 1016h106l172 -1020q2 -20 9.5 -69t9.5 -72q13 39 57 145l445 1016h104l-553 -1249h-129l-176 1008l-10 104q-8 -21 -22.5 -56.5t-18.5 -47.5l-459 -1008h-127z" />
<glyph unicode="X" horiz-adv-x="1171" d="M-23 0l558 643l-361 606h113l303 -506q12 -21 24 -45q6 8 22 25.5t17 19.5l447 506h117l-535 -606l373 -643h-113l-313 547l-25 43q-6 -6 -20 -22t-21 -23l-467 -545h-119z" />
<glyph unicode="Y" horiz-adv-x="1107" d="M145 1249h97l297 -645q14 -33 20 -65q10 20 41 65l479 645h99l-582 -796l-64 -453h-90l62 451z" />
<glyph unicode="Z" horiz-adv-x="1179" d="M41 0l10 74l1002 1093q-102 -4 -158 -4h-657l12 86h930l-11 -78l-991 -1089q98 4 146 4h702l-10 -86h-975z" />
<glyph unicode="[" horiz-adv-x="702" d="M84 -356l242 1708h428l-11 -76h-344l-221 -1557h346l-12 -75h-428z" />
<glyph unicode="\" horiz-adv-x="813" d="M233 1366h82l273 -1784h-80z" />
<glyph unicode="]" horiz-adv-x="702" d="M-37 -356l10 75h344l222 1557h-346l12 76h428l-242 -1708h-428z" />
<glyph unicode="^" horiz-adv-x="937" d="M150 711l407 637h68l231 -637h-74l-161 465q-25 62 -37 112h-2q-32 -61 -68 -112l-293 -465h-71z" />
<glyph unicode="_" horiz-adv-x="919" d="M25 -201l12 74h678l-13 -74h-677z" />
<glyph unicode="`" horiz-adv-x="989" d="M434 1352l72 51l207 -270l-33 -33q-94 84 -244 231z" />
<glyph unicode="a" d="M109 477q69 492 456 492q107 0 203 -43.5t168 -118.5l20 143h88l-133 -950h-88l21 150q-68 -59 -118.5 -92t-117.5 -54.5t-145 -21.5q-83 0 -152 27.5t-122 84t-75 154.5q-12 55 -13 120q0 51 8 109zM197 473q-7 -52 -7 -97q0 -52 9 -96q17 -82 59.5 -129t98 -69.5 t122.5 -22.5q107 0 190.5 42t186.5 137l68 483q-150 170 -344 170q-323 0 -383 -418z" />
<glyph unicode="b" horiz-adv-x="1144" d="M98 0l189 1348h88l-76 -545q93 76 200.5 121t211.5 45q331 0 332 -358q0 -63 -11 -138q-15 -104 -49.5 -188t-81.5 -139.5t-105.5 -93t-119 -54t-125.5 -16.5q-116 0 -191.5 40.5t-152.5 127.5l-21 -150h-88zM221 244q72 -92 146 -138.5t172 -46.5q68 0 131 23t120 70.5 t97.5 130.5t56.5 194q9 63 9 117q0 297 -269 297q-97 0 -201 -50t-198 -134z" />
<glyph unicode="c" horiz-adv-x="1015" d="M100 471q18 125 66.5 222t118 156.5t153.5 89.5t178 30q89 0 175 -26t149 -79l-45 -59q-115 86 -283 86q-158 0 -276.5 -107t-149.5 -319q-6 -48 -7 -91q-1 -51 9 -94q16 -80 58.5 -127t101 -70.5t131.5 -23.5q104 0 191 32t176 106l33 -60q-95 -84 -192 -119.5 t-222 -35.5q-93 0 -166 29.5t-125 87.5q-51 57 -71 153q-11 52 -11 112q0 50 8 107z" />
<glyph unicode="d" d="M94 287q-6 36 -5 78q0 52 9 112q18 133 61 230t105.5 153.5t135.5 82.5t161 26q212 0 363 -164l75 543h88l-188 -1348h-88l20 152q-102 -90 -184 -130t-196 -40q-65 0 -122.5 17t-107.5 53.5t-81.5 94.5t-45.5 140zM182 313q10 -69 34.5 -117t65 -78t86.5 -43.5t99 -13.5 q105 0 191 45.5t188 139.5l65 473q-152 172 -344 172q-324 0 -381 -418q-9 -54 -8 -99q0 -33 4 -61z" />
<glyph unicode="e" horiz-adv-x="1064" d="M100 477q18 126 65 222t115.5 154t151.5 87t178 29q187 0 280 -114q73 -90 73 -257q0 -45 -5 -96q-1 -8 -10 -49h-766q-6 -45 -6 -84t6 -71q12 -66 36.5 -112t66 -74.5t89.5 -41.5t105 -13q212 0 369 136l29 -54q-168 -157 -406 -157q-94 0 -168.5 30t-126.5 89t-72 155 q-11 52 -12 114q0 50 8 107zM195 524h686q4 39 4 73q0 136 -60 208q-75 90 -221 90q-70 0 -132 -20t-117.5 -62t-97 -116t-62.5 -173z" />
<glyph unicode="f" horiz-adv-x="649" d="M113 874l8 76h143l15 109q22 154 94 227.5t217 73.5q120 0 172 -14l-17 -72q-65 10 -149 10q-108 0 -160.5 -56.5t-68.5 -170.5l-15 -107h324l-8 -76h-326l-123 -874h-90l123 874h-139z" />
<glyph unicode="g" horiz-adv-x="1101" d="M57 -193l31 68q87 -52 175.5 -77t199.5 -25q151 0 249.5 89.5t123.5 270.5l10 80q-99 -89 -185 -129.5t-202 -40.5q-67 0 -124.5 15t-107 47.5t-80.5 83.5t-45 123q-6 34 -6 73q0 44 8 94q69 490 457 490q105 0 201 -44.5t168 -119.5l20 145h88l-114 -821 q-31 -220 -154 -328t-305 -108q-251 0 -408 114zM193 475q-6 -42 -6 -80q0 -49 10 -89q18 -72 62 -112t99.5 -58.5t122.5 -18.5q105 0 191 45.5t186 136.5l60 420q-155 172 -345 172q-323 0 -380 -416z" />
<glyph unicode="h" horiz-adv-x="1124" d="M100 0l189 1348h90l-78 -553q192 174 404 174q162 -1 230 -97q48 -68 48 -182q0 -47 -8 -102l-82 -588h-88l80 575q8 57 8 103q0 86 -29 134q-45 74 -178 73q-197 0 -399 -187l-97 -698h-90z" />
<glyph unicode="i" horiz-adv-x="434" d="M106 0l134 950h88l-133 -950h-89zM262 1231q3 27 21.5 41t44.5 14q29 0 44 -16q12 -13 12 -33q0 -6 -1 -12q-3 -26 -21.5 -41t-44.5 -15q-27 1 -43 17q-12 13 -13 34q0 5 1 11z" />
<glyph unicode="j" horiz-adv-x="434" d="M-47 -266q68 30 100 92t51 194l132 930h88l-129 -932q-24 -162 -74 -242t-154 -112zM258 1231q3 27 21.5 41t44.5 14q29 0 44 -16q12 -13 12 -33q0 -6 -1 -12q-3 -26 -21.5 -41t-44.5 -15q-28 0 -43 17q-13 13 -13 34q0 5 1 11z" />
<glyph unicode="k" horiz-adv-x="1026" d="M98 0l187 1348h90l-129 -922l643 524h112l-2 -6l-444 -369l395 -569v-6h-102l-363 516l-256 -213l-43 -303h-88z" />
<glyph unicode="l" horiz-adv-x="430" d="M104 0l187 1348h90l-188 -1348h-89z" />
<glyph unicode="m" horiz-adv-x="1730" d="M100 0l133 950h89l-19 -143q185 162 371 162q216 0 254 -197q105 104 202 150.5t199 46.5q151 0 215 -97q46 -69 47 -184q0 -46 -8 -100l-82 -588h-90l82 575q8 56 8 101q0 86 -28 135q-42 74 -162 74q-183 0 -375 -189q0 -30 -8 -108l-82 -588h-90l82 575q8 55 8 100 q0 87 -28 136q-42 74 -163 74q-176 0 -366 -172l-99 -713h-90z" />
<glyph unicode="n" horiz-adv-x="1124" d="M100 0l133 950h89l-21 -157q191 176 404 176q162 -1 230 -97q48 -68 48 -182q0 -47 -8 -102l-82 -588h-88l82 582q8 57 8 103q0 85 -29 133q-45 72 -178 73q-195 0 -401 -193l-97 -698h-90z" />
<glyph unicode="o" horiz-adv-x="1136" d="M104 471q32 234 173 366t358 132q219 0 325 -134q80 -101 81 -261q0 -51 -9 -109q-32 -227 -173 -355t-359 -128t-324 130q-80 98 -80 254q0 49 8 105zM190 465q-7 -51 -7 -96q-1 -129 59 -206q80 -104 264 -104q180 0 296 109t144 303q8 54 8 101q0 131 -60 211 q-80 108 -263 108q-180 0 -296.5 -113t-144.5 -313z" />
<glyph unicode="p" horiz-adv-x="1144" d="M49 -342l180 1292h90l-20 -145q94 75 200.5 119.5t211.5 44.5q331 0 331 -360q0 -63 -10 -138q-18 -129 -66.5 -226t-115.5 -153t-142 -83t-157 -27q-117 0 -193.5 40.5t-150.5 127.5l-70 -492h-88zM219 240q76 -92 147 -136.5t175 -44.5q53 0 103.5 13.5t100 45.5 t88.5 79t69 119t42 161q9 63 9 117q0 297 -269 297q-97 0 -200.5 -48t-196.5 -128z" />
<glyph unicode="q" d="M104 477q69 492 457 492q220 0 369 -162l20 143h88l-180 -1292h-88l68 489q-100 -86 -186 -125.5t-201 -39.5q-83 0 -151 27.5t-119.5 84t-72.5 154.5q-12 54 -12 117q0 53 8 112zM193 473q-7 -52 -7 -98q0 -51 8 -94q17 -82 59.5 -128t97.5 -68t122 -22 q106 0 193.5 44.5t185.5 136.5l66 471q-149 176 -345 176q-323 0 -380 -418z" />
<glyph unicode="r" horiz-adv-x="737" d="M98 0l131 950h90l-26 -190q59 95 149.5 152t186.5 57q68 0 123 -6l-19 -86q-49 4 -115 4q-99 0 -187.5 -64.5t-156.5 -189.5l-88 -627h-88z" />
<glyph unicode="s" horiz-adv-x="894" d="M12 139l41 60q66 -64 160 -104t195 -40q246 0 270 178q1 11 1 22q0 59 -43 101q-51 48 -200 97q-181 59 -245 129q-53 57 -53 135q0 17 3 35q14 110 99.5 163.5t224.5 53.5q89 0 184.5 -23.5t165.5 -60.5l-33 -66q-67 34 -156 55t-161 21q-106 0 -169 -37.5t-73 -109.5 l-2 -20q0 -60 49 -104q56 -52 209 -102q175 -58 237 -124q51 -54 50 -138q0 -19 -2 -39q-18 -122 -113.5 -180.5t-242.5 -58.5q-105 0 -220.5 43.5t-175.5 113.5z" />
<glyph unicode="t" horiz-adv-x="698" d="M102 874l11 76h151l37 258h88l-35 -258h314l-11 -76h-313l-84 -591q-4 -30 -4 -55q0 -68 29 -102q40 -46 135 -46q64 0 164 14l10 -69q-101 -27 -193 -27q-236 0 -236 217q0 33 5 70l84 589h-152z" />
<glyph unicode="u" horiz-adv-x="1116" d="M135 367l82 583h90l-80 -571q-8 -57 -8 -103q1 -86 29 -135q44 -75 174 -75q205 0 403 192l97 692h88l-131 -950h-91l23 162q-198 -180 -408 -180q-160 0 -227 98q-48 71 -48 188q0 46 7 99z" />
<glyph unicode="v" horiz-adv-x="1001" d="M111 950h92l207 -704q24 -88 34 -148q40 89 78 152l404 700h94l-541 -950h-94z" />
<glyph unicode="w" horiz-adv-x="1435" d="M86 950h88l156 -712q17 -84 26 -136q19 51 58 140l325 708h88l125 -712q7 -36 21 -136q26 62 63 140l357 708h88l-471 -950h-101l-143 805l-373 -805h-100z" />
<glyph unicode="x" horiz-adv-x="921" d="M-39 0l447 481l-299 469h100l201 -315q6 -10 28.5 -44.5t32.5 -53.5q12 14 90 98l285 315h104l-432 -473l305 -477h-98l-211 326q-5 8 -26.5 42.5t-32.5 53.5q-58 -66 -88 -96l-304 -326h-102z" />
<glyph unicode="y" horiz-adv-x="983" d="M72 -209q159 77 284 225l-278 934h94l205 -696q30 -103 43 -154l39 60q50 77 110 177.5t101.5 172t126 219t127.5 221.5h100q-32 -54 -207 -356t-270 -455q-197 -312 -451 -426z" />
<glyph unicode="z" horiz-adv-x="985" d="M14 0l9 63l806 814q-13 0 -69.5 -1.5t-95.5 -1.5h-514l8 76h798l-8 -61l-805 -817q90 4 172 4h533l-10 -76h-824z" />
<glyph unicode="{" horiz-adv-x="759" d="M119 473l10 62q79 2 127.5 15.5t83.5 49.5t53 92t31 150l25 168q21 147 107.5 227.5t250.5 99.5v-61q-246 -43 -277 -268l-22 -170q-25 -171 -78 -243t-170 -91q110 -19 144 -93t8 -243l-23 -170q-16 -112 30.5 -177.5t168.5 -88.5l-10 -62q-160 19 -226.5 101.5 t-46.5 230.5l25 168q25 180 -17 241t-194 62z" />
<glyph unicode="|" horiz-adv-x="561" d="M115 -410l243 1758h80l-245 -1758h-78z" />
<glyph unicode="}" horiz-adv-x="759" d="M-35 -268q129 23 195 90t82 178l24 170q23 171 76 243t170 91q-109 19 -143 92.5t-9 243.5l23 170q16 112 -30.5 177.5t-168.5 88.5l11 61q161 -19 227 -101t45 -230l-25 -168q-25 -180 17 -241t194 -62l-8 -62q-79 -2 -127.5 -15.5t-83.5 -49.5t-53 -92t-31 -150 l-24 -168q-22 -147 -109.5 -228t-251.5 -100v62z" />
<glyph unicode="~" horiz-adv-x="825" d="M66 498q67 103 137 130.5t151 -14.5l168 -86q60 -30 107.5 -8t101.5 103l45 -33q-70 -106 -141 -135t-150 12l-168 88q-58 29 -105 9.5t-101 -95.5z" />
<glyph unicode="&#xa1;" horiz-adv-x="393" d="M43 -283l133 869h72l-109 -869h-96zM201 913q2 25 18.5 40.5t42.5 15.5q28 0 42 -17t11 -45q-3 -25 -20 -40t-43 -15q-28 0 -42 16.5t-9 44.5z" />
<glyph unicode="&#xa2;" horiz-adv-x="1050" d="M118 325.5q-14 92.5 5 215.5q17 118 55 214t88 159.5t113 107t126 64t130 24.5l20 139h68l-18 -141q185 -6 307 -107l-45 -59q-112 92 -299 92q-56 0 -111 -15t-111.5 -51.5t-102 -91.5t-81.5 -142.5t-51 -196.5q-17 -110 -4.5 -191.5t39.5 -137t72.5 -89t93 -48 t102.5 -14.5q118 0 208.5 32.5t176.5 107.5l33 -54q-84 -78 -175.5 -116.5t-209.5 -42.5l-17 -123h-69l16 121q-66 3 -122.5 22.5t-108.5 60t-83 104.5t-45 156.5z" />
<glyph unicode="&#xa3;" horiz-adv-x="1091" d="M0 0l10 66l189 10l77 368h-204l8 68h211l20 96q57 270 174.5 389t302.5 119q208 0 330 -108l-45 -60q-112 92 -282 92q-149 0 -247 -100.5t-147 -333.5l-18 -94h446l-8 -68h-452l-78 -366h661l-10 -78h-938z" />
<glyph unicode="&#xa5;" horiz-adv-x="1019" d="M117 184l10 60h303l23 159h-303l8 60h280l-313 647h96l273 -551l20 -51q12 21 35 51l426 551h96l-496 -647h299l-8 -60h-321l-23 -159h322l-8 -60h-322l-27 -184h-90l25 184h-305z" />
<glyph unicode="&#xa6;" horiz-adv-x="561" d="M115 -410l96 689h78l-96 -689h-78zM262 659l96 689h80l-96 -689h-80z" />
<glyph unicode="&#xa7;" horiz-adv-x="1183" d="M145 66l45 59q59 -66 163 -108t200 -42q105 0 171 43.5t77 114.5q6 43 -4 72.5t-45 55t-80 44.5t-129 47q-209 69 -292 135.5t-67 176.5q9 59 48.5 105t132.5 112q-58 58 -43 166q14 101 103.5 162t227.5 61q93 0 190 -23.5t167 -62.5l-35 -64q-65 36 -155 58t-167 22 q-105 0 -171.5 -44t-75.5 -114q-6 -43 4 -72.5t45 -55t80 -44.5t129 -47q207 -68 289.5 -135t68.5 -176q-9 -60 -48 -106t-132 -111q58 -60 43 -166q-14 -101 -104.5 -163t-229.5 -62q-111 0 -228 45t-178 117zM266 666q-5 -36 7.5 -65.5t35.5 -52t70.5 -46t93 -41.5 t123.5 -45q141 -46 203 -88q74 58 103.5 97t37.5 85q5 36 -7.5 65.5t-35.5 52t-70.5 46t-94 41.5t-124.5 45q-133 44 -200 88q-77 -62 -106.5 -100t-35.5 -82z" />
<glyph unicode="&#xa8;" horiz-adv-x="989" d="M356 1247q3 25 21.5 40.5t42.5 15.5q27 0 42 -16.5t11 -45.5q-3 -24 -20.5 -38.5t-42.5 -14.5q-27 0 -42.5 16t-11.5 43zM719 1247q3 26 19.5 41t41.5 15q27 0 42.5 -17t11.5 -45q-3 -24 -21.5 -38.5t-42.5 -14.5q-27 0 -41 16t-10 43z" />
<glyph unicode="&#xa9;" horiz-adv-x="1525" d="M127 625q0 175 85.5 323.5t233.5 235t324 86.5q175 0 322.5 -86.5t233 -235t85.5 -323.5q0 -176 -85.5 -324t-233 -233.5t-322.5 -85.5q-176 0 -324 85.5t-233.5 233.5t-85.5 324zM174 625q0 -122 47 -232t126.5 -190t190 -127t232.5 -47q161 0 298 79.5t217.5 217 t80.5 299.5q0 161 -80.5 299t-218 218.5t-297.5 80.5q-122 0 -232.5 -47.5t-190 -128t-126.5 -191t-47 -231.5zM428 614q23 173 132.5 277t266.5 104q75 0 146.5 -24.5t118.5 -65.5l-41 -49q-41 34 -103.5 54t-126.5 20q-125 0 -212.5 -86t-106.5 -230q-21 -134 48 -217.5 t193 -83.5q152 0 273 111l28 -47q-62 -60 -143.5 -94.5t-171.5 -34.5q-153 0 -239 101.5t-62 264.5z" />
<glyph unicode="&#xaa;" horiz-adv-x="776" d="M133 780q13 105 88.5 155t218.5 50h222q17 126 -13.5 172.5t-130.5 46.5q-109 0 -246 -35l-10 60q145 41 268 41q137 0 181.5 -63t21.5 -224l-55 -405h-74l17 112q-71 -62 -136.5 -93.5t-146.5 -31.5q-117 0 -168.5 55t-36.5 160zM203 778q-11 -77 24.5 -114t126.5 -37 q78 0 141.5 33t133.5 98l24 172h-211q-117 0 -172 -34t-67 -118z" />
<glyph unicode="&#xab;" horiz-adv-x="1011" d="M125 489l453 412l47 -49l-318 -291q-13 -12 -27.5 -24.5t-31.5 -26.5t-27 -23q57 -56 68 -69l233 -291l-59 -45zM426 489l453 412l49 -49l-318 -291q-24 -23 -88 -74q42 -39 70 -69l233 -291l-59 -45z" />
<glyph unicode="&#xad;" horiz-adv-x="788" d="M150 541l12 82h510l-10 -82h-512z" />
<glyph unicode="&#xae;" horiz-adv-x="1525" d="M121 625q0 175 85.5 323.5t233.5 235t324 86.5q175 0 322.5 -86.5t233 -235t85.5 -323.5q0 -176 -85.5 -324t-233 -233.5t-322.5 -85.5q-176 0 -324 85.5t-233.5 233.5t-85.5 324zM168 625q0 -122 47 -232t126.5 -190t190 -127t232.5 -47q161 0 298 79.5t217.5 217 t80.5 299.5q0 161 -80.5 299t-218 218.5t-297.5 80.5q-122 0 -232.5 -47.5t-190 -128t-126.5 -191t-47 -231.5zM467 264l100 723h262q137 0 201.5 -58.5t50.5 -168.5q-14 -88 -65.5 -140.5t-136.5 -62.5q89 -38 163 -293h-77q-84 266 -166 266h-228l-36 -266h-68zM584 592 h233q83 0 132.5 44t60.5 124q11 78 -39 122t-152 44h-188z" />
<glyph unicode="&#xaf;" horiz-adv-x="989" d="M367 1196l10 76h442l-8 -76h-444z" />
<glyph unicode="&#xb0;" horiz-adv-x="665" d="M195 1051q12 100 78.5 159.5t164.5 59.5q100 0 152.5 -61.5t38.5 -161.5q-12 -94 -78.5 -150.5t-163.5 -56.5q-98 0 -151 58.5t-41 152.5zM254 1047q-5 -68 31.5 -108t105.5 -40q72 0 121 42t57 110q6 74 -30.5 117.5t-106.5 43.5t-119.5 -45.5t-58.5 -119.5z" />
<glyph unicode="&#xb1;" horiz-adv-x="933" d="M14 150l13 65h798l-10 -65h-801zM80 612l12 70h367l43 301h67l-43 -303h367l-8 -68h-369l-43 -303h-67l43 303h-369z" />
<glyph unicode="&#xb2;" horiz-adv-x="686" d="M100 686l9 55q43 32 109 79t107.5 77t94 70.5t85.5 71.5t65 66.5t49 69.5t22 68q12 83 -26 126.5t-121 43.5q-139 0 -275 -65l-18 51q158 76 303 76q114 0 169 -62t38 -174q-4 -32 -19 -65t-33.5 -60.5t-52.5 -61t-61 -57.5t-75.5 -60.5t-80.5 -59t-90.5 -63.5t-91.5 -64 h72h385l-9 -62h-555z" />
<glyph unicode="&#xb3;" horiz-adv-x="681" d="M82 756l33 51q119 -68 270 -68q96 0 155 42.5t68 117.5q12 80 -36.5 122t-153.5 42h-135l8 61h133q94 0 149 35.5t64 102.5q10 75 -29.5 114t-124.5 39q-140 0 -278 -63l-17 51q154 72 301 72q116 0 172.5 -56t43.5 -157q-9 -62 -53 -105.5t-113 -62.5q75 -22 111 -74 t26 -127q-15 -103 -91 -158t-202 -55q-77 0 -158 20t-143 56z" />
<glyph unicode="&#xb4;" horiz-adv-x="989" d="M463 1133l256 270l67 -51l-6 -21q-161 -136 -286 -231z" />
<glyph unicode="&#xb6;" horiz-adv-x="1069" d="M166 844q32 225 156 315t397 90h356l-10 -73l-231 -9l-164 -1167h-86l61 442h-39q-271 0 -371 90.5t-69 311.5z" />
<glyph unicode="&#xb7;" horiz-adv-x="538" d="M221 588q3 28 21.5 44.5t46.5 16.5q31 0 46.5 -18t10.5 -47q-3 -28 -21 -45t-46 -17q-31 0 -47 18.5t-11 47.5z" />
<glyph unicode="&#xb8;" horiz-adv-x="989" d="M223 -373l17 56q81 -15 125 -15q62 0 102 25t47 74q9 54 -26 75t-123 21h-41l53 147h57l-22 -96q97 -3 139.5 -40.5t32.5 -115.5q-9 -70 -63.5 -111.5t-137.5 -41.5q-96 0 -160 22z" />
<glyph unicode="&#xb9;" horiz-adv-x="624" d="M94 678l8 61h228l88 635q-98 -40 -238 -71l-10 45q162 48 274 106h56l-101 -715h207l-8 -61h-504z" />
<glyph unicode="&#xba;" horiz-adv-x="892" d="M178 913q23 170 122 263.5t257 93.5q161 0 235.5 -95t49.5 -268q-23 -164 -122 -253t-257 -89q-160 0 -235 90.5t-50 257.5zM250 907q-20 -135 36.5 -205.5t180.5 -70.5q128 0 206.5 72t98.5 210q19 142 -37.5 216.5t-181.5 74.5q-127 0 -205 -76t-98 -221z" />
<glyph unicode="&#xbb;" horiz-adv-x="1011" d="M80 129l315 289q40 38 88 76q-39 39 -63 69l-236 291l56 47l338 -412l-455 -407zM381 129l315 289q53 46 90 76q-39 39 -63 69l-238 291l58 47l336 -412l-455 -407z" />
<glyph unicode="&#xbc;" horiz-adv-x="1763" d="M84 473l8 62h227l89 634q-98 -40 -238 -71l-10 45q162 48 274 106h55l-100 -714h207l-8 -62h-504zM393 0l916 1249h67l-915 -1249h-68zM918 182l4 54l551 540h67l-76 -534h131l-8 -60h-131l-24 -182h-68l25 182h-471zM999 242h398l63 446q-10 -11 -29.5 -31.5 t-29.5 -31.5l-316 -301q-66 -66 -86 -82z" />
<glyph unicode="&#xbd;" horiz-adv-x="1769" d="M82 473l8 62h227l86 634q-102 -41 -235 -71l-12 45q162 48 274 106h55l-100 -714h207l-8 -62h-502zM389 0l916 1249h69l-917 -1249h-68zM1030 0l8 55q43 32 109 79t107.5 77.5t94 70.5t86 71t65.5 66.5t49 69.5t22 68q12 83 -26 126.5t-122 43.5q-138 0 -274 -65l-19 51 q156 75 304 75q114 0 168.5 -61.5t37.5 -173.5q-4 -32 -19 -65t-33 -60.5t-52.5 -61.5t-61 -57.5t-76 -60.5t-80 -59t-90.5 -64t-91 -64h71h385l-8 -61h-555z" />
<glyph unicode="&#xbe;" horiz-adv-x="1748" d="M63 551l33 51q117 -67 269 -67q97 0 156.5 42t68.5 117q11 80 -37.5 122t-153.5 42h-137l8 62h133q95 0 150.5 35t64.5 102q10 75 -30 114t-125 39q-138 0 -279 -63l-14 51q154 72 301 72q116 0 172 -56t41 -157q-9 -62 -53 -105t-111 -63q75 -22 110.5 -74t26.5 -127 q-15 -103 -91.5 -158t-203.5 -55q-76 0 -157.5 20t-141.5 56zM410 0l915 1249h70l-918 -1249h-67zM918 182l6 54l551 540h67l-76 -534h131l-8 -60h-131l-24 -182h-70l27 182h-473zM1001 242h396l65 446q-18 -20 -61 -63l-314 -301q-15 -14 -34 -32.5t-31.5 -30.5t-20.5 -19z " />
<glyph unicode="&#xbf;" horiz-adv-x="1013" d="M45 70q20 141 150.5 236t339.5 126l24 178h76l-21 -243q-205 -22 -332.5 -100t-142.5 -195q-20 -135 49 -213t211 -78q193 0 449 106l20 -67q-255 -123 -485 -123q-182 0 -271.5 100t-66.5 273zM580 913q3 25 20 40.5t43 15.5q28 0 42 -17t9 -45q-3 -25 -19.5 -40 t-41.5 -15q-29 0 -42.5 16.5t-10.5 44.5z" />
<glyph unicode="&#xc0;" horiz-adv-x="1304" d="M-31 0l731 1249h119l381 -1249h-96l-111 362h-712l-211 -362h-101zM332 449h635l-181 589q-29 111 -36 142h-2q-33 -77 -74 -144zM555 1583l72 53l207 -272l-33 -33q-110 101 -244 232z" />
<glyph unicode="&#xc1;" horiz-adv-x="1304" d="M-31 0l731 1249h119l381 -1249h-96l-111 362h-712l-211 -362h-101zM332 449h635l-181 589q-29 111 -36 142h-2q-33 -77 -74 -144zM721 1378l256 271l67 -52l-4 -20q-225 -184 -290 -231z" />
<glyph unicode="&#xc2;" horiz-adv-x="1304" d="M-31 0l731 1249h119l381 -1249h-96l-111 362h-712l-211 -362h-101zM332 449h635l-181 589q-29 111 -36 142h-2q-33 -77 -74 -144zM485 1366l277 244h82l207 -244l-43 -37l-215 203l-273 -203z" />
<glyph unicode="&#xc3;" horiz-adv-x="1304" d="M-31 0l731 1249h119l381 -1249h-96l-111 362h-712l-211 -362h-101zM332 449h635l-181 589q-29 111 -36 142h-2q-33 -77 -74 -144zM475 1430q50 100 127 128.5t158 -16.5l108 -55q61 -30 105 -11.5t84 87.5l55 -17q-34 -71 -82.5 -109t-99.5 -39.5t-105 25.5l-106 60 q-61 30 -104.5 13t-82.5 -81z" />
<glyph unicode="&#xc4;" horiz-adv-x="1304" d="M-31 0l731 1249h119l381 -1249h-96l-111 362h-712l-211 -362h-101zM332 449h635l-181 589q-29 111 -36 142h-2q-33 -77 -74 -144zM547 1481q4 25 21.5 39t41.5 14q28 0 43 -16t11 -43q-4 -26 -21.5 -40t-42.5 -14t-40.5 16.5t-12.5 43.5zM907 1481q4 25 22 39t44 14 t40.5 -16t10.5 -43q-9 -54 -63 -54q-27 0 -42 16.5t-12 43.5z" />
<glyph unicode="&#xc5;" horiz-adv-x="1304" d="M-31 0l731 1249h119l381 -1249h-96l-111 362h-712l-211 -362h-101zM332 449h635l-181 589q-29 111 -36 142h-2q-33 -77 -74 -144zM608 1520q12 82 69.5 132t137.5 50q82 0 126 -51.5t32 -134.5q-11 -76 -67.5 -124.5t-137.5 -48.5q-79 0 -124 50t-36 127zM672 1516 q-6 -52 21 -81.5t81 -29.5q57 0 95 31.5t44 83.5q6 59 -21.5 92t-82.5 33q-56 0 -93.5 -35.5t-43.5 -93.5z" />
<glyph unicode="&#xc6;" horiz-adv-x="1961" d="M-31 0l1125 1249h815l-11 -86h-700l-68 -483h617l-12 -86h-617l-71 -508h718l-12 -86h-809l49 362h-585l-324 -362h-115zM483 446h523l98 695z" />
<glyph unicode="&#xc7;" horiz-adv-x="1284" d="M135 627q43 311 217.5 477t458.5 166q116 0 232.5 -29t187.5 -78l-45 -69q-70 41 -174 65.5t-205 24.5q-245 0 -393.5 -145t-186.5 -418q-37 -264 67 -408.5t331 -144.5q292 0 479 139l33 -70q-197 -155 -523 -155h-28l-17 -68q97 -3 139.5 -40.5t32.5 -115.5 q-9 -71 -63 -112t-137 -41q-96 0 -160 22l16 56q81 -15 125 -15q62 0 102.5 25t47.5 74q9 54 -26.5 75t-123.5 21h-41l45 123q-227 28 -329 193.5t-62 447.5z" />
<glyph unicode="&#xc8;" horiz-adv-x="1153" d="M135 0l174 1249h791l-10 -86h-701l-67 -483h616l-12 -86h-617l-71 -508h718l-12 -86h-809zM492 1583l71 53l207 -272l-33 -33q-94 86 -243 232z" />
<glyph unicode="&#xc9;" horiz-adv-x="1153" d="M135 0l174 1249h791l-10 -86h-701l-67 -483h616l-12 -86h-617l-71 -508h718l-12 -86h-809zM559 1378l256 271l68 -52l-4 -20q-216 -176 -291 -231z" />
<glyph unicode="&#xca;" horiz-adv-x="1153" d="M135 0l174 1249h791l-10 -86h-701l-67 -483h616l-12 -86h-617l-71 -508h718l-12 -86h-809zM422 1366l276 244h82l207 -244l-43 -37l-215 203l-272 -203z" />
<glyph unicode="&#xcb;" horiz-adv-x="1153" d="M135 0l174 1249h791l-10 -86h-701l-67 -483h616l-12 -86h-617l-71 -508h718l-12 -86h-809zM483 1481q4 25 22 39t42 14q28 0 42.5 -16t10.5 -43q-9 -54 -63 -54q-26 0 -41.5 16.5t-12.5 43.5zM844 1481q4 26 22 39.5t43 13.5q26 0 41 -16t11 -43q-4 -26 -21.5 -40 t-42.5 -14q-27 0 -41.5 16.5t-11.5 43.5z" />
<glyph unicode="&#xcc;" horiz-adv-x="505" d="M135 0l174 1249h92l-176 -1249h-90zM156 1583l73 53l207 -272l-33 -33q-96 87 -245 232z" />
<glyph unicode="&#xcd;" horiz-adv-x="505" d="M135 0l174 1249h92l-176 -1249h-90zM322 1378l258 271l65 -52l-4 -20q-184 -152 -289 -231z" />
<glyph unicode="&#xce;" horiz-adv-x="505" d="M86 1366l276 244h84l205 -244l-43 -37l-213 203l-272 -203zM135 0l174 1249h92l-176 -1249h-90z" />
<glyph unicode="&#xcf;" horiz-adv-x="505" d="M135 0l174 1249h92l-176 -1249h-90zM147 1481q4 25 22 39t44 14q27 0 41.5 -16t11.5 -43q-9 -54 -65 -54q-26 0 -41.5 16.5t-12.5 43.5zM510 1481q3 25 20 39t43 14q27 0 42 -16t12 -43q-4 -25 -22 -39.5t-42 -14.5q-28 0 -42.5 16.5t-10.5 43.5z" />
<glyph unicode="&#xd0;" horiz-adv-x="1335" d="M43 578l10 75h172l84 596h359q147 0 261 -38t190.5 -112.5t107.5 -191.5t10 -268q-46 -318 -241.5 -478.5t-495.5 -160.5h-365l80 578h-172zM238 86h270q254 0 425.5 140.5t211.5 418.5q18 131 -8 230.5t-91 162t-161.5 94t-222.5 31.5h-273l-72 -510h283l-10 -75h-283z " />
<glyph unicode="&#xd1;" horiz-adv-x="1419" d="M137 0l176 1249h82l678 -1095l4 41l150 1054h90l-174 -1249h-82l-680 1092l-8 -76l-144 -1016h-92zM535 1430q48 100 126 128.5t156 -16.5l109 -55q61 -30 105 -11t83 87l55 -17q-34 -71 -82 -109t-98.5 -39.5t-103.5 25.5l-109 60q-61 30 -104 13t-82 -81z" />
<glyph unicode="&#xd2;" horiz-adv-x="1368" d="M135 627q43 309 215 476t443 167q274 0 399.5 -168.5t81.5 -480.5q-43 -306 -215 -472.5t-443 -166.5q-274 0 -399 168t-82 477zM227 621q-37 -267 66 -410t330 -143q231 0 376 144.5t183 414.5q38 269 -65 413t-331 144q-231 0 -376 -146t-183 -417zM586 1583l71 53 l207 -272l-33 -33q-94 86 -243 232z" />
<glyph unicode="&#xd3;" horiz-adv-x="1368" d="M135 627q43 309 215 476t443 167q274 0 399.5 -168.5t81.5 -480.5q-43 -306 -215 -472.5t-443 -166.5q-274 0 -399 168t-82 477zM227 621q-37 -267 66 -410t330 -143q231 0 376 144.5t183 414.5q38 269 -65 413t-331 144q-231 0 -376 -146t-183 -417zM752 1378l256 271 l67 -52l-4 -20q-216 -176 -291 -231z" />
<glyph unicode="&#xd4;" horiz-adv-x="1368" d="M135 627q43 309 215 476t443 167q274 0 399.5 -168.5t81.5 -480.5q-43 -306 -215 -472.5t-443 -166.5q-274 0 -399 168t-82 477zM227 621q-37 -267 66 -410t330 -143q231 0 376 144.5t183 414.5q38 269 -65 413t-331 144q-231 0 -376 -146t-183 -417zM516 1366l277 244 h81l207 -244l-43 -37l-215 203l-272 -203z" />
<glyph unicode="&#xd5;" horiz-adv-x="1368" d="M135 627q43 309 215 476t443 167q274 0 399.5 -168.5t81.5 -480.5q-43 -306 -215 -472.5t-443 -166.5q-274 0 -399 168t-82 477zM227 621q-37 -267 66 -410t330 -143q231 0 376 144.5t183 414.5q38 269 -65 413t-331 144q-231 0 -376 -146t-183 -417zM506 1430 q50 100 127 128.5t158 -16.5l108 -55q61 -30 104.5 -11.5t83.5 87.5l56 -17q-34 -71 -82.5 -109t-99.5 -39.5t-105 25.5l-106 60q-61 30 -104.5 13t-82.5 -81z" />
<glyph unicode="&#xd6;" horiz-adv-x="1368" d="M135 627q43 309 215 476t443 167q274 0 399.5 -168.5t81.5 -480.5q-43 -306 -215 -472.5t-443 -166.5q-274 0 -399 168t-82 477zM227 621q-37 -267 66 -410t330 -143q231 0 376 144.5t183 414.5q38 269 -65 413t-331 144q-231 0 -376 -146t-183 -417zM578 1481 q4 25 21.5 39t41.5 14q28 0 42.5 -16t10.5 -43q-9 -54 -63 -54q-25 0 -40.5 16.5t-12.5 43.5zM938 1481q4 25 22 39t44 14t40.5 -16t10.5 -43q-4 -26 -21.5 -40t-42.5 -14q-27 0 -41.5 16.5t-11.5 43.5z" />
<glyph unicode="&#xd7;" horiz-adv-x="929" d="M96 221l320 281l-232 268l60 53l231 -270l309 270l43 -53l-307 -268l242 -281l-60 -51l-241 281l-320 -281z" />
<glyph unicode="&#xd8;" horiz-adv-x="1368" d="M76 31l135 133q-115 172 -72 463q43 310 214.5 476.5t443.5 166.5q246 0 374 -140l132 132l40 -43l-135 -136q110 -170 70 -462q-43 -307 -214.5 -473t-442.5 -166q-248 0 -373 137l-131 -131zM231 621q-34 -244 50 -385l823 825q-105 123 -316 123q-229 0 -374 -146 t-183 -417zM315 186q103 -118 312 -118q231 0 376 144.5t183 414.5q34 244 -47 385z" />
<glyph unicode="&#xd9;" horiz-adv-x="1359" d="M182 553l99 696h90l-97 -698q-32 -233 58 -357t289 -124q197 0 326 128t161 355l96 696h92l-98 -698q-38 -274 -190.5 -421.5t-395.5 -147.5q-244 0 -356 148.5t-74 422.5zM582 1583l71 53l207 -272l-33 -33q-94 86 -243 232z" />
<glyph unicode="&#xda;" horiz-adv-x="1359" d="M182 553l99 696h90l-97 -698q-32 -233 58 -357t289 -124q197 0 326 128t161 355l96 696h92l-98 -698q-38 -274 -190.5 -421.5t-395.5 -147.5q-244 0 -356 148.5t-74 422.5zM748 1378l256 271l67 -52l-4 -20q-216 -176 -291 -231z" />
<glyph unicode="&#xdb;" horiz-adv-x="1359" d="M182 553l99 696h90l-97 -698q-32 -233 58 -357t289 -124q197 0 326 128t161 355l96 696h92l-98 -698q-38 -274 -190.5 -421.5t-395.5 -147.5q-244 0 -356 148.5t-74 422.5zM512 1366l276 244h82l207 -244l-43 -37l-215 203l-272 -203z" />
<glyph unicode="&#xdc;" horiz-adv-x="1359" d="M182 553l99 696h90l-97 -698q-32 -233 58 -357t289 -124q197 0 326 128t161 355l96 696h92l-98 -698q-38 -274 -190.5 -421.5t-395.5 -147.5q-244 0 -356 148.5t-74 422.5zM573 1481q4 25 22 39t42 14q28 0 42.5 -16t10.5 -43q-9 -54 -63 -54q-26 0 -41.5 16.5 t-12.5 43.5zM934 1481q4 26 22 39.5t43 13.5q26 0 41 -16t11 -43q-4 -26 -21.5 -40t-42.5 -14q-27 0 -41.5 16.5t-11.5 43.5z" />
<glyph unicode="&#xdd;" horiz-adv-x="1107" d="M145 1249h97l297 -645q14 -33 20 -65q10 20 41 65l479 645h99l-582 -796l-64 -453h-90l62 451zM623 1378l256 271l67 -52l-4 -20q-216 -176 -291 -231z" />
<glyph unicode="&#xde;" horiz-adv-x="1171" d="M135 0l174 1249h92l-32 -233h295q244 0 351.5 -103.5t78.5 -310.5q-29 -209 -161 -307t-380 -98h-299l-29 -197h-90zM264 276h297q201 0 310.5 81.5t132.5 250.5q25 167 -61.5 247.5t-289.5 80.5h-297z" />
<glyph unicode="&#xdf;" horiz-adv-x="1169" d="M86 883l8 67h178q44 169 180.5 269t321.5 100q164 0 258 -90.5t72 -235.5q-17 -112 -98 -196t-193 -111q136 -28 207 -127.5t51 -239.5q-20 -152 -137.5 -244.5t-286.5 -92.5q-124 0 -244 30l19 70q122 -27 221 -27q137 0 232 76.5t112 200.5q20 141 -68.5 226t-254.5 85 h-136l9 78h133q138 0 234.5 75.5t113.5 196.5q15 113 -54.5 181.5t-193.5 68.5q-166 0 -283.5 -99t-140.5 -261l-123 -883h-88l123 874z" />
<glyph unicode="&#xe0;" d="M109 477q69 492 456 492q107 0 203 -43.5t168 -118.5l20 143h88l-133 -950h-88l21 150q-68 -59 -118.5 -92t-117.5 -54.5t-145 -21.5q-83 0 -152 27.5t-122 84t-75.5 155t-4.5 228.5zM197 473q-15 -110 2 -192.5t59.5 -129.5t98 -69.5t122.5 -22.5q107 0 190.5 42 t186.5 137l68 483q-150 170 -344 170q-323 0 -383 -418zM522 1352l72 51l207 -270l-33 -33q-94 84 -244 231z" />
<glyph unicode="&#xe1;" d="M109 477q69 492 456 492q107 0 203 -43.5t168 -118.5l20 143h88l-133 -950h-88l21 150q-68 -59 -118.5 -92t-117.5 -54.5t-145 -21.5q-83 0 -152 27.5t-122 84t-75.5 155t-4.5 228.5zM197 473q-15 -110 2 -192.5t59.5 -129.5t98 -69.5t122.5 -22.5q107 0 190.5 42 t186.5 137l68 483q-150 170 -344 170q-323 0 -383 -418zM551 1133l256 270l67 -51l-6 -21q-161 -136 -286 -231z" />
<glyph unicode="&#xe2;" d="M109 477q69 492 456 492q107 0 203 -43.5t168 -118.5l20 143h88l-133 -950h-88l21 150q-68 -59 -118.5 -92t-117.5 -54.5t-145 -21.5q-83 0 -152 27.5t-122 84t-75.5 155t-4.5 228.5zM197 473q-15 -110 2 -192.5t59.5 -129.5t98 -69.5t122.5 -22.5q107 0 190.5 42 t186.5 137l68 483q-150 170 -344 170q-323 0 -383 -418zM387 1135l277 243h81l207 -243l-45 -39q-42 42 -108.5 105t-102.5 99q-37 -28 -125.5 -93t-148.5 -111z" />
<glyph unicode="&#xe3;" d="M109 477q69 492 456 492q107 0 203 -43.5t168 -118.5l20 143h88l-133 -950h-88l21 150q-68 -59 -118.5 -92t-117.5 -54.5t-145 -21.5q-83 0 -152 27.5t-122 84t-75.5 155t-4.5 228.5zM197 473q-15 -110 2 -192.5t59.5 -129.5t98 -69.5t122.5 -22.5q107 0 190.5 42 t186.5 137l68 483q-150 170 -344 170q-323 0 -383 -418zM373 1219q50 100 126.5 128.5t157.5 -16.5l107 -55q61 -31 105 -12t83 88l58 -19q-53 -104 -131.5 -135.5t-155.5 12.5l-109 60q-61 30 -103 14t-83 -80z" />
<glyph unicode="&#xe4;" d="M109 477q69 492 456 492q107 0 203 -43.5t168 -118.5l20 143h88l-133 -950h-88l21 150q-68 -59 -118.5 -92t-117.5 -54.5t-145 -21.5q-83 0 -152 27.5t-122 84t-75.5 155t-4.5 228.5zM197 473q-15 -110 2 -192.5t59.5 -129.5t98 -69.5t122.5 -22.5q107 0 190.5 42 t186.5 137l68 483q-150 170 -344 170q-323 0 -383 -418zM444 1247q3 25 21.5 40.5t42.5 15.5q27 0 42 -16.5t11 -45.5q-3 -24 -20.5 -38.5t-42.5 -14.5q-27 0 -42.5 16t-11.5 43zM807 1247q3 26 19.5 41t41.5 15q27 0 42.5 -17t11.5 -45q-3 -24 -21.5 -38.5t-42.5 -14.5 q-27 0 -41 16t-10 43z" />
<glyph unicode="&#xe5;" d="M109 477q69 492 456 492q107 0 203 -43.5t168 -118.5l20 143h88l-133 -950h-88l21 150q-68 -59 -118.5 -92t-117.5 -54.5t-145 -21.5q-83 0 -152 27.5t-122 84t-75.5 155t-4.5 228.5zM197 473q-15 -110 2 -192.5t59.5 -129.5t98 -69.5t122.5 -22.5q107 0 190.5 42 t186.5 137l68 483q-150 170 -344 170q-323 0 -383 -418zM502 1253q12 81 69.5 132t135.5 51q83 0 126 -52t31 -137q-9 -75 -66 -122.5t-139 -47.5q-80 0 -123.5 49t-33.5 127zM563 1247q-7 -51 20 -80.5t81 -29.5q58 0 96.5 31.5t44.5 84.5q9 57 -19 90t-84 33t-94 -35.5 t-45 -93.5z" />
<glyph unicode="&#xe6;" horiz-adv-x="1748" d="M70 281q35 247 434 247q63 0 145 -1t137 -1q17 120 13 201.5t-48.5 123.5t-138.5 42q-153 0 -348 -49l-10 67q211 58 375 58q123 0 182 -53.5t70 -159.5q70 107 176.5 160t236.5 53q187 0 280 -114t68 -353q-1 -8 -10 -49h-766q-12 -88 -0.5 -154.5t36.5 -112.5 t66.5 -74.5t89.5 -41.5t105 -13q212 0 369 136l29 -54q-168 -157 -406 -157q-118 0 -206.5 46.5t-131.5 139.5q-100 -92 -200.5 -139t-217.5 -47q-195 0 -272.5 74t-56.5 225zM154 279q-14 -112 47 -168t217 -56q183 0 375 176q-26 97 -11 222h-6q-226 4 -276 4 q-158 0 -246 -45t-100 -133zM879 524h686q19 191 -56 281t-221 90q-70 0 -132 -20t-117.5 -62t-97 -116t-62.5 -173z" />
<glyph unicode="&#xe7;" horiz-adv-x="1015" d="M100 471q18 125 66.5 222t118 156.5t153.5 89.5t178 30q89 0 175 -26t149 -79l-45 -59q-115 86 -283 86q-158 0 -276.5 -107t-149.5 -319q-14 -105 2.5 -185t58.5 -127t100.5 -70.5t131.5 -23.5q104 0 191 32t176 106l33 -60q-95 -84 -192 -119.5t-222 -35.5h-10l-17 -68 q97 -3 139.5 -40.5t32.5 -115.5q-9 -71 -63 -112t-139 -41q-92 0 -160 22l16 56q84 -15 127 -15q62 0 102.5 25t47.5 74q7 54 -28.5 75t-123.5 21h-39l43 123q-160 23 -242 145t-51 340z" />
<glyph unicode="&#xe8;" horiz-adv-x="1064" d="M100 477q18 126 65 222t115.5 154t151.5 87t178 29q187 0 280 -114t68 -353q-1 -8 -10 -49h-766q-12 -88 -0.5 -154.5t36.5 -112.5t66.5 -74.5t89.5 -41.5t105 -13q212 0 369 136l29 -54q-168 -157 -406 -157q-94 0 -168.5 30t-126.5 89t-72.5 155t-3.5 221zM195 524h686 q19 191 -56 281t-221 90q-70 0 -132 -20t-117.5 -62t-97 -116t-62.5 -173zM471 1352l74 53l207 -272l-33 -33q-121 109 -246 231z" />
<glyph unicode="&#xe9;" horiz-adv-x="1064" d="M100 477q18 126 65 222t115.5 154t151.5 87t178 29q187 0 280 -114t68 -353q-1 -8 -10 -49h-766q-12 -88 -0.5 -154.5t36.5 -112.5t66.5 -74.5t89.5 -41.5t105 -13q212 0 369 136l29 -54q-168 -157 -406 -157q-94 0 -168.5 30t-126.5 89t-72.5 155t-3.5 221zM195 524h686 q19 191 -56 281t-221 90q-70 0 -132 -20t-117.5 -62t-97 -116t-62.5 -173zM500 1133l256 272l67 -53l-4 -21q-155 -128 -289 -231z" />
<glyph unicode="&#xea;" horiz-adv-x="1064" d="M100 477q18 126 65 222t115.5 154t151.5 87t178 29q187 0 280 -114t68 -353q-1 -8 -10 -49h-766q-12 -88 -0.5 -154.5t36.5 -112.5t66.5 -74.5t89.5 -41.5t105 -13q212 0 369 136l29 -54q-168 -157 -406 -157q-94 0 -168.5 30t-126.5 89t-72.5 155t-3.5 221zM195 524h686 q19 191 -56 281t-221 90q-70 0 -132 -20t-117.5 -62t-97 -116t-62.5 -173zM338 1135l274 243h82l207 -243l-43 -37q-42 41 -109 103.5t-104 98.5q-24 -19 -274 -202z" />
<glyph unicode="&#xeb;" horiz-adv-x="1064" d="M100 477q18 126 65 222t115.5 154t151.5 87t178 29q187 0 280 -114t68 -353q-1 -8 -10 -49h-766q-12 -88 -0.5 -154.5t36.5 -112.5t66.5 -74.5t89.5 -41.5t105 -13q212 0 369 136l29 -54q-168 -157 -406 -157q-94 0 -168.5 30t-126.5 89t-72.5 155t-3.5 221zM195 524h686 q19 191 -56 281t-221 90q-70 0 -132 -20t-117.5 -62t-97 -116t-62.5 -173zM393 1247q4 26 22 41t42 15q28 0 42.5 -16.5t10.5 -43.5q-3 -26 -21 -40.5t-43 -14.5q-26 0 -41 16t-12 43zM756 1247q3 26 20.5 41t42.5 15q26 0 40.5 -16.5t10.5 -43.5q-3 -26 -20.5 -40.5 t-42.5 -14.5q-27 0 -41 16t-10 43z" />
<glyph unicode="&#xec;" horiz-adv-x="434" d="M45 1352l72 51l207 -270l-33 -33q-94 84 -244 231zM100 0l131 950h91l-134 -950h-88z" />
<glyph unicode="&#xed;" horiz-adv-x="434" d="M100 0l131 950h91l-134 -950h-88zM182 1133l256 270l68 -51l-4 -21q-184 -152 -289 -231z" />
<glyph unicode="&#xee;" horiz-adv-x="434" d="M23 1135l274 243h84l207 -243l-45 -39q-46 46 -115 111t-98 93q-46 -35 -132 -98t-141 -106zM100 0l131 950h91l-134 -950h-88z" />
<glyph unicode="&#xef;" horiz-adv-x="434" d="M80 1247q3 26 20.5 41t42.5 15q27 0 42 -16.5t12 -45.5q-10 -53 -66 -53q-26 0 -40.5 16t-10.5 43zM100 0l131 950h91l-134 -950h-88zM440 1247q3 26 21 41t43 15q27 0 41.5 -16.5t11.5 -45.5q-4 -24 -21.5 -38.5t-41.5 -14.5q-28 0 -43 16t-11 43z" />
<glyph unicode="&#xf0;" horiz-adv-x="1136" d="M96 471q13 94 44 167.5t88 134.5t139.5 101.5t200 63t268.5 23.5q-68 91 -189 194l-291 -147l-20 57l258 131q-68 55 -176 125v16l80 39q94 -65 182 -137l233 119l23 -58l-205 -104q195 -169 260.5 -334.5t32.5 -394.5q-32 -233 -169.5 -359t-360.5 -126t-327.5 128 t-70.5 361zM182 463q-28 -196 54 -301t262 -105q184 0 297.5 106t142.5 306q35 247 -57 420q-149 -1 -261.5 -19t-190 -51t-129 -86.5t-79 -118t-39.5 -151.5z" />
<glyph unicode="&#xf1;" horiz-adv-x="1124" d="M100 0l133 950h89l-21 -157q191 176 404 176q162 0 230 -96.5t40 -284.5l-82 -588h-88l82 582q24 164 -21 236.5t-178 72.5q-195 0 -401 -193l-97 -698h-90zM375 1219q48 100 126 128.5t156 -16.5l109 -55q61 -31 105 -12t83 88l56 -19q-51 -104 -130.5 -135.5 t-154.5 12.5l-109 60q-61 30 -104 13.5t-82 -79.5z" />
<glyph unicode="&#xf2;" horiz-adv-x="1136" d="M104 471q32 234 173 366t358 132q220 0 325.5 -134t71.5 -370q-32 -227 -173 -355t-359 -128t-324 130t-72 359zM190 465q-28 -198 52.5 -302t263.5 -104q180 0 296 109t144 303q29 204 -51.5 312t-263.5 108q-180 0 -296.5 -113t-144.5 -313zM516 1352l72 53l207 -272 l-33 -33q-127 114 -244 231z" />
<glyph unicode="&#xf3;" horiz-adv-x="1136" d="M104 471q32 234 173 366t358 132q220 0 325.5 -134t71.5 -370q-32 -227 -173 -355t-359 -128t-324 130t-72 359zM190 465q-28 -198 52.5 -302t263.5 -104q180 0 296 109t144 303q29 204 -51.5 312t-263.5 108q-180 0 -296.5 -113t-144.5 -313zM545 1133l256 272l65 -53 l-4 -21q-155 -128 -289 -231z" />
<glyph unicode="&#xf4;" horiz-adv-x="1136" d="M104 471q32 234 173 366t358 132q220 0 325.5 -134t71.5 -370q-32 -227 -173 -355t-359 -128t-324 130t-72 359zM190 465q-28 -198 52.5 -302t263.5 -104q180 0 296 109t144 303q29 204 -51.5 312t-263.5 108q-180 0 -296.5 -113t-144.5 -313zM381 1135l274 243h84 l207 -243l-45 -37q-42 41 -109 103.5t-104 98.5q-52 -40 -139 -103.5t-133 -98.5z" />
<glyph unicode="&#xf5;" horiz-adv-x="1136" d="M104 471q32 234 173 366t358 132q220 0 325.5 -134t71.5 -370q-32 -227 -173 -355t-359 -128t-324 130t-72 359zM190 465q-28 -198 52.5 -302t263.5 -104q180 0 296 109t144 303q29 204 -51.5 312t-263.5 108q-180 0 -296.5 -113t-144.5 -313zM367 1219q48 100 126 128.5 t156 -16.5l109 -55q61 -30 105 -11t83 87l55 -17q-34 -71 -82 -109t-98.5 -39.5t-103.5 25.5l-109 60q-61 30 -104 13t-82 -81z" />
<glyph unicode="&#xf6;" horiz-adv-x="1136" d="M104 471q32 234 173 366t358 132q220 0 325.5 -134t71.5 -370q-32 -227 -173 -355t-359 -128t-324 130t-72 359zM190 465q-28 -198 52.5 -302t263.5 -104q180 0 296 109t144 303q29 204 -51.5 312t-263.5 108q-180 0 -296.5 -113t-144.5 -313zM438 1247q3 26 21 41t43 15 q27 0 41.5 -16.5t11.5 -43.5q-4 -26 -22 -40.5t-44 -14.5t-40.5 16t-10.5 43zM799 1247q3 26 20.5 41t42.5 15q27 0 41.5 -16.5t11.5 -43.5q-4 -26 -21.5 -40.5t-41.5 -14.5q-28 0 -42.5 16t-10.5 43z" />
<glyph unicode="&#xf7;" horiz-adv-x="929" d="M59 444l13 72h798l-10 -72h-801zM352 182q5 29 25 47.5t49 18.5q32 0 48 -19.5t13 -50.5q-5 -30 -25 -47.5t-50 -17.5q-31 0 -47 19t-13 50zM440 805q5 29 25 47t49 18q31 0 47 -19t12 -50q-3 -29 -23.5 -47.5t-49.5 -18.5q-31 0 -47.5 19.5t-12.5 50.5z" />
<glyph unicode="&#xf8;" horiz-adv-x="1136" d="M78 47l84 84q-88 129 -58 340q32 234 173 366t358 132q172 0 276 -84l80 80l37 -37l-80 -80q119 -131 84 -383q-32 -227 -173 -355t-359 -128q-200 0 -307 110l-80 -80zM190 465q-24 -173 33 -272l629 632q-81 66 -221 66q-180 0 -296.5 -113t-144.5 -313zM252 152 q84 -93 254 -93q180 0 296 109t144 303q30 210 -57 317z" />
<glyph unicode="&#xf9;" horiz-adv-x="1116" d="M135 367l82 583h90l-80 -571q-24 -163 20.5 -238t174.5 -75q205 0 403 192l97 692h88l-131 -950h-91l23 162q-198 -180 -408 -180q-160 0 -227 98t-41 287zM504 1352l71 51l207 -270l-32 -33q-94 84 -244 231z" />
<glyph unicode="&#xfa;" horiz-adv-x="1116" d="M135 367l82 583h90l-80 -571q-24 -163 20.5 -238t174.5 -75q205 0 403 192l97 692h88l-131 -950h-91l23 162q-198 -180 -408 -180q-160 0 -227 98t-41 287zM532 1133l256 270l68 -51l-6 -21q-152 -128 -287 -231z" />
<glyph unicode="&#xfb;" horiz-adv-x="1116" d="M135 367l82 583h90l-80 -571q-24 -163 20.5 -238t174.5 -75q205 0 403 192l97 692h88l-131 -950h-91l23 162q-198 -180 -408 -180q-160 0 -227 98t-41 287zM369 1135l276 243h82l207 -243l-45 -39q-42 42 -108.5 105t-102.5 99q-39 -29 -127.5 -93.5t-147.5 -110.5z" />
<glyph unicode="&#xfc;" horiz-adv-x="1116" d="M135 367l82 583h90l-80 -571q-24 -163 20.5 -238t174.5 -75q205 0 403 192l97 692h88l-131 -950h-91l23 162q-198 -180 -408 -180q-160 0 -227 98t-41 287zM426 1247q3 26 21 41t42 15q27 0 42.5 -17t11.5 -45q-3 -24 -21 -38.5t-43 -14.5q-27 0 -42 16t-11 43zM788 1247 q3 26 20 41t42 15q27 0 42 -16.5t11 -45.5q-3 -24 -21 -38.5t-42 -14.5q-27 0 -41.5 16t-10.5 43z" />
<glyph unicode="&#xfd;" horiz-adv-x="983" d="M72 -209q159 77 284 225l-278 934h94l205 -696q30 -103 43 -154l39 60q50 77 110 177.5t101.5 172t126 219t127.5 221.5h100q-32 -54 -207 -356t-270 -455q-197 -312 -451 -426zM469 1133l256 270l68 -51l-5 -21q-193 -160 -288 -231z" />
<glyph unicode="&#xfe;" d="M49 -342l236 1677h88l-74 -526q95 74 201.5 117t208.5 43q390 0 321 -496q-15 -104 -49.5 -188t-81 -140t-105 -93t-119.5 -53.5t-126 -16.5q-115 0 -191 39.5t-151 123.5l-70 -487h-88zM219 229q73 -86 145 -128t175 -42q53 0 103.5 13.5t100 45.5t88.5 79t69 119 t42 161q57 414 -260 414q-192 0 -395 -168z" />
<glyph unicode="&#xff;" horiz-adv-x="983" d="M72 -209q159 77 284 225l-278 934h94l205 -696q30 -103 43 -154l39 60q50 77 110 177.5t101.5 172t126 219t127.5 221.5h100q-32 -54 -207 -356t-270 -455q-197 -312 -451 -426zM362 1247q4 26 22 41t42 15q28 0 42.5 -16.5t10.5 -45.5q-3 -24 -20.5 -38.5t-42.5 -14.5 q-26 0 -41.5 16t-12.5 43zM725 1247q3 26 20.5 41t42.5 15q26 0 41 -17t11 -45q-3 -24 -21 -38.5t-43 -14.5q-27 0 -41 16t-10 43z" />
<glyph unicode="&#x152;" horiz-adv-x="1974" d="M129 627q43 310 214 476.5t443 166.5q181 0 295 -82l11 61h788l-10 -86h-701l-67 -483h616l-12 -86h-614l-72 -508h717l-11 -86h-811l11 63q-138 -81 -316 -81q-274 0 -399.5 168t-81.5 477zM221 621q-38 -267 64.5 -410t330.5 -143q190 0 324 96l129 926 q-101 94 -291 94q-229 0 -374 -146t-183 -417z" />
<glyph unicode="&#x153;" horiz-adv-x="1914" d="M104 471q32 234 173 366t358 132q154 0 253 -66.5t134 -191.5q67 130 181 194t257 64q187 0 280 -114t68 -353q-1 -8 -10 -49h-766q-12 -88 -0.5 -154.5t36.5 -112.5t66.5 -74.5t89.5 -41.5t105 -13q212 0 369 136l28 -54q-168 -157 -405 -157q-138 0 -234 63.5 t-129 190.5q-68 -122 -186 -188t-272 -66q-218 0 -324 130t-72 359zM190 465q-28 -198 52.5 -302t263.5 -104q180 0 296 109t144 303q29 204 -51.5 312t-263.5 108q-180 0 -296.5 -113t-144.5 -313zM1044 524h687q19 191 -56 281t-221 90q-70 0 -132 -20t-118 -62 t-97.5 -116t-62.5 -173z" />
<glyph unicode="&#x178;" horiz-adv-x="1107" d="M145 1249h97l297 -645q14 -33 20 -65q10 20 41 65l479 645h99l-582 -796l-64 -453h-90l62 451zM449 1481q4 25 21.5 39t41.5 14q28 0 42.5 -16t10.5 -43q-9 -54 -63 -54q-25 0 -40.5 16.5t-12.5 43.5zM809 1481q4 26 22 39.5t43 13.5q26 0 41 -16t11 -43 q-4 -26 -21.5 -40t-42.5 -14q-27 0 -41.5 16.5t-11.5 43.5z" />
<glyph unicode="&#x2c6;" horiz-adv-x="989" d="M299 1135l276 243h82l207 -243l-45 -39q-42 42 -108.5 105t-102.5 99q-37 -28 -125.5 -93t-148.5 -111z" />
<glyph unicode="&#x2dc;" horiz-adv-x="989" d="M285 1219q50 100 126.5 128.5t157.5 -16.5l107 -55q61 -31 105 -12t83 88l58 -19q-53 -104 -131.5 -135.5t-155.5 12.5l-109 60q-61 30 -103 14t-83 -80z" />
<glyph unicode="&#x2000;" horiz-adv-x="851" />
<glyph unicode="&#x2001;" horiz-adv-x="1702" />
<glyph unicode="&#x2002;" horiz-adv-x="851" />
<glyph unicode="&#x2003;" horiz-adv-x="1702" />
<glyph unicode="&#x2004;" horiz-adv-x="567" />
<glyph unicode="&#x2005;" horiz-adv-x="425" />
<glyph unicode="&#x2006;" horiz-adv-x="283" />
<glyph unicode="&#x2007;" horiz-adv-x="283" />
<glyph unicode="&#x2008;" horiz-adv-x="212" />
<glyph unicode="&#x2009;" horiz-adv-x="340" />
<glyph unicode="&#x200a;" horiz-adv-x="94" />
<glyph unicode="&#x2010;" horiz-adv-x="788" d="M150 541l12 82h510l-10 -82h-512z" />
<glyph unicode="&#x2011;" horiz-adv-x="788" d="M150 541l12 82h510l-10 -82h-512z" />
<glyph unicode="&#x2012;" horiz-adv-x="788" d="M150 541l12 82h510l-10 -82h-512z" />
<glyph unicode="&#x2013;" horiz-adv-x="1024" d="M147 532l11 76h745l-10 -76h-746z" />
<glyph unicode="&#x2014;" horiz-adv-x="1802" d="M147 532l11 76h1523l-10 -76h-1524z" />
<glyph unicode="&#x2018;" horiz-adv-x="489" d="M256 1065q9 76 63 158.5t134 142.5l28 -29q-51 -41 -90 -103t-53 -122q23 -4 34.5 -21t8.5 -40q-3 -28 -21.5 -45t-46.5 -17q-30 0 -45 21t-12 55z" />
<glyph unicode="&#x2019;" horiz-adv-x="491" d="M213 1018q51 41 90 103t53 122q-23 4 -34.5 21t-8.5 41q3 28 21.5 44.5t46.5 16.5q30 0 45 -21t12 -55q-9 -76 -62.5 -158.5t-133.5 -142.5z" />
<glyph unicode="&#x201a;" horiz-adv-x="491" d="M45 -170q51 41 90 103t53 122q-23 4 -34.5 21t-8.5 41q3 28 21.5 44.5t46.5 16.5q30 0 45 -21t12 -55q-9 -76 -62.5 -158.5t-133.5 -142.5z" />
<glyph unicode="&#x201c;" horiz-adv-x="735" d="M256 1065q9 76 63 158.5t134 142.5l28 -29q-51 -41 -90 -103t-53 -122q23 -4 34.5 -21t8.5 -40q-3 -28 -21.5 -45t-46.5 -17q-30 0 -45 21t-12 55zM502 1065q9 76 62.5 158.5t133.5 142.5l29 -29q-51 -41 -90 -103t-53 -122q23 -4 34.5 -21t8.5 -40q-3 -28 -21.5 -45 t-46.5 -17q-30 0 -45 21t-12 55z" />
<glyph unicode="&#x201d;" horiz-adv-x="737" d="M213 1018q51 41 90 103t53 122q-23 4 -34.5 21t-8.5 41q3 28 21.5 44.5t46.5 16.5q30 0 45 -21t12 -55q-9 -76 -62.5 -158.5t-133.5 -142.5zM459 1018q51 41 90 103t53 122q-23 4 -34.5 21t-8.5 41q3 28 21.5 44.5t46.5 16.5q30 0 45 -21t12 -55q-9 -76 -63 -158.5 t-134 -142.5z" />
<glyph unicode="&#x201e;" horiz-adv-x="737" d="M39 -170q51 41 90 103t53 122q-23 5 -35 22t-8 40q3 28 21.5 44.5t46.5 16.5q30 0 44 -20.5t11 -55.5q-7 -76 -61.5 -158t-134.5 -143zM285 -170q51 41 90 103t53 122q-23 5 -35 22t-8 40q3 28 21.5 44.5t46.5 16.5q30 0 44 -20.5t11 -55.5q-7 -76 -61.5 -158 t-135.5 -143z" />
<glyph unicode="&#x2022;" horiz-adv-x="610" d="M223 588q6 44 35.5 70t73.5 26q47 0 70.5 -27.5t17.5 -74.5q-6 -43 -35.5 -70t-73.5 -27q-47 0 -71.5 29t-16.5 74z" />
<glyph unicode="&#x2026;" horiz-adv-x="1329" d="M123 63q3 28 21 45t46 17q30 0 45.5 -18.5t12.5 -49.5q-3 -26 -22 -42.5t-48 -16.5t-44.5 18t-10.5 47zM553 63q3 28 22 45t48 17t44 -18.5t11 -49.5q-3 -26 -21.5 -42.5t-46.5 -16.5q-31 0 -46.5 18t-10.5 47zM985 63q3 28 21.5 45t46.5 17q30 0 45 -18.5t12 -49.5 q-3 -26 -22 -42.5t-48 -16.5t-44.5 18t-10.5 47z" />
<glyph unicode="&#x202f;" horiz-adv-x="340" />
<glyph unicode="&#x2039;" horiz-adv-x="710" d="M123 489l452 412l48 -49l-318 -291q-37 -35 -86 -74q48 -45 68 -69l235 -291l-61 -45z" />
<glyph unicode="&#x203a;" horiz-adv-x="710" d="M78 129l315 289q53 46 90 76q-49 49 -65 69l-236 291l56 47l337 -412l-454 -407z" />
<glyph unicode="&#x205f;" horiz-adv-x="425" />
<glyph unicode="&#x20ac;" horiz-adv-x="1230" d="M92 389l6 60h162q4 60 10 92q5 41 15 88h-160l8 57h168q33 114 90 198.5t127 132.5t142.5 70.5t148.5 22.5q219 0 348 -109l-45 -59q-112 92 -299 92q-59 0 -117 -17.5t-117 -55.5t-109 -108.5t-81 -166.5h580l-31 -57h-565q-14 -68 -17 -92q-8 -62 -8 -88h524l-30 -60 h-496q3 -75 23 -134t50 -95.5t71 -60t82 -33t87 -9.5q118 0 208 32.5t173 105.5l33 -54q-87 -84 -188.5 -121.5t-239.5 -37.5q-75 0 -139.5 21t-120.5 66.5t-89.5 127t-35.5 192.5h-168z" />
<glyph unicode="&#x2122;" horiz-adv-x="1550" d="M205 1192l8 57h569l-6 -57h-254l-71 -504h-64l72 504h-254zM786 688l103 561h61l164 -473l6 -31q2 3 7 14t10 17l295 473h61l-57 -561h-62l45 447l-278 -447h-58l-153 449l-80 -449h-64z" />
<glyph unicode="&#x25fc;" horiz-adv-x="952" d="M0 0v952h952v-952h-952z" />
<glyph unicode="&#xfb03;" horiz-adv-x="1658" d="M113 874l8 76h143l15 109q22 154 94 227.5t217 73.5q120 0 172 -14l-17 -72q-65 10 -149 10q-108 0 -160.5 -56.5t-68.5 -170.5l-15 -107h512l15 109q22 154 94 227.5t217 73.5q67 0 215 -21l-16 -67q-127 14 -193 14q-109 0 -161 -57t-68 -172l-15 -107h594l-133 -950 h-88l121 874h-504l-123 -874h-90l123 874h-510l-123 -874h-90l123 874h-139zM1481 1231q9 55 67 55q28 0 44 -16.5t12 -44.5q-3 -26 -22 -41t-46 -15t-42.5 16.5t-12.5 45.5z" />
<glyph unicode="&#xfb04;" horiz-adv-x="1660" d="M113 874l8 76h143l15 109q22 154 94 227.5t217 73.5q120 0 172 -14l-17 -72q-65 10 -149 10q-108 0 -160.5 -56.5t-68.5 -170.5l-15 -107h522l15 109q22 154 94 227.5t217 73.5q94 0 320 -39l6 37h88l-191 -1358h-88l176 1251q-209 33 -305 33q-109 0 -161 -56t-66 -171 l-16 -107h323l-10 -76h-324l-123 -874h-88l123 874h-522l-123 -874h-90l123 874h-139z" />
</font>
</defs>
</svg>
