<?xml version="1.0" standalone="no"?>
<!DOCTYPE svg PUBLIC "-//W3C//DTD SVG 1.1//EN" "http://www.w3.org/Graphics/SVG/1.1/DTD/svg11.dtd" >
<svg xmlns="http://www.w3.org/2000/svg">
<metadata></metadata>
<defs>
<font id="gentonaextrabold" horiz-adv-x="1087" >
<font-face units-per-em="2048" ascent="1638" descent="-410" />
<missing-glyph horiz-adv-x="389" />
<glyph unicode="&#xfb01;" horiz-adv-x="1341" d="M16 690v305h136v23q0 205 98.5 297t314.5 92q85 0 230 -31l-31 -248q-51 2 -127 2q-65 0 -90 -27.5t-25 -84.5v-21h713v-997h-371v690h-342v-690h-370v690h-136zM848 1286q0 91 61 141t148 50t148 -50t61 -141q0 -89 -61 -138.5t-148 -49.5t-148 49.5t-61 138.5z" />
<glyph unicode="&#xfb02;" horiz-adv-x="1318" d="M16 690v305h136v25q0 202 99.5 294.5t313.5 92.5q98 0 297 -47v29h371v-1389h-371v1126q-86 4 -225 4q-65 0 -90 -28t-25 -84v-23h234v-305h-234v-690h-370v690h-136z" />
<glyph horiz-adv-x="2048" />
<glyph horiz-adv-x="2048" />
<glyph unicode="&#xd;" horiz-adv-x="2048" />
<glyph unicode=" "  horiz-adv-x="389" />
<glyph unicode="&#x09;" horiz-adv-x="389" />
<glyph unicode="&#xa0;" horiz-adv-x="389" />
<glyph unicode="!" horiz-adv-x="565" d="M82 1249h401l-55 -790h-291zM109 158q0 73 49 122.5t125 49.5q77 0 125.5 -49.5t48.5 -122.5t-48.5 -123.5t-125.5 -50.5q-75 0 -124.5 50.5t-49.5 123.5z" />
<glyph unicode="&#x22;" horiz-adv-x="909" d="M145 793v524h336l-84 -524h-252zM506 793v524h334l-84 -524h-250z" />
<glyph unicode="#" horiz-adv-x="1462" d="M68 193l51 272h194l37 197h-192l51 272h190l37 192h293l-37 -192h213l35 192h293l-37 -192h203l-51 -272h-201l-37 -197h199l-52 -272h-198l-37 -193h-291l35 193h-211l-37 -193h-291l35 193h-194zM604 465h213l37 197h-213z" />
<glyph unicode="$" horiz-adv-x="1134" d="M43 135l117 266q268 -137 426 -137q108 0 108 62q0 33 -49 54.5t-221 74.5q-185 56 -258.5 142t-73.5 218q0 134 90 221.5t252 104.5v116h240v-122q141 -20 352 -91l-84 -260q-279 90 -397 90q-44 0 -68 -16.5t-24 -42.5q0 -35 42 -52t228 -69q176 -50 254 -133t78 -223 q0 -146 -99 -238.5t-282 -111.5v-111h-240v121q-201 31 -391 137z" />
<glyph unicode="%" horiz-adv-x="1816" d="M57 879q0 198 87 294.5t266 96.5q178 0 265 -96.5t87 -294.5q0 -195 -87 -290t-265 -95q-179 0 -266 95t-87 290zM299 879q0 -89 24 -129.5t87 -40.5q65 0 88.5 40t23.5 130q0 94 -23.5 135t-88.5 41q-64 0 -87.5 -41t-23.5 -135zM457 0l696 1249h207l-696 -1249h-207z M1055 367q0 198 87 294.5t265 96.5t265 -96.5t87 -294.5q0 -195 -87 -290t-265 -95t-265 95t-87 290zM1296 367q0 -90 23 -129t88 -39q63 0 87 39.5t24 128.5q0 95 -23.5 135.5t-87.5 40.5q-65 0 -88 -40.5t-23 -135.5z" />
<glyph unicode="&#x26;" horiz-adv-x="1386" d="M68 362q0 99 56 171.5t189 142.5q-65 65 -89.5 130t-24.5 138q0 155 115.5 240.5t326.5 85.5q172 0 276.5 -85.5t104.5 -226.5q0 -92 -55 -171.5t-168 -129.5l164 -116l86 137l241 -150q-55 -96 -92 -155l162 -117l-170 -254l-172 131q-84 -83 -175 -117t-214 -34 q-561 0 -561 380zM434 410q0 -70 57.5 -107t137.5 -37q88 0 149 47l-270 207q-74 -58 -74 -110zM530 932q0 -62 74 -131q139 55 139 133q0 98 -100 98q-46 0 -79.5 -27.5t-33.5 -72.5z" />
<glyph unicode="'" horiz-adv-x="548" d="M145 793v524h336l-84 -524h-252z" />
<glyph unicode="(" horiz-adv-x="718" d="M115 494q0 241 86 460t245 402l230 -125q-227 -381 -227 -737q0 -359 227 -740l-230 -125q-159 183 -245 402.5t-86 462.5z" />
<glyph unicode=")" horiz-adv-x="702" d="M29 -246q227 374 227 740q0 363 -227 737l229 125q159 -183 245.5 -402t86.5 -460q0 -242 -86.5 -462t-245.5 -403z" />
<glyph unicode="*" horiz-adv-x="940" d="M70 907l55 168l225 -53l21 227h194l21 -229l229 55l55 -168l-215 -100l136 -203l-136 -115l-186 187l-188 -187l-136 115l136 205z" />
<glyph unicode="+" horiz-adv-x="1050" d="M96 367v266h297v295h264v-295h297v-266h-297v-293h-264v293h-297z" />
<glyph unicode="," horiz-adv-x="583" d="M70 -174q62 45 96.5 82t56.5 86q-66 19 -105.5 74t-39.5 127q0 89 58.5 148.5t150.5 59.5q93 0 152 -65.5t59 -163.5q0 -118 -93.5 -245t-248.5 -212z" />
<glyph unicode="-" horiz-adv-x="845" d="M111 399v328h624v-328h-624z" />
<glyph unicode="." horiz-adv-x="589" d="M86 193q0 90 58 149t151 59t151 -59t58 -149q0 -89 -58.5 -149t-150.5 -60t-150.5 60t-58.5 149z" />
<glyph unicode="/" horiz-adv-x="954" d="M12 -428l549 1763h316l-558 -1763h-307z" />
<glyph unicode="0" horiz-adv-x="1288" d="M59 621q0 316 146 482.5t438 166.5q294 0 439 -166t145 -483q0 -312 -145 -475.5t-439 -163.5q-293 0 -438.5 163.5t-145.5 475.5zM446 621q0 -157 42.5 -227t154.5 -70q114 0 155.5 70t41.5 227q0 163 -41.5 235t-155.5 72q-113 0 -155 -72t-42 -235z" />
<glyph unicode="1" horiz-adv-x="1052" d="M39 1026q159 68 401 223h305v-930h252v-319h-929v319h299v512q-119 -26 -254 -47z" />
<glyph unicode="2" horiz-adv-x="1112" d="M23 1114q189 83 313.5 119.5t249.5 36.5q208 0 333 -118t125 -312q0 -63 -24.5 -123t-63 -109.5t-104.5 -103.5t-129 -97t-156 -100q164 12 238 12h248l-2 -319h-994v268q54 42 138.5 108.5t129.5 102t107 86t94 82t65 67.5t46.5 64t13.5 53q0 59 -37 90t-98 31 q-135 0 -393 -104z" />
<glyph unicode="3" horiz-adv-x="1163" d="M27 119l102 256q234 -99 442 -99q160 0 160 105q0 108 -246 108h-170v277h170q125 0 176.5 19.5t51.5 72.5q0 56 -43 86.5t-119 30.5q-143 0 -404 -80l-75 250q290 125 530 125q200 0 329.5 -99.5t129.5 -257.5q0 -99 -48.5 -170.5t-125.5 -103.5q106 -44 156.5 -107 t50.5 -159q0 -185 -135 -288t-369 -103q-311 0 -563 137z" />
<glyph unicode="4" horiz-adv-x="1282" d="M29 479l669 770h369v-733h174v-307h-174v-209h-369v209h-653zM387 516h311v342q-48 -64 -94 -115l-96 -106q-45 -54 -121 -121z" />
<glyph unicode="5" horiz-adv-x="1175" d="M27 119l102 274q225 -98 422 -98q83 0 141 40t58 105q0 56 -41.5 91.5t-112.5 35.5q-91 0 -176 -82l-307 45l43 719h903v-315h-592l-16 -201q123 76 270 76q186 0 288.5 -102t102.5 -285q0 -105 -40.5 -190t-110.5 -139t-161 -82.5t-196 -28.5q-145 0 -297 33.5 t-280 103.5z" />
<glyph unicode="6" horiz-adv-x="1202" d="M59 561q0 165 47.5 298.5t133 223.5t205 138.5t262.5 48.5q198 0 407 -86l-88 -264q-187 43 -301 43q-126 0 -196 -64.5t-91 -193.5q133 100 326 100q177 0 285 -105t108 -274q0 -204 -135 -324t-379 -120q-280 0 -432 155.5t-152 423.5zM436 483q17 -97 70 -148.5 t137 -51.5q71 0 115.5 43.5t44.5 117.5q0 60 -45 95.5t-119 35.5q-54 0 -110 -24.5t-93 -67.5z" />
<glyph unicode="7" horiz-adv-x="1046" d="M29 930v319h991v-284q-132 -199 -245.5 -457.5t-182.5 -507.5h-445q212 579 463 930h-581z" />
<glyph unicode="8" horiz-adv-x="1187" d="M31 362q0 187 227 297q-84 49 -129 111.5t-45 149.5q0 171 136.5 260.5t391.5 89.5q239 0 362.5 -86t123.5 -246q0 -84 -50 -145t-157 -107q137 -60 201.5 -134t64.5 -190q0 -181 -145 -280.5t-394 -99.5q-312 0 -449.5 95t-137.5 285zM397 391q0 -60 49.5 -92.5 t135.5 -32.5q77 0 122.5 31.5t45.5 83.5q0 45 -50 78t-194 90q-109 -62 -109 -158zM451 926q0 -45 39 -74.5t143 -67.5q121 55 121 146q0 46 -44 74t-116 28q-64 0 -103.5 -29.5t-39.5 -76.5z" />
<glyph unicode="9" horiz-adv-x="1202" d="M47 825q0 204 135 324.5t379 120.5q276 0 419.5 -154.5t143.5 -425.5q1 -359 -154 -533.5t-468 -174.5q-199 0 -410 88l90 264q181 -44 301 -47q122 1 184.5 62t80.5 186q-127 -93 -308 -93q-176 0 -284.5 106.5t-108.5 276.5zM401 807q0 -60 45 -95.5t119 -35.5 q45 0 96.5 23t90.5 59q-25 211 -191 211q-73 0 -116.5 -43.5t-43.5 -118.5z" />
<glyph unicode=":" horiz-adv-x="589" d="M86 193q0 90 58 149t151 59t151 -59t58 -149q0 -89 -58.5 -149t-150.5 -60t-150.5 60t-58.5 149zM86 788q0 90 58 149.5t151 59.5t151 -59.5t58 -149.5q0 -89 -58.5 -148.5t-150.5 -59.5t-150.5 59.5t-58.5 148.5z" />
<glyph unicode=";" horiz-adv-x="593" d="M70 -174q62 45 96.5 82t56.5 86q-66 19 -105.5 74t-39.5 127q0 89 58.5 148.5t150.5 59.5q93 0 152 -65.5t59 -163.5q0 -118 -93.5 -245t-248.5 -212zM86 788q0 91 58 151t151 60t151 -60t58 -151q0 -89 -58.5 -148.5t-150.5 -59.5t-150.5 59.5t-58.5 148.5z" />
<glyph unicode="&#x3c;" horiz-adv-x="860" d="M53 532l551 445l168 -203l-242 -194l-71 -50l73 -51l240 -196l-166 -195z" />
<glyph unicode="=" horiz-adv-x="1030" d="M96 211v229h838v-229h-838zM96 567v230h838v-230h-838z" />
<glyph unicode="&#x3e;" horiz-adv-x="862" d="M90 283l240 196l71 51l-69 50l-242 194l166 203l553 -445l-555 -444z" />
<glyph unicode="?" horiz-adv-x="1124" d="M43 1114q189 83 313.5 119.5t249.5 36.5q206 0 332.5 -113t126.5 -283q0 -146 -111 -245.5t-313 -141.5l6 -84h-299l-55 316h55q125 2 198 16.5t99.5 37.5t26.5 58q0 59 -37 90t-98 31q-136 0 -394 -104zM328 158q0 73 48.5 122.5t125.5 49.5q75 0 123.5 -49.5 t48.5 -122.5t-48.5 -123.5t-123.5 -50.5q-77 0 -125.5 50.5t-48.5 123.5z" />
<glyph unicode="@" horiz-adv-x="1822" d="M76 420q0 188 65.5 347.5t180 269.5t274.5 171.5t346 61.5q239 0 422.5 -96.5t283 -270t99.5 -397.5q-1 -100 -19.5 -181.5t-46.5 -135t-67.5 -93.5t-77.5 -61t-83.5 -33.5t-77.5 -16t-66 -3.5q-43 0 -75 4t-68.5 15.5t-64.5 38t-46 66.5q-80 -73 -143.5 -98.5 t-159.5 -25.5q-320 0 -320 444q0 235 80 344t244 109q141 0 264 -117v100h319v-561q0 -90 13 -117.5t45 -27.5q21 0 41 5.5t48 27t49 57t36.5 103t17.5 157.5q0 285 -173.5 453.5t-473.5 168.5q-318 0 -513.5 -195t-195.5 -513q0 -305 178 -481.5t474 -176.5q144 0 259 23 t251 70l47 -123q-105 -57 -255.5 -90t-301.5 -33q-180 0 -330.5 58.5t-256 164t-164 256.5t-58.5 332zM745 426q0 -110 30 -152.5t97 -42.5q96 0 148 82v219q-66 78 -148 78q-67 0 -97 -40.5t-30 -143.5z" />
<glyph unicode="A" horiz-adv-x="1447" d="M14 0l449 1249h522l449 -1249h-404l-61 186h-490l-59 -186h-406zM588 512h272l-98 299q-15 43 -39 131q-9 -42 -37 -131z" />
<glyph unicode="B" horiz-adv-x="1259" d="M100 0v1249h541q242 0 365.5 -91t123.5 -269q0 -169 -174 -240q128 -34 191 -109.5t63 -199.5q0 -169 -140 -254.5t-415 -85.5h-555zM483 301h176q82 0 119 26.5t37 84.5q0 50 -38.5 77t-110.5 27h-183v-215zM483 760h183q49 0 75.5 25t26.5 71q0 49 -30 70.5t-97 21.5 h-158v-188z" />
<glyph unicode="C" horiz-adv-x="1247" d="M59 621q0 310 172 479.5t478 169.5q244 0 473 -113l-113 -289q-129 33 -203 46.5t-141 13.5q-137 0 -208 -76.5t-71 -230.5q1 -139 71.5 -218t189.5 -79q97 0 179.5 17.5t215.5 66.5l123 -285q-147 -75 -271.5 -108t-265.5 -33q-292 0 -460.5 167.5t-168.5 471.5z" />
<glyph unicode="D" horiz-adv-x="1345" d="M100 0v1249h488q335 0 516.5 -162.5t181.5 -461.5t-182 -462t-516 -163h-488zM483 326h105q150 0 230.5 77.5t80.5 221.5q0 145 -81 223t-230 78h-105v-600z" />
<glyph unicode="E" horiz-adv-x="1142" d="M100 0v1249h949v-319h-570v-160h484v-299h-484v-149h586v-322h-965z" />
<glyph unicode="F" horiz-adv-x="1081" d="M100 0v1249h934v-346h-555v-207h473v-329h-473v-367h-379z" />
<glyph unicode="G" horiz-adv-x="1382" d="M59 621q2 301 170 475t461 174q127 0 276 -28.5t279 -84.5l-92 -285q-143 34 -234.5 49t-191.5 15q-130 0 -204 -83.5t-74 -231.5t67 -229t186 -81q145 0 269 37v101h-281v276h610v-580q-171 -89 -315.5 -126t-300.5 -37q-289 0 -457 167.5t-168 471.5z" />
<glyph unicode="H" horiz-adv-x="1370" d="M100 0v1249h383v-448h404v448h383v-1249h-383v453h-404v-453h-383z" />
<glyph unicode="I" horiz-adv-x="583" d="M100 0v1249h383v-1249h-383z" />
<glyph unicode="J" horiz-adv-x="997" d="M16 94l86 264q154 -43 254 -43q146 0 146 189v745h381v-745q0 -276 -102 -399t-335 -123q-204 0 -430 112z" />
<glyph unicode="K" horiz-adv-x="1351" d="M100 0v1249h383v-497l406 497h422v-26l-404 -492l430 -702v-29h-440l-250 410l-164 -193v-217h-383z" />
<glyph unicode="L" horiz-adv-x="1075" d="M100 0v1249h383v-901h537v-348h-920z" />
<glyph unicode="M" horiz-adv-x="1712" d="M98 0l52 1249h423l250 -602q19 -43 33 -98q13 52 31 98l252 602h426l51 -1249h-383l-8 586v61l-258 -647h-222l-253 647v-51l-15 -596h-379z" />
<glyph unicode="N" horiz-adv-x="1398" d="M100 0v1249h346l469 -633v633h383v-1249h-346l-469 633v-633h-383z" />
<glyph unicode="O" horiz-adv-x="1411" d="M59 621q0 310 171.5 479.5t474.5 169.5t474 -169.5t171 -479.5q0 -305 -171 -472t-474 -167t-474.5 167t-171.5 472zM446 621q0 -146 68 -221.5t191 -75.5q124 0 191 75t67 222q0 153 -67 230t-191 77q-123 0 -191 -77.5t-68 -229.5z" />
<glyph unicode="P" horiz-adv-x="1222" d="M100 0v1249h523q270 0 416.5 -127.5t146.5 -363.5q0 -235 -145 -363.5t-412 -128.5h-146v-266h-383zM483 578h146q89 0 137.5 47t48.5 133q0 80 -50 123t-144 43h-138v-346z" />
<glyph unicode="Q" horiz-adv-x="1374" d="M59 621q0 312 164 480.5t465 168.5q300 0 463.5 -169t163.5 -480q0 -307 -163.5 -473t-463.5 -166q-301 0 -465 166t-164 473zM446 621q0 -297 242 -297q240 0 240 297q0 307 -240 307q-242 0 -242 -307zM522 -289l56 219q197 -37 317.5 -48t312.5 -11v-293 q-325 0 -686 133z" />
<glyph unicode="R" horiz-adv-x="1259" d="M100 0v1249h537q270 0 416.5 -123t146.5 -350q0 -274 -205 -393l248 -354v-29h-407l-199 313h-154v-313h-383zM483 618h179q78 0 119.5 41.5t41.5 116.5q0 74 -47 114t-135 40h-158v-312z" />
<glyph unicode="S" horiz-adv-x="1191" d="M45 147l127 291q133 -68 253 -104.5t198 -36.5q94 0 94 63q0 32 -34.5 49.5t-156.5 55.5q-53 17 -84 27q-187 61 -267.5 144t-80.5 238q0 191 126 293.5t349 102.5q275 0 551 -103l-84 -288q-270 88 -450 88q-80 0 -80 -58q0 -17 8 -29t33.5 -23.5t50.5 -19.5t83 -26 t107 -35q55 -19 91 -34t79.5 -38.5t71 -50.5t52.5 -63t36.5 -84t11.5 -107q0 -199 -131.5 -308t-357.5 -109q-142 0 -298.5 43.5t-297.5 121.5z" />
<glyph unicode="T" horiz-adv-x="1200" d="M39 903v346h1122v-346h-370v-903h-381v903h-371z" />
<glyph unicode="U" horiz-adv-x="1355" d="M96 604v645h381v-645q0 -143 50 -208.5t151 -65.5q103 0 153 65.5t50 208.5v645h381v-645q0 -318 -143.5 -470t-440.5 -152q-295 0 -438.5 152.5t-143.5 469.5z" />
<glyph unicode="V" horiz-adv-x="1396" d="M14 1249h426l219 -708q18 -58 39 -140q21 82 39 140l236 708h409l-464 -1249h-441z" />
<glyph unicode="W" horiz-adv-x="1929" d="M35 1249h403l148 -690q15 -87 20 -145l25 145l129 690h411l129 -690l21 -143q11 98 22 145l148 688h403l-317 -1249h-457l-119 481q-15 73 -36 207q-18 -116 -37 -207l-119 -481h-457z" />
<glyph unicode="X" horiz-adv-x="1376" d="M16 0l379 627l-377 622h424l207 -317l39 -62q26 44 39 62l207 317h424l-377 -622l379 -627h-416l-217 334l-39 63l-39 -63l-217 -334h-416z" />
<glyph unicode="Y" horiz-adv-x="1345" d="M14 1249h402l172 -329q38 -69 86 -181q40 102 84 181l174 329h399l-467 -868v-381h-381v381z" />
<glyph unicode="Z" horiz-adv-x="1251" d="M78 0v279l588 641q-172 -11 -283 -11h-256v340h1047v-297l-541 -622q235 10 272 10h277v-340h-1104z" />
<glyph unicode="[" horiz-adv-x="819" d="M170 -367v1719h612v-287h-274v-1147h274v-285h-612z" />
<glyph unicode="\" horiz-adv-x="954" d="M80 1335h315l549 -1763h-305z" />
<glyph unicode="]" horiz-adv-x="819" d="M39 -82h274v1147h-274v287h612v-1719h-612v285z" />
<glyph unicode="^" horiz-adv-x="1054" d="M70 684l344 633h227l344 -633h-299l-96 190q-39 68 -64 138q-17 -56 -61 -138l-98 -190h-297z" />
<glyph unicode="_" horiz-adv-x="1017" d="M109 -66h800v-264h-800v264z" />
<glyph unicode="`" horiz-adv-x="1019" d="M242 1278v72l233 163l270 -350l-90 -94q-235 82 -413 209z" />
<glyph unicode="a" d="M41 297q0 157 105 233t317 76h174q0 68 -26.5 98.5t-98.5 30.5q-111 0 -317 -43l-56 246q171 47 266 62.5t177 15.5q223 0 322.5 -96.5t99.5 -313.5v-606h-367v117q-119 -135 -270 -135q-165 0 -245.5 70t-80.5 245zM385 344q0 -44 29.5 -70t77.5 -26q75 0 145 59v125 h-123q-64 0 -96.5 -20t-32.5 -68z" />
<glyph unicode="b" horiz-adv-x="1179" d="M86 0v1317h371v-443q73 73 146 106.5t159 33.5q186 0 277 -121.5t91 -382.5q0 -135 -31.5 -239t-86 -165.5t-123 -92.5t-148.5 -31q-73 0 -125 17t-83 41t-76 73v-113h-371zM457 377q32 -47 68 -68.5t91 -21.5q148 0 148 223q0 195 -139 195q-93 0 -168 -97v-231z" />
<glyph unicode="c" horiz-adv-x="1001" d="M45 494q0 249 133 385.5t354 136.5q227 0 418 -109l-100 -235q-142 53 -264 53q-83 0 -129.5 -61.5t-46.5 -169.5q0 -103 46.5 -162.5t127.5 -59.5q135 0 290 76l111 -219q-107 -78 -210 -112.5t-245 -34.5q-136 0 -244.5 57.5t-174.5 175.5t-66 279z" />
<glyph unicode="d" horiz-adv-x="1181" d="M51 510q0 257 96.5 381.5t272.5 124.5q92 0 163.5 -27.5t141.5 -97.5v426h371v-1317h-371v113q-45 -48 -76.5 -72.5t-84 -41.5t-124.5 -17q-80 0 -148.5 31t-123 92.5t-86 165.5t-31.5 239zM416 510q0 -221 147 -221q57 0 93.5 21t68.5 67v231q-75 97 -168 97 q-141 0 -141 -195z" />
<glyph unicode="e" d="M49 492q0 253 134.5 388.5t379.5 135.5q218 0 344 -125t127 -354q0 -67 -10 -138h-614q13 -70 54 -101.5t116 -31.5q97 0 173.5 19.5t176.5 66.5l102 -211q-120 -84 -230.5 -121.5t-240.5 -37.5q-240 0 -376 131.5t-136 378.5zM408 596h305q-3 82 -41 124t-109 42 q-131 0 -155 -166z" />
<glyph unicode="f" horiz-adv-x="784" d="M16 690v307h131v21q0 203 101 296t317 93q105 0 221 -25l-24 -254l-125 2q-67 0 -93 -29.5t-26 -86.5v-17h238v-307h-238v-690h-371v690h-131z" />
<glyph unicode="g" horiz-adv-x="1175" d="M51 526q0 250 92 370t277 120q80 0 150.5 -28.5t152.5 -90.5v100h371v-817q0 -287 -128 -417t-395 -130q-247 0 -440 78l49 246q203 -45 338 -45q102 0 151.5 53.5t53.5 184.5q-64 -61 -129.5 -84t-171.5 -23q-176 0 -273.5 123.5t-97.5 359.5zM416 526q0 -106 36 -150 t111 -44q51 0 86.5 16.5t73.5 54.5v222q-86 80 -166 80q-73 0 -107 -41t-34 -138z" />
<glyph unicode="h" horiz-adv-x="1167" d="M86 0v1317h371v-463q99 86 177.5 123t162.5 37q156 0 222 -88t66 -291v-635h-370v518q0 80 -18 108.5t-74 28.5q-84 0 -166 -92v-563h-371z" />
<glyph unicode="i" horiz-adv-x="575" d="M78 1286q0 91 61 141t148 50t148 -50t61 -141q0 -89 -61 -138.5t-148 -49.5t-148 49.5t-61 138.5zM102 0v997h371v-997h-371z" />
<glyph unicode="j" horiz-adv-x="575" d="M-35 -117q84 44 110.5 98.5t26.5 157.5v858h371v-858q0 -104 -21 -182.5t-70.5 -143.5t-134 -109t-208.5 -71zM76 1286q0 91 61 141t148 50t148 -50t61 -141q0 -89 -61 -138.5t-148 -49.5t-148 49.5t-61 138.5z" />
<glyph unicode="k" horiz-adv-x="1165" d="M86 0v1317h371v-631l274 311h412v-28l-365 -404l373 -536v-29h-426l-190 283l-78 -88v-195h-371z" />
<glyph unicode="l" horiz-adv-x="542" d="M86 0v1317h371v-1317h-371z" />
<glyph unicode="m" horiz-adv-x="1732" d="M86 0v997h371v-135q87 80 158.5 116t152.5 36q105 0 169 -41t93 -129q102 95 179 132.5t157 37.5q154 0 220.5 -88t66.5 -291v-635h-371v528q0 72 -21 105t-65 33q-66 0 -139 -82v-584h-371v528q0 138 -88 138q-67 0 -141 -84v-582h-371z" />
<glyph unicode="n" horiz-adv-x="1167" d="M86 0v997h371v-133q102 79 180 114.5t160 35.5q156 0 222 -88t66 -291v-635h-370v528q0 79 -18.5 108.5t-73.5 29.5q-83 0 -166 -93v-573h-371z" />
<glyph unicode="o" horiz-adv-x="1150" d="M51 494q0 250 138 386t386 136q249 0 387 -136.5t138 -385.5q0 -244 -138.5 -378t-386.5 -134t-386 134t-138 378zM414 494q0 -120 40.5 -171t120.5 -51q79 0 120.5 51.5t41.5 170.5q0 125 -41.5 178t-120.5 53t-120 -53t-41 -178z" />
<glyph unicode="p" horiz-adv-x="1179" d="M86 -311v1308h371v-112q74 67 147 98t158 31q186 0 277 -122t91 -384q0 -135 -31.5 -238.5t-86 -165t-123 -92t-148.5 -30.5q-73 0 -125 17t-83 41t-76 73v-424h-371zM457 377q32 -47 68 -68.5t91 -21.5q148 0 148 223q0 195 -139 195q-93 0 -168 -97v-231z" />
<glyph unicode="q" horiz-adv-x="1179" d="M51 510q0 261 92 383.5t277 122.5q85 0 157 -31.5t146 -99.5v112h371v-1308h-371v424q-45 -49 -76 -73t-83 -41t-124 -17q-80 0 -148.5 31t-123 92.5t-86 165.5t-31.5 239zM418 510q0 -221 145 -221q57 0 93.5 21t66.5 67v231q-75 97 -166 97q-70 0 -104.5 -47 t-34.5 -148z" />
<glyph unicode="r" horiz-adv-x="854" d="M86 0v997h371v-192q56 110 117 159.5t143 49.5q68 0 123 -6l-25 -377q-49 4 -117 4q-99 0 -156 -36t-85 -136v-463h-371z" />
<glyph unicode="s" horiz-adv-x="989" d="M37 109l90 249q112 -52 211.5 -81t159.5 -29q69 0 69 37q0 25 -31 40t-128 44q-31 9 -48 14q-137 41 -202.5 116t-65.5 193q0 153 102 238.5t281 85.5q126 0 221 -13.5t232 -54.5l-78 -248q-226 58 -330 58q-80 0 -80 -45q0 -8 1.5 -14t7 -11.5t11 -9.5t17 -9t23 -8.5 t30.5 -9t37 -10t46.5 -12.5t54.5 -15q143 -42 205.5 -108.5t62.5 -186.5q0 -161 -111 -249t-301 -88q-104 0 -237.5 35t-249.5 92z" />
<glyph unicode="t" horiz-adv-x="827" d="M16 690v305h136v213h370v-213h234v-305h-234v-295q0 -59 24.5 -87.5t90.5 -28.5q80 0 127 2l37 -224q-53 -32 -138.5 -52.5t-168.5 -20.5q-181 0 -261.5 91.5t-80.5 303.5v311h-136z" />
<glyph unicode="u" horiz-adv-x="1173" d="M84 362v635h371v-536q0 -80 18 -109.5t74 -29.5q86 0 166 94v581h370v-997h-370v117q-9 -6 -36.5 -24.5t-34.5 -23t-29.5 -19t-30.5 -18.5t-27 -14.5t-28.5 -13.5t-26.5 -9t-30 -7.5t-29 -3.5t-33 -2q-161 0 -242.5 91t-81.5 289z" />
<glyph unicode="v" horiz-adv-x="1181" d="M6 997h383l160 -454q27 -90 41 -148q39 135 43 148l160 454h383l-381 -997h-408z" />
<glyph unicode="w" horiz-adv-x="1607" d="M14 995h365l123 -524q2 -10 12 -98q10 56 21 98l139 524h258l141 -524q1 -8 9 -46.5t10 -59.5q8 72 16 108l121 522h364l-258 -995h-411l-119 481l-121 -481h-410z" />
<glyph unicode="x" horiz-adv-x="1140" d="M12 0l316 500l-314 497h396l139 -225l22 -39q3 8 11 21.5t10 17.5l139 223h395l-313 -495l315 -500h-387l-149 225l-21 39q-20 -35 -22 -39l-150 -225h-387z" />
<glyph unicode="y" horiz-adv-x="1165" d="M2 995h383l150 -405l45 -154q53 114 95.5 242t92.5 317h393q-62 -191 -102 -306t-97 -258.5t-108 -240.5q-104 -200 -254.5 -330t-372.5 -202l-121 279q162 69 248 153z" />
<glyph unicode="z" horiz-adv-x="1095" d="M74 0v233l436 474q-20 -1 -95 -4t-108 -3h-215v295h905v-225l-415 -483q132 6 225 6h215v-293h-948z" />
<glyph unicode="{" horiz-adv-x="843" d="M43 360v267q129 12 173 57t44 156v75q0 247 125 348.5t422 104.5l18 -262q-93 -12 -138.5 -32.5t-61 -55.5t-15.5 -103v-75q0 -163 -60 -241.5t-188 -104.5q128 -27 188 -106t60 -241v-75q0 -68 15.5 -103t61 -55.5t138.5 -32.5l-18 -262q-297 3 -422 104.5t-125 348.5 v75q0 111 -43.5 155.5t-173.5 57.5z" />
<glyph unicode="|" horiz-adv-x="727" d="M211 -410v1727h307v-1727h-307z" />
<glyph unicode="}" horiz-adv-x="843" d="M20 -119q94 10 139.5 31t61 56t15.5 104v75q0 162 60.5 241t188.5 106q-128 26 -188.5 104.5t-60.5 241.5v75q0 68 -15.5 103t-61 55.5t-139.5 32.5l19 262q297 -3 422 -104.5t125 -348.5v-75q0 -111 44.5 -156t172.5 -57v-267q-129 -13 -173 -58t-44 -155v-75 q0 -248 -124.5 -349t-422.5 -104z" />
<glyph unicode="~" horiz-adv-x="1083" d="M98 524q64 117 129 173t133 59t150 -25l143 -57q35 -12 64.5 -13t62 22.5t72.5 78.5l135 -98q-65 -117 -131.5 -173.5t-135 -59.5t-149.5 24l-143 57q-49 26 -94 10.5t-103 -92.5z" />
<glyph unicode="&#xa1;" horiz-adv-x="565" d="M82 -250l55 793h291l55 -793h-401zM109 844q0 73 49.5 123.5t124.5 50.5q77 0 125.5 -50.5t48.5 -123.5t-48.5 -123.5t-125.5 -50.5q-75 0 -124.5 50.5t-49.5 123.5z" />
<glyph unicode="&#xa2;" horiz-adv-x="1058" d="M59 561q0 234 111.5 387t296.5 189v112h242v-112q123 -18 297 -103l-103 -239q-145 55 -270 55q-205 0 -205 -289q0 -150 52 -216t151 -66q149 0 293 79l116 -227q-84 -62 -162 -95.5t-169 -45.5v-105h-242v107q-86 16 -158 57.5t-129 109.5t-89 171t-32 231z" />
<glyph unicode="&#xa3;" horiz-adv-x="1208" d="M82 0v274l121 21l16 164h-137v168h156q35 270 158.5 399t342.5 129q116 0 218 -25.5t210 -87.5l-102 -239q-156 59 -268 59q-81 0 -127 -52.5t-66 -180.5h311v-168h-327l-17 -156h510v-305h-999z" />
<glyph unicode="&#xa5;" horiz-adv-x="1222" d="M14 1128h389l140 -284q14 -32 36 -88t31 -78l70 166l137 284h391l-282 -542h190v-115h-250l-39 -74h289v-114h-315v-283h-381v283h-309v114h282l-39 74h-243v115h184z" />
<glyph unicode="&#xa6;" horiz-adv-x="727" d="M211 297h307v-707h-307v707zM211 608v709h307v-709h-307z" />
<glyph unicode="&#xa7;" horiz-adv-x="1255" d="M84 522q0 82 44 133.5t124 89.5q-78 75 -78 207q0 145 104 231.5t291 86.5q237 0 475 -92l-94 -267q-97 46 -192 72.5t-154 26.5q-84 0 -84 -45q0 -29 36 -45.5t169 -55.5q32 -9 49 -14q218 -64 298.5 -132.5t80.5 -176.5q0 -83 -43 -135t-125 -89q76 -76 76 -206 q0 -148 -107 -241t-301 -93q-123 0 -261 38t-261 105l96 268q115 -68 220.5 -101.5t183.5 -33.5q84 0 84 49q0 29 -41.5 46t-212.5 65q-217 64 -297 132.5t-80 176.5zM414 578q0 -11 8 -20.5t25 -18.5t36.5 -17t52 -17.5t60.5 -17.5t71.5 -20.5t77.5 -22.5l50 -16 q28 35 28 59q0 15 -15 27.5t-50 25t-68 22t-95 26.5t-106 30l-49 19q-26 -35 -26 -59z" />
<glyph unicode="&#xa8;" horiz-adv-x="1019" d="M117 1276q0 78 51.5 122t122.5 44q75 0 124.5 -43.5t49.5 -122.5t-49.5 -122.5t-124.5 -43.5q-71 0 -122.5 44t-51.5 122zM553 1276q0 79 50 122.5t126 43.5q70 0 122 -44.5t52 -121.5t-52 -121.5t-122 -44.5q-76 0 -126 43.5t-50 122.5z" />
<glyph unicode="&#xa9;" horiz-adv-x="1495" d="M104 625q0 131 50.5 250.5t136.5 206t205.5 137.5t251.5 51q175 0 322.5 -86.5t233 -235t85.5 -323.5q0 -176 -85.5 -324t-233 -233.5t-322.5 -85.5q-132 0 -251.5 50.5t-205.5 136.5t-136.5 205t-50.5 251zM186 625q0 -115 44.5 -219t119.5 -179t179 -119.5t219 -44.5 q153 0 282 75t204 204.5t75 282.5q0 152 -75 281.5t-204 205.5t-282 76t-282.5 -76t-204.5 -205.5t-75 -281.5zM393 618q0 176 96.5 275.5t258.5 99.5q158 0 299 -80l-72 -168q-117 43 -193 43q-67 0 -100 -40.5t-33 -129.5q0 -86 33.5 -123.5t101.5 -37.5q86 0 207 59 l78 -156q-75 -57 -149 -82.5t-172 -25.5q-154 0 -254.5 98.5t-100.5 267.5z" />
<glyph unicode="&#xaa;" horiz-adv-x="806" d="M47 756q0 221 305 221h121q0 47 -19.5 69.5t-70.5 22.5q-80 0 -225 -29l-39 172q212 58 317 58q159 0 231 -68.5t72 -224.5v-432h-266v78q-86 -93 -192 -93q-117 0 -175.5 50.5t-58.5 175.5zM295 788q0 -31 20.5 -48t55.5 -17q58 0 102 41v94h-86q-92 0 -92 -70z" />
<glyph unicode="&#xab;" horiz-adv-x="1312" d="M53 532l467 445l185 -184l-191 -193q-37 -35 -82 -70q63 -50 84 -71l189 -193l-183 -178zM571 532l467 445l185 -184l-193 -193q-24 -24 -82 -70q58 -43 84 -71l191 -193l-183 -178z" />
<glyph unicode="&#xad;" horiz-adv-x="845" d="M111 399v328h624v-328h-624z" />
<glyph unicode="&#xae;" horiz-adv-x="1495" d="M104 625q0 131 50.5 250.5t136.5 206t205.5 137.5t251.5 51q175 0 322.5 -86.5t233 -235t85.5 -323.5q0 -176 -85.5 -324t-233 -233.5t-322.5 -85.5q-132 0 -251.5 50.5t-205.5 136.5t-136.5 205t-50.5 251zM186 625q0 -115 44.5 -219t119.5 -179t179 -119.5t219 -44.5 q153 0 282 75t204 204.5t75 282.5q0 152 -75 281.5t-204 205.5t-282 76t-282.5 -76t-204.5 -205.5t-75 -281.5zM442 270v711h310q176 0 254.5 -64t78.5 -192q0 -145 -124 -184q65 -37 97 -108.5t48 -162.5h-272q-2 11 -7 33.5t-7.5 33t-7 29t-8 27.5t-9.5 22.5t-12 19.5 t-14 13.5t-18 10t-22 2.5h-63v-191h-224zM684 635h80q80 0 80 82q0 80 -92 80h-68v-162z" />
<glyph unicode="&#xaf;" horiz-adv-x="1019" d="M176 1145v262h668v-262h-668z" />
<glyph unicode="&#xb0;" horiz-adv-x="772" d="M70 952q0 144 86 231t231 87t231.5 -87.5t86.5 -230.5q0 -140 -87 -225.5t-231 -85.5q-145 0 -231 85.5t-86 225.5zM276 952q0 -52 29 -81t82 -29t81 29t28 81q0 55 -28 87t-81 32t-82 -32t-29 -87z" />
<glyph unicode="&#xb1;" horiz-adv-x="1050" d="M96 567v230h316v233h227v-233h313v-230h-313v-233h-227v233h-316zM98 20v230h836v-230h-836z" />
<glyph unicode="&#xb2;" horiz-adv-x="739" d="M35 1378q121 51 198 74t154 23q129 0 207 -73.5t78 -195.5q0 -48 -20.5 -91t-64.5 -84.5t-90.5 -74t-119.5 -77.5q102 8 143 8h156v-201h-619v168q28 22 68 53.5t64.5 50.5t57 44.5t52 42.5t42.5 37.5t36 35t25 30.5t17 29t5 25q0 37 -21.5 55.5t-58.5 18.5 q-82 0 -244 -66z" />
<glyph unicode="&#xb3;" horiz-adv-x="747" d="M23 762l65 160q148 -64 274 -64q45 0 71 17t26 49q0 67 -152 67h-106v174h106q77 0 108 11.5t31 44.5q0 69 -98 69q-90 0 -250 -47l-49 156q188 76 330 76q126 0 206.5 -61.5t80.5 -160.5q0 -60 -30 -103t-79 -63q65 -28 96 -68t31 -99q0 -117 -82.5 -180.5t-228.5 -63.5 q-191 0 -350 86z" />
<glyph unicode="&#xb4;" horiz-adv-x="1019" d="M301 1163l270 350l234 -163v-72q-177 -126 -414 -209z" />
<glyph unicode="&#xb6;" horiz-adv-x="1236" d="M70 811q0 227 128 332.5t400 105.5h563v-280l-178 -33v-936h-346v381h-39q-272 0 -400 104.5t-128 325.5z" />
<glyph unicode="&#xb7;" horiz-adv-x="600" d="M88 549q0 90 59 149.5t152 59.5t151 -59.5t58 -149.5q0 -89 -58.5 -149t-150.5 -60q-93 0 -152 60t-59 149z" />
<glyph unicode="&#xb8;" horiz-adv-x="1019" d="M268 -375l29 135q95 -18 141 -18q74 0 74 51q0 38 -19 52t-73 14h-62l43 213h134v-127q114 -10 155 -48t41 -122q0 -88 -54 -143.5t-153 -55.5q-130 0 -256 49z" />
<glyph unicode="&#xb9;" horiz-adv-x="714" d="M61 1317q134 51 256 137h193v-575h166v-201h-582v201h178v309q-97 -21 -166 -29z" />
<glyph unicode="&#xba;" horiz-adv-x="868" d="M59 895q0 179 98.5 277t276.5 98t276.5 -98t98.5 -277q0 -174 -98.5 -269.5t-276.5 -95.5t-276.5 95.5t-98.5 269.5zM317 895q0 -158 117 -158t117 158q0 90 -30 129t-87 39t-87 -39t-30 -129z" />
<glyph unicode="&#xbb;" horiz-adv-x="1312" d="M90 266l191 193q24 25 81 71q-44 35 -79 70l-193 193l184 184l467 -445l-469 -446zM606 266l191 193q34 34 84 71q-58 46 -82 70l-193 193l185 184l466 -445l-469 -446z" />
<glyph unicode="&#xbc;" horiz-adv-x="1841" d="M61 1112q134 51 256 137h193v-575h166v-201h-582v201h178v309q-97 -21 -166 -29zM481 0l695 1249h206l-696 -1249h-205zM977 291l416 485h229v-465h109v-184h-109v-127h-229v127h-406zM1188 311h205v224q-35 -45 -56 -66l-71 -80q-35 -43 -78 -78z" />
<glyph unicode="&#xbd;" horiz-adv-x="1886" d="M61 1112q134 51 256 137h193v-575h166v-201h-582v201h178v309q-97 -21 -166 -29zM481 0l695 1249h206l-696 -1249h-205zM1137 692q119 51 196.5 73.5t155.5 22.5q129 0 207 -73.5t78 -194.5q0 -48 -20.5 -91t-64.5 -84.5t-90.5 -74t-119.5 -77.5q102 8 143 8h156v-201 h-619v168q28 22 68 53.5t64.5 50.5t57 44.5t52 42.5t42.5 37.5t36 35t25 30.5t17 29t5 25q0 37 -21.5 55.5t-58.5 18.5q-82 0 -244 -66z" />
<glyph unicode="&#xbe;" horiz-adv-x="1808" d="M23 559l65 160q142 -64 274 -64q97 0 97 64q0 67 -152 67h-106v177h106q78 0 108.5 11t30.5 42q0 69 -98 69q-90 0 -250 -47l-49 156q188 76 330 76q126 0 206.5 -60t80.5 -159q0 -62 -30 -105t-79 -63q66 -28 96.5 -67.5t30.5 -100.5q0 -116 -82.5 -179t-228.5 -63 q-191 0 -350 86zM453 0l696 1249h205l-697 -1249h-204zM965 291l415 485h230v-465h108v-184h-108v-127h-230v127h-405zM1176 311h204v224q-38 -49 -55 -66l-72 -80q-36 -46 -77 -78z" />
<glyph unicode="&#xbf;" horiz-adv-x="1124" d="M61 125q0 147 110.5 246.5t313.5 142.5l-4 82h299l54 -313h-54q-94 -1 -159 -10t-100 -24.5t-49.5 -34.5t-14.5 -44q0 -60 37 -91.5t98 -31.5q76 0 168.5 27t224.5 80l100 -267q-194 -84 -316.5 -120.5t-248.5 -36.5q-204 0 -331.5 112.5t-127.5 282.5zM453 844 q0 73 48.5 122.5t125.5 49.5q76 0 125 -49.5t49 -122.5t-49.5 -123.5t-124.5 -50.5q-77 0 -125.5 50.5t-48.5 123.5z" />
<glyph unicode="&#xc0;" horiz-adv-x="1447" d="M14 0l449 1249h522l449 -1249h-404l-61 186h-490l-59 -186h-406zM432 1493v74l270 145l234 -315l-90 -94q-135 45 -223.5 85t-190.5 105zM588 512h272l-98 299q-15 43 -39 131q-9 -42 -37 -131z" />
<glyph unicode="&#xc1;" horiz-adv-x="1447" d="M14 0l449 1249h522l447 -1249h-404l-59 186h-490l-61 -186h-404zM502 1401l235 313l269 -145v-72q-100 -67 -189 -107t-225 -85zM586 512h274l-98 299q-15 43 -39 131q-9 -42 -37 -131z" />
<glyph unicode="&#xc2;" horiz-adv-x="1447" d="M14 0l449 1249h522l449 -1249h-404l-61 186h-490l-59 -186h-406zM346 1397l275 289h206l275 -289l-90 -94l-287 159l-287 -159zM588 512h272l-98 299q-15 43 -39 131q-9 -42 -37 -131z" />
<glyph unicode="&#xc3;" horiz-adv-x="1447" d="M14 0l449 1249h522l449 -1249h-404l-61 186h-490l-59 -186h-406zM360 1366q1 70 19 124t46.5 85.5t64.5 50t76 22t78 -2.5t73 -21l110 -53q23 -11 39 -13.5t32.5 6t30 23t36.5 43.5h133q-2 -85 -28.5 -146t-66.5 -91.5t-89.5 -43t-96.5 -7t-88 23.5l-113 55 q-44 20 -68 9.5t-65 -64.5h-123zM588 512h272l-98 299q-15 43 -39 131q-9 -42 -37 -131z" />
<glyph unicode="&#xc4;" horiz-adv-x="1447" d="M14 0l449 1249h522l449 -1249h-404l-61 186h-490l-59 -186h-406zM340 1509q0 73 50 116.5t116 43.5q72 0 120 -43t48 -117t-48 -116.5t-120 -42.5q-66 0 -116 43t-50 116zM588 512h272l-98 299q-15 43 -39 131q-9 -42 -37 -131zM776 1509q0 74 47 117t119 43 q66 0 116 -43.5t50 -116.5t-50 -116t-116 -43q-72 0 -119 42.5t-47 116.5z" />
<glyph unicode="&#xc5;" horiz-adv-x="1447" d="M14 0l449 1249h522l449 -1249h-404l-61 186h-490l-59 -186h-406zM494 1544q0 102 64 165t167 63q102 0 166.5 -63t64.5 -165q0 -97 -65 -158t-168 -61q-101 0 -165 61t-64 158zM588 512h272l-98 299q-15 43 -39 131q-9 -42 -37 -131zM645 1544q0 -32 22 -51.5t56 -19.5 q37 0 58.5 19.5t21.5 51.5q0 38 -21 59t-57 21t-58 -21t-22 -59z" />
<glyph unicode="&#xc6;" horiz-adv-x="2019" d="M14 0l758 1249h1153v-319h-569v-160h483v-299h-483v-149h586v-322h-965v186h-430l-107 -186h-426zM735 512h242v422z" />
<glyph unicode="&#xc7;" horiz-adv-x="1247" d="M59 621q0 310 172 479.5t478 169.5q244 0 473 -113l-113 -289q-129 33 -203 46.5t-141 13.5q-137 0 -208 -76.5t-71 -230.5q1 -139 71.5 -218t189.5 -79q97 0 179.5 17.5t215.5 66.5l123 -285q-147 -75 -271.5 -108t-265.5 -33h-6l-2 -37q114 -9 156.5 -47.5t42.5 -122.5 q0 -87 -54.5 -143t-152.5 -56q-123 0 -258 49l30 135q93 -18 142 -18q71 0 71 53q0 38 -19 52t-73 14h-59l26 135q-223 42 -348 204t-125 421z" />
<glyph unicode="&#xc8;" horiz-adv-x="1142" d="M100 0v1249h949v-319h-570v-160h484v-299h-484v-149h586v-322h-965zM268 1493v74l269 145l235 -315l-90 -94q-136 45 -225 85t-189 105z" />
<glyph unicode="&#xc9;" horiz-adv-x="1142" d="M100 0v1249h949v-319h-570v-160h484v-299h-484v-149h586v-322h-965zM338 1401l235 313l269 -145v-72q-102 -66 -190.5 -106.5t-223.5 -85.5z" />
<glyph unicode="&#xca;" horiz-adv-x="1142" d="M100 0v1249h949v-319h-570v-160h484v-299h-484v-149h586v-322h-965zM182 1397l273 289h209l272 -289l-90 -94l-287 159l-287 -159z" />
<glyph unicode="&#xcb;" horiz-adv-x="1142" d="M100 0v1249h949v-319h-570v-160h484v-299h-484v-149h586v-322h-965zM174 1509q0 73 50 116.5t116 43.5q72 0 120 -43t48 -117t-48 -116.5t-120 -42.5q-66 0 -116 43t-50 116zM610 1509q0 74 48 117t120 43q66 0 116 -43.5t50 -116.5t-50 -116t-116 -43q-72 0 -120 42.5 t-48 116.5z" />
<glyph unicode="&#xcc;" horiz-adv-x="583" d="M0 1493v74l270 145l234 -315l-90 -94q-135 45 -223.5 85t-190.5 105zM100 0v1249h383v-1249h-383z" />
<glyph unicode="&#xcd;" horiz-adv-x="583" d="M70 1401l235 313l268 -145v-72q-101 -67 -189 -107t-224 -85zM100 0v1249h383v-1249h-383z" />
<glyph unicode="&#xce;" horiz-adv-x="583" d="M-86 1397l274 289h207l275 -289l-90 -94l-287 159l-287 -159zM100 0v1249h383v-1249h-383z" />
<glyph unicode="&#xcf;" horiz-adv-x="583" d="M-92 1509q0 73 50 116.5t116 43.5q72 0 120 -43t48 -117t-48 -116.5t-120 -42.5q-66 0 -116 43t-50 116zM100 0v1249h383v-1249h-383zM344 1509q0 74 47 117t119 43q66 0 116 -43.5t50 -116.5t-50 -116t-116 -43q-72 0 -119 42.5t-47 116.5z" />
<glyph unicode="&#xd0;" horiz-adv-x="1351" d="M6 475v295h100v479h488q335 0 516.5 -162.5t181.5 -461.5t-182 -462t-516 -163h-488v475h-100zM489 326h105q150 0 230.5 77.5t80.5 221.5q0 145 -81 223t-230 78h-105v-156h170v-295h-170v-149z" />
<glyph unicode="&#xd1;" horiz-adv-x="1398" d="M100 0v1249h346l469 -633v633h383v-1249h-346l-469 633v-633h-383zM334 1366q2 84 27 144t62.5 89.5t85 41.5t93.5 6.5t88 -23.5l111 -53q23 -11 39.5 -13.5t32.5 6t30 23t37 43.5h133q-1 -71 -20 -125.5t-49 -86.5t-68 -51.5t-79 -23t-79.5 2t-72.5 20.5l-113 55 q-44 20 -68.5 9.5t-66.5 -64.5h-123z" />
<glyph unicode="&#xd2;" horiz-adv-x="1411" d="M59 621q0 310 171.5 479.5t474.5 169.5t474 -169.5t171 -479.5q0 -305 -171 -472t-474 -167t-474.5 167t-171.5 472zM414 1493v74l268 145l236 -315l-91 -94q-136 45 -224.5 85t-188.5 105zM446 621q0 -146 68 -221.5t191 -75.5q124 0 191 75t67 222q0 153 -67 230 t-191 77q-123 0 -191 -77.5t-68 -229.5z" />
<glyph unicode="&#xd3;" horiz-adv-x="1411" d="M59 621q0 310 171.5 479.5t474.5 169.5t474 -169.5t171 -479.5q0 -305 -171 -472t-474 -167t-474.5 167t-171.5 472zM446 621q0 -146 68 -221.5t191 -75.5q124 0 191 75t67 222q0 153 -67 230t-191 77q-123 0 -191 -77.5t-68 -229.5zM483 1401l236 313l268 -145v-72 q-100 -66 -188.5 -106.5t-225.5 -85.5z" />
<glyph unicode="&#xd4;" horiz-adv-x="1411" d="M59 621q0 310 171.5 479.5t474.5 169.5t474 -169.5t171 -479.5q0 -305 -171 -472t-474 -167t-474.5 167t-171.5 472zM328 1397l272 289h209l274 -289l-92 -94l-286 159l-287 -159zM446 621q0 -146 68 -221.5t191 -75.5q124 0 191 75t67 222q0 153 -67 230t-191 77 q-123 0 -191 -77.5t-68 -229.5z" />
<glyph unicode="&#xd5;" horiz-adv-x="1411" d="M59 621q0 310 171.5 479.5t474.5 169.5t474 -169.5t171 -479.5q0 -305 -171 -472t-474 -167t-474.5 167t-171.5 472zM342 1366q2 84 26.5 144t62 89.5t85 41.5t93.5 6.5t89 -23.5l111 -53q23 -11 39 -13.5t32 6.5t29.5 23t36.5 43h133q-1 -71 -20 -125.5t-49 -86.5 t-68 -51.5t-79 -23t-79.5 2t-72.5 20.5l-113 55q-44 20 -68 9.5t-65 -64.5h-123zM446 621q0 -146 68 -221.5t191 -75.5q124 0 191 75t67 222q0 153 -67 230t-191 77q-123 0 -191 -77.5t-68 -229.5z" />
<glyph unicode="&#xd6;" horiz-adv-x="1411" d="M59 621q0 310 171.5 479.5t474.5 169.5t474 -169.5t171 -479.5q0 -305 -171 -472t-474 -167t-474.5 167t-171.5 472zM319 1509q0 72 50.5 116t115.5 44q73 0 120.5 -43t47.5 -117t-47.5 -116.5t-120.5 -42.5q-65 0 -115.5 43.5t-50.5 115.5zM446 621q0 -146 68 -221.5 t191 -75.5q124 0 191 75t67 222q0 153 -67 230t-191 77q-123 0 -191 -77.5t-68 -229.5zM756 1509q0 74 48 117t120 43q66 0 116 -43.5t50 -116.5t-50 -116t-116 -43q-72 0 -120 42.5t-48 116.5z" />
<glyph unicode="&#xd7;" horiz-adv-x="1030" d="M104 729l189 189l221 -222l225 226l185 -189l-224 -223l220 -219l-189 -187l-217 218l-215 -213l-186 186l213 213z" />
<glyph unicode="&#xd8;" horiz-adv-x="1404" d="M57 621q0 310 171 479.5t474 169.5q234 0 390 -101l96 99l133 -133l-92 -95q119 -162 119 -419q0 -305 -171.5 -472t-474.5 -167q-247 0 -403 108l-106 -108l-134 133l107 108q-109 159 -109 398zM444 621q0 -46 11 -103l374 383q-55 27 -127 27q-124 0 -191 -77 t-67 -230zM561 358q58 -34 141 -34q124 0 191.5 75t67.5 222q0 65 -17 131z" />
<glyph unicode="&#xd9;" horiz-adv-x="1355" d="M96 604v645h381v-645q0 -143 50 -208.5t151 -65.5q103 0 153 65.5t50 208.5v645h381v-645q0 -318 -143.5 -470t-440.5 -152q-295 0 -438.5 152.5t-143.5 469.5zM387 1493v74l268 145l236 -315l-90 -94q-136 45 -225 85t-189 105z" />
<glyph unicode="&#xda;" horiz-adv-x="1355" d="M96 604v645h381v-645q0 -143 50 -208.5t151 -65.5q103 0 153 65.5t50 208.5v645h381v-645q0 -318 -143.5 -470t-440.5 -152q-295 0 -438.5 152.5t-143.5 469.5zM457 1401l235 313l269 -145v-72q-100 -66 -188.5 -106.5t-225.5 -85.5z" />
<glyph unicode="&#xdb;" horiz-adv-x="1355" d="M96 604v645h381v-645q0 -143 50 -208.5t151 -65.5q103 0 153 65.5t50 208.5v645h381v-645q0 -318 -143.5 -470t-440.5 -152q-295 0 -438.5 152.5t-143.5 469.5zM301 1397l272 289h209l273 -289l-90 -94l-287 159l-287 -159z" />
<glyph unicode="&#xdc;" horiz-adv-x="1355" d="M96 604v645h381v-645q0 -143 50 -208.5t151 -65.5q103 0 153 65.5t50 208.5v645h381v-645q0 -318 -143.5 -470t-440.5 -152q-295 0 -438.5 152.5t-143.5 469.5zM293 1509q0 73 50 116.5t116 43.5q72 0 120 -43t48 -117t-48 -116.5t-120 -42.5q-66 0 -116 43t-50 116z M729 1509q0 74 48 117t120 43q66 0 116 -43.5t50 -116.5t-50 -116t-116 -43q-72 0 -120 42.5t-48 116.5z" />
<glyph unicode="&#xdd;" horiz-adv-x="1345" d="M14 1249h402l172 -329q38 -69 86 -181q40 102 84 181l174 329h399l-467 -868v-381h-381v381zM451 1401l235 313l268 -145v-72q-101 -67 -189 -107t-224 -85z" />
<glyph unicode="&#xde;" horiz-adv-x="1222" d="M100 0v1249h383v-155h140q290 0 426.5 -117t136.5 -363q0 -243 -132 -352.5t-413 -109.5h-158v-152h-383zM483 455h156q176 0 176 159q0 156 -194 156h-138v-315z" />
<glyph unicode="&#xdf;" horiz-adv-x="1286" d="M-2 727v268h152q63 140 204.5 219.5t333.5 79.5q212 0 343.5 -97.5t131.5 -256.5q0 -203 -200 -262q137 -37 204.5 -119.5t67.5 -220.5q0 -160 -113 -258t-297 -98q-139 0 -245 32l24 262q98 -10 158 -10q61 0 97 31t36 84q0 63 -64 87t-186 24h-41v266h41q79 0 125.5 37 t46.5 100q0 49 -32 74.5t-91 25.5q-106 0 -163.5 -56.5t-57.5 -162.5v-776h-371v709z" />
<glyph unicode="&#xe0;" d="M41 297q0 157 105 233t317 76h174q0 68 -26.5 98.5t-98.5 30.5q-111 0 -317 -43l-56 246q171 47 266 62.5t177 15.5q223 0 322.5 -96.5t99.5 -313.5v-606h-367v117q-119 -135 -270 -135q-165 0 -245.5 70t-80.5 245zM276 1278v74l234 161l270 -350l-90 -94 q-237 83 -414 209zM385 344q0 -44 29.5 -70t77.5 -26q75 0 145 59v125h-123q-64 0 -96.5 -20t-32.5 -68z" />
<glyph unicode="&#xe1;" d="M41 297q0 157 105 233t317 76h174q0 68 -26.5 98.5t-98.5 30.5q-111 0 -317 -43l-56 246q171 47 266 62.5t177 15.5q223 0 322.5 -96.5t99.5 -313.5v-606h-367v117q-119 -135 -270 -135q-165 0 -245.5 70t-80.5 245zM336 1163l270 350l234 -161v-74q-177 -126 -414 -209z M385 344q0 -44 29.5 -70t77.5 -26q75 0 145 59v125h-123q-64 0 -96.5 -20t-32.5 -68z" />
<glyph unicode="&#xe2;" d="M39 297q0 157 106 233t318 76h174q0 68 -27 98.5t-100 30.5q-111 0 -317 -43l-56 246q171 47 266 62.5t179 15.5q223 0 322.5 -96.5t99.5 -313.5v-606h-367v117q-122 -135 -272 -135q-165 0 -245.5 70t-80.5 245zM193 1169l262 293h198l262 -293l-88 -92q-5 3 -274 152 q-37 -21 -129 -72t-143 -80zM383 344q0 -44 29.5 -70t79.5 -26q72 0 145 59v125h-125q-64 0 -96.5 -20t-32.5 -68z" />
<glyph unicode="&#xe3;" d="M41 297q0 157 105 233t317 76h174q0 68 -26.5 98.5t-98.5 30.5q-111 0 -317 -43l-56 246q171 47 266 62.5t177 15.5q223 0 322.5 -96.5t99.5 -313.5v-606h-367v117q-119 -135 -270 -135q-165 0 -245.5 70t-80.5 245zM180 1161q2 84 26.5 144t62.5 90t85.5 42t94 6 t88.5 -24l110 -53q23 -11 39 -13.5t32 6.5t29.5 23t36.5 43h136q-2 -85 -29 -146t-67 -91t-89.5 -42.5t-96.5 -6.5t-89 24l-113 54q-22 12 -37.5 14.5t-31 -5t-29 -22t-35.5 -43.5h-123zM385 344q0 -44 29.5 -70t77.5 -26q75 0 145 59v125h-123q-64 0 -96.5 -20t-32.5 -68z " />
<glyph unicode="&#xe4;" d="M41 297q0 157 105 233t317 76h174q0 68 -26.5 98.5t-98.5 30.5q-111 0 -317 -43l-56 246q171 47 266 62.5t177 15.5q223 0 322.5 -96.5t99.5 -313.5v-606h-367v117q-119 -135 -270 -135q-165 0 -245.5 70t-80.5 245zM152 1276q0 77 52.5 122.5t121.5 45.5 q75 0 125.5 -44.5t50.5 -123.5q0 -77 -50.5 -121.5t-125.5 -44.5q-69 0 -121.5 45t-52.5 121zM385 344q0 -44 29.5 -70t77.5 -26q75 0 145 59v125h-123q-64 0 -96.5 -20t-32.5 -68zM590 1276q0 79 49.5 123.5t124.5 44.5q69 0 121.5 -45.5t52.5 -122.5q0 -76 -52.5 -121 t-121.5 -45q-75 0 -124.5 44.5t-49.5 121.5z" />
<glyph unicode="&#xe5;" horiz-adv-x="1134" d="M41 297q0 157 105 233t317 76h174q0 68 -26.5 98.5t-98.5 30.5q-111 0 -317 -43l-56 246q171 47 266 62.5t177 15.5q223 0 322.5 -96.5t99.5 -313.5v-606h-367v117q-119 -135 -270 -135q-165 0 -245.5 70t-80.5 245zM332 1315q0 102 64 163.5t167 61.5q102 0 167 -61.5 t65 -163.5q0 -98 -65 -158.5t-167 -60.5q-103 0 -167 60.5t-64 158.5zM385 344q0 -44 29.5 -70t77.5 -26q75 0 145 59v125h-123q-64 0 -96.5 -20t-32.5 -68zM483 1315q0 -33 22 -52.5t58 -19.5t58 19.5t22 52.5q0 36 -22 57t-58 21t-58 -21t-22 -57z" />
<glyph unicode="&#xe6;" horiz-adv-x="1679" d="M39 295q0 154 105.5 227.5t318.5 73.5h172q0 70 -27 106.5t-98 36.5q-124 0 -317 -43l-56 242q175 45 270.5 61.5t174.5 16.5q177 0 274 -72q123 72 299 72q218 0 344 -124.5t127 -352.5q0 -69 -10 -140h-615q12 -70 52.5 -101.5t117.5 -31.5q96 0 173.5 19.5t177.5 64.5 l102 -209q-120 -84 -230.5 -121.5t-240.5 -37.5q-230 0 -360 118q-199 -118 -385 -118q-195 0 -282 68.5t-87 244.5zM385 334q0 -40 30 -63t81 -23q70 0 178 31q-22 68 -27 120h-133q-75 0 -102 -13t-27 -52zM997 596h306q-1 82 -39.5 124t-110.5 42q-130 0 -156 -166z" />
<glyph unicode="&#xe7;" horiz-adv-x="1001" d="M45 494q0 249 133 385.5t354 136.5q224 0 418 -111l-100 -235q-142 53 -264 53q-83 0 -129.5 -60.5t-46.5 -168.5q0 -103 46.5 -162.5t127.5 -59.5q139 0 290 74l111 -217q-101 -74 -197.5 -108.5t-224.5 -38.5l-2 -37q114 -9 156.5 -47.5t42.5 -122.5q0 -87 -54.5 -143 t-152.5 -56q-123 0 -258 49l31 135q93 -18 141 -18q72 0 72 53q0 37 -19 51.5t-74 14.5h-59l27 133q-166 35 -267.5 165t-101.5 335z" />
<glyph unicode="&#xe8;" d="M49 492q0 253 134.5 388.5t379.5 135.5q218 0 344 -125t127 -354q0 -67 -10 -138h-614q13 -70 54 -101.5t116 -31.5q97 0 173.5 19.5t176.5 66.5l102 -211q-120 -84 -230.5 -121.5t-240.5 -37.5q-240 0 -376 131.5t-136 378.5zM268 1278v74l234 161l270 -350l-90 -94 q-237 83 -414 209zM408 596h305q-3 82 -41 124t-109 42q-131 0 -155 -166z" />
<glyph unicode="&#xe9;" d="M49 492q0 253 134.5 388.5t379.5 135.5q218 0 344 -125t127 -354q0 -67 -10 -138h-614q13 -70 54 -101.5t116 -31.5q97 0 173.5 19.5t176.5 66.5l102 -211q-120 -84 -230.5 -121.5t-240.5 -37.5q-240 0 -376 131.5t-136 378.5zM328 1163l270 350l233 -161v-74 q-178 -127 -413 -209zM408 596h305q-3 82 -41 124t-109 42q-131 0 -155 -166z" />
<glyph unicode="&#xea;" d="M49 492q0 253 134.5 388.5t379.5 135.5q218 0 344 -125t127 -354q0 -67 -10 -138h-614q13 -70 54 -101.5t116 -31.5q96 0 173 20t177 66l102 -211q-120 -84 -230.5 -121.5t-240.5 -37.5q-240 0 -376 131.5t-136 378.5zM184 1169l262 293h199l262 -293l-88 -92 q-5 3 -274 152q-38 -22 -130.5 -72.5t-142.5 -79.5zM408 596h305q-3 82 -41 124t-109 42q-131 0 -155 -166z" />
<glyph unicode="&#xeb;" d="M49 492q0 253 134.5 388.5t379.5 135.5q218 0 344 -125t127 -354q0 -67 -10 -138h-614q13 -70 54 -101.5t116 -31.5q97 0 173.5 19.5t176.5 66.5l102 -211q-120 -84 -230.5 -121.5t-240.5 -37.5q-240 0 -376 131.5t-136 378.5zM143 1276q0 78 51.5 122t122.5 44 q76 0 125.5 -43.5t49.5 -122.5t-49.5 -122.5t-125.5 -43.5q-71 0 -122.5 44t-51.5 122zM408 596h305q-3 82 -41 124t-109 42q-131 0 -155 -166zM580 1276q0 79 50 122.5t126 43.5q70 0 122 -44.5t52 -121.5t-52 -121.5t-122 -44.5q-76 0 -126 43.5t-50 122.5z" />
<glyph unicode="&#xec;" horiz-adv-x="575" d="M18 1278v72l234 163l270 -350l-90 -94q-237 83 -414 209zM102 0v997h371v-997h-371z" />
<glyph unicode="&#xed;" horiz-adv-x="575" d="M78 1163l272 350l232 -163v-72q-172 -124 -414 -209zM102 0v997h371v-997h-371z" />
<glyph unicode="&#xee;" horiz-adv-x="575" d="M-66 1169l263 291h198l262 -291l-88 -92q-173 96 -272 152q-269 -149 -274 -152zM102 0v997h371v-997h-371z" />
<glyph unicode="&#xef;" horiz-adv-x="575" d="M-106 1276q0 77 52 121.5t122 44.5q76 0 126 -43.5t50 -122.5t-50 -122.5t-126 -43.5q-70 0 -122 44.5t-52 121.5zM102 0v997h371v-997h-371zM332 1276q0 79 49.5 122.5t124.5 43.5q71 0 123.5 -44.5t52.5 -121.5t-52.5 -121.5t-123.5 -44.5q-75 0 -124.5 43.5 t-49.5 122.5z" />
<glyph unicode="&#xf0;" horiz-adv-x="1150" d="M51 494q0 132 56 237t170.5 168.5t271.5 63.5q-46 52 -100 98l-189 -74l-45 121l119 47q-80 56 -105 74v49l369 131q18 -19 54.5 -56.5t54.5 -56.5l159 64l43 -121l-106 -43q101 -111 161.5 -205.5t98 -220t37.5 -276.5q0 -244 -138.5 -378t-386.5 -134t-386 134 t-138 378zM414 475q0 -107 41 -155t120 -48t119.5 51t40.5 171q0 134 -43 245q-165 -6 -221.5 -63t-56.5 -201z" />
<glyph unicode="&#xf1;" horiz-adv-x="1167" d="M86 0v997h371v-133q102 79 180 114.5t160 35.5q156 0 222 -88t66 -291v-635h-370v528q0 79 -18.5 108.5t-73.5 29.5q-83 0 -166 -93v-573h-371zM219 1161q2 84 26.5 144t62.5 89.5t85.5 41.5t93.5 6.5t88 -23.5l111 -53q23 -11 39 -13.5t32 6.5t29.5 23t36.5 43h133 q-1 -71 -20 -125.5t-49 -86.5t-68 -51.5t-79 -23t-79.5 2t-72.5 20.5l-113 56q-44 20 -68 9t-65 -65h-123z" />
<glyph unicode="&#xf2;" horiz-adv-x="1150" d="M51 494q0 250 138 386t386 136q249 0 387 -136.5t138 -385.5q0 -244 -138.5 -378t-386.5 -134t-386 134t-138 378zM305 1278v74l234 161l272 -350l-90 -94q-241 84 -416 209zM414 494q0 -120 40.5 -171t120.5 -51q79 0 120.5 51.5t41.5 170.5q0 125 -41.5 178t-120.5 53 t-120 -53t-41 -178z" />
<glyph unicode="&#xf3;" horiz-adv-x="1150" d="M51 494q0 250 138 386t386 136q249 0 387 -136.5t138 -385.5q0 -244 -138.5 -378t-386.5 -134t-386 134t-138 378zM367 1163l270 350l233 -161v-74q-178 -127 -413 -209zM414 494q0 -120 40.5 -171t120.5 -51q79 0 120.5 51.5t41.5 170.5q0 125 -41.5 178t-120.5 53 t-120 -53t-41 -178z" />
<glyph unicode="&#xf4;" horiz-adv-x="1150" d="M49 494q0 250 138 386t386 136q250 0 388.5 -136t138.5 -386q0 -244 -138.5 -378t-388.5 -134q-248 0 -386 134t-138 378zM223 1169l262 293h197l262 -293l-86 -92q-45 26 -136.5 76t-137.5 76q-23 -13 -121.5 -67t-153.5 -85zM414 494q0 -120 40 -171t119 -51 q80 0 121 51t41 171q0 125 -40.5 178t-121.5 53q-79 0 -119 -53t-40 -178z" />
<glyph unicode="&#xf5;" horiz-adv-x="1150" d="M51 494q0 250 138 386t386 136q249 0 387 -136.5t138 -385.5q0 -244 -138.5 -378t-386.5 -134t-386 134t-138 378zM207 1143q2 84 27 144t62.5 89.5t85 41.5t93.5 6.5t88 -23.5l111 -53q23 -11 39.5 -13.5t32.5 6t30 23t37 43.5h133q-1 -71 -20 -125.5t-49 -86.5 t-68 -51.5t-79 -23t-79.5 2t-72.5 20.5l-113 55q-44 20 -68.5 9.5t-66.5 -64.5h-123zM414 494q0 -120 40.5 -171t120.5 -51q79 0 120.5 51.5t41.5 170.5q0 125 -41.5 178t-120.5 53t-120 -53t-41 -178z" />
<glyph unicode="&#xf6;" horiz-adv-x="1150" d="M51 494q0 250 138 386t386 136q249 0 387 -136.5t138 -385.5q0 -244 -138.5 -378t-386.5 -134t-386 134t-138 378zM180 1276q0 78 52.5 123t123.5 45q75 0 124.5 -44.5t49.5 -123.5q0 -77 -49.5 -121.5t-124.5 -44.5q-70 0 -123 45t-53 121zM414 494q0 -120 40.5 -171 t120.5 -51q79 0 120.5 51.5t41.5 170.5q0 125 -41.5 178t-120.5 53t-120 -53t-41 -178zM618 1276q0 79 50.5 123.5t124.5 44.5q71 0 123.5 -45t52.5 -123q0 -76 -53 -121t-123 -45q-74 0 -124.5 44.5t-50.5 121.5z" />
<glyph unicode="&#xf7;" horiz-adv-x="1034" d="M96 373v264h840v-264h-840zM395 170q0 53 35 89t90 36q56 0 90.5 -35.5t34.5 -89.5q0 -55 -34.5 -90t-90.5 -35q-55 0 -90 35.5t-35 89.5zM395 838q0 54 35 89.5t90 35.5q56 0 90.5 -35t34.5 -90q0 -54 -34.5 -89.5t-90.5 -35.5q-55 0 -90 36t-35 89z" />
<glyph unicode="&#xf8;" horiz-adv-x="1120" d="M51 494q0 250 138 386t386 136q188 0 318 -82l76 78l96 -94l-72 -74q107 -131 107 -350q0 -244 -138.5 -378t-386.5 -134q-201 0 -335 92l-80 -80l-94 94l77 80q-92 131 -92 326zM414 494q0 -8 1 -24.5t1 -23.5l250 254q-36 23 -91 23q-79 0 -120 -52.5t-41 -176.5z M469 307q38 -35 106 -35q79 0 120.5 51.5t41.5 170.5q0 46 -6 84z" />
<glyph unicode="&#xf9;" horiz-adv-x="1173" d="M84 362v635h371v-536q0 -80 18 -109.5t74 -29.5q86 0 166 94v581h370v-997h-370v117q-9 -6 -36.5 -24.5t-34.5 -23t-29.5 -19t-30.5 -18.5t-27 -14.5t-28.5 -13.5t-26.5 -9t-30 -7.5t-29 -3.5t-33 -2q-161 0 -242.5 91t-81.5 289zM319 1278v72l234 163l270 -350l-90 -94 q-237 83 -414 209z" />
<glyph unicode="&#xfa;" horiz-adv-x="1173" d="M84 362v635h371v-536q0 -80 18 -109.5t74 -29.5q86 0 166 94v581h370v-997h-370v117q-9 -6 -36.5 -24.5t-34.5 -23t-29.5 -19t-30.5 -18.5t-27 -14.5t-28.5 -13.5t-26.5 -9t-30 -7.5t-29 -3.5t-33 -2q-161 0 -242.5 91t-81.5 289zM379 1163l270 350l234 -163v-72 q-177 -126 -414 -209z" />
<glyph unicode="&#xfb;" horiz-adv-x="1173" d="M82 362v635h371v-536q0 -80 19 -109.5t75 -29.5q82 0 166 94v581h370v-997h-370v117q-11 -7 -45 -30t-43 -28t-35.5 -21.5t-37 -21t-32.5 -14t-37 -12t-35.5 -5.5t-41.5 -3q-160 0 -242 91t-82 289zM236 1169l262 291h196l262 -291l-86 -92q-42 23 -87.5 48t-100 55.5 t-86.5 48.5q-263 -146 -274 -152z" />
<glyph unicode="&#xfc;" horiz-adv-x="1173" d="M84 362v635h371v-536q0 -80 18 -109.5t74 -29.5q86 0 166 94v581h370v-997h-370v117q-9 -6 -36.5 -24.5t-34.5 -23t-29.5 -19t-30.5 -18.5t-27 -14.5t-28.5 -13.5t-26.5 -9t-30 -7.5t-29 -3.5t-33 -2q-161 0 -242.5 91t-81.5 289zM193 1276q0 77 52.5 121.5t123.5 44.5 q75 0 124.5 -43.5t49.5 -122.5t-49.5 -122.5t-124.5 -43.5q-71 0 -123.5 44.5t-52.5 121.5zM631 1276q0 79 50 122.5t126 43.5q70 0 122 -44.5t52 -121.5t-52 -121.5t-122 -44.5q-76 0 -126 43.5t-50 122.5z" />
<glyph unicode="&#xfd;" horiz-adv-x="1165" d="M2 995h383l150 -405l45 -154q53 114 95.5 242t92.5 317h393q-62 -191 -102 -306t-97 -258.5t-108 -240.5q-104 -200 -254.5 -330t-372.5 -202l-121 279q162 69 248 153zM375 1163l270 350l234 -163v-72q-177 -126 -414 -209z" />
<glyph unicode="&#xfe;" horiz-adv-x="1175" d="M86 -311v1591h371v-379q81 60 151 86.5t150 26.5q185 0 275.5 -122t90.5 -384q0 -135 -31 -238.5t-85.5 -165t-123 -92t-149.5 -30.5q-97 0 -153 25t-125 85v-403h-371zM457 352q37 -34 71.5 -49.5t83.5 -15.5q146 0 146 221q0 197 -140 197q-78 0 -161 -74v-279z" />
<glyph unicode="&#xff;" horiz-adv-x="1165" d="M2 995h383l150 -405l45 -154q53 114 95.5 242t92.5 317h393q-62 -191 -102 -306t-97 -258.5t-108 -240.5q-104 -200 -254.5 -330t-372.5 -202l-121 279q162 69 248 153zM188 1276q0 77 53 121.5t124 44.5q75 0 124.5 -43.5t49.5 -122.5t-49.5 -122.5t-124.5 -43.5 q-71 0 -124 44.5t-53 121.5zM627 1276q0 78 50 122t124 44q71 0 123.5 -44.5t52.5 -121.5t-52.5 -121.5t-123.5 -44.5q-74 0 -124 44t-50 122z" />
<glyph unicode="&#x152;" horiz-adv-x="1914" d="M59 621q0 310 171.5 479.5t474.5 169.5q91 0 167 -21h947v-319h-570v-160h484v-299h-484v-149l586 -3v-319h-965q-74 -18 -165 -18q-303 0 -474.5 167t-171.5 472zM446 621q0 -146 68 -221.5t191 -75.5q103 0 165 53v497q-63 54 -165 54q-123 0 -191 -77.5t-68 -229.5z " />
<glyph unicode="&#x153;" horiz-adv-x="1777" d="M51 494q0 250 138 386t386 136q212 0 343 -98q125 98 335 98q218 0 344 -124.5t127 -352.5q0 -69 -10 -140h-614q12 -70 52 -101.5t116 -31.5q97 0 173.5 19.5t176.5 66.5l104 -211q-119 -84 -231 -121.5t-240 -37.5q-205 0 -333 96q-134 -96 -343 -96q-248 0 -386 134 t-138 378zM414 494q0 -120 40 -171t119 -51q80 0 121 51t41 171q0 124 -41 176.5t-121 52.5q-79 0 -119 -52.5t-40 -176.5zM1096 596h305q-1 82 -39.5 124t-110.5 42q-129 0 -155 -166z" />
<glyph unicode="&#x178;" horiz-adv-x="1345" d="M14 1249h402l172 -329q38 -69 86 -181q40 102 84 181l174 329h399l-467 -868v-381h-381v381zM289 1509q0 73 50 116.5t116 43.5q72 0 120 -43t48 -117t-48 -116.5t-120 -42.5q-66 0 -116 43t-50 116zM725 1509q0 74 47 117t119 43q66 0 116 -43.5t50 -116.5t-50 -116 t-116 -43q-72 0 -119 42.5t-47 116.5z" />
<glyph unicode="&#x2c6;" horiz-adv-x="1019" d="M158 1169l262 291h196l265 -291l-88 -92q-38 21 -275 152q-263 -146 -274 -152z" />
<glyph unicode="&#x2dc;" horiz-adv-x="1019" d="M143 1161q2 84 27 144t63 89.5t85.5 41.5t93.5 6.5t88 -23.5l110 -53q23 -11 39.5 -13.5t33 6t30.5 23t37 43.5h133q-2 -85 -28.5 -146t-66.5 -91.5t-89.5 -43t-96.5 -7t-88 23.5l-113 56q-44 20 -68 9t-67 -65h-123z" />
<glyph unicode="&#x2000;" horiz-adv-x="886" />
<glyph unicode="&#x2001;" horiz-adv-x="1772" />
<glyph unicode="&#x2002;" horiz-adv-x="886" />
<glyph unicode="&#x2003;" horiz-adv-x="1772" />
<glyph unicode="&#x2004;" horiz-adv-x="590" />
<glyph unicode="&#x2005;" horiz-adv-x="443" />
<glyph unicode="&#x2006;" horiz-adv-x="295" />
<glyph unicode="&#x2007;" horiz-adv-x="295" />
<glyph unicode="&#x2008;" horiz-adv-x="221" />
<glyph unicode="&#x2009;" horiz-adv-x="354" />
<glyph unicode="&#x200a;" horiz-adv-x="98" />
<glyph unicode="&#x2010;" horiz-adv-x="845" d="M111 399v328h624v-328h-624z" />
<glyph unicode="&#x2011;" horiz-adv-x="845" d="M111 399v328h624v-328h-624z" />
<glyph unicode="&#x2012;" horiz-adv-x="845" d="M111 399v328h624v-328h-624z" />
<glyph unicode="&#x2013;" horiz-adv-x="1019" d="M111 416v272h798v-272h-798z" />
<glyph unicode="&#x2014;" horiz-adv-x="1921" d="M111 416v272h1699v-272h-1699z" />
<glyph unicode="&#x2018;" horiz-adv-x="593" d="M98 897q0 119 94 246t248 211l86 -109q-62 -45 -96.5 -82t-56.5 -86q66 -19 105.5 -72.5t39.5 -125.5q0 -90 -58 -149.5t-151 -59.5t-152 64.5t-59 162.5z" />
<glyph unicode="&#x2019;" horiz-adv-x="593" d="M70 778q62 45 96.5 82t56.5 86q-66 19 -105.5 73t-39.5 126q0 90 58 149.5t151 59.5t152 -65t59 -163q0 -118 -93.5 -244.5t-248.5 -211.5z" />
<glyph unicode="&#x201a;" horiz-adv-x="593" d="M70 -166q62 45 96.5 82t56.5 86q-66 19 -105.5 74t-39.5 127q0 89 58.5 149t150.5 60q93 0 152 -66t59 -164q0 -118 -93.5 -244.5t-248.5 -211.5z" />
<glyph unicode="&#x201c;" horiz-adv-x="1085" d="M98 897q0 119 94 246t248 211l86 -109q-62 -45 -96.5 -82t-56.5 -86q66 -19 105.5 -72.5t39.5 -125.5q0 -90 -58 -149.5t-151 -59.5t-152 64.5t-59 162.5zM590 897q0 118 93.5 245t248.5 212l86 -109q-62 -45 -97 -82t-57 -86q66 -19 106 -72.5t40 -125.5 q0 -90 -58 -149.5t-151 -59.5t-152 64.5t-59 162.5z" />
<glyph unicode="&#x201d;" horiz-adv-x="1085" d="M70 778q62 45 96.5 82t56.5 86q-66 19 -105.5 73t-39.5 126q0 90 58 149.5t151 59.5t152 -65t59 -163q0 -118 -93.5 -244.5t-248.5 -211.5zM561 778q62 45 97 82t57 86q-66 19 -106 73t-40 126q0 90 58 149.5t151 59.5t152 -65t59 -163q0 -118 -93.5 -244.5 t-248.5 -211.5z" />
<glyph unicode="&#x201e;" horiz-adv-x="1085" d="M70 -166q62 45 96.5 82t56.5 86q-66 19 -105.5 74t-39.5 127q0 89 58.5 149t150.5 60q93 0 152 -66t59 -164q0 -119 -93.5 -244.5t-248.5 -209.5zM561 -166q62 45 97 82t57 86q-66 19 -106 74t-40 127q0 89 58.5 149t150.5 60q93 0 152 -66t59 -164q0 -119 -93.5 -244.5 t-248.5 -209.5z" />
<glyph unicode="&#x2022;" horiz-adv-x="731" d="M90 543q0 119 77.5 197.5t199.5 78.5t198 -78t76 -198q0 -117 -76.5 -195t-197.5 -78q-122 0 -199.5 78t-77.5 195z" />
<glyph unicode="&#x2026;" horiz-adv-x="1759" d="M86 193q0 90 58 149t151 59t151 -59t58 -149q0 -89 -58.5 -149t-150.5 -60t-150.5 60t-58.5 149zM670 193q0 90 59 149t152 59t151 -59t58 -149q0 -89 -58.5 -149t-150.5 -60q-93 0 -152 60t-59 149zM1255 193q0 90 58 149t151 59t151 -59t58 -149q0 -89 -58.5 -149 t-150.5 -60t-150.5 60t-58.5 149z" />
<glyph unicode="&#x202f;" horiz-adv-x="354" />
<glyph unicode="&#x2039;" horiz-adv-x="794" d="M53 532l467 445l185 -184l-191 -193q-37 -35 -82 -70q63 -50 84 -71l189 -193l-183 -178z" />
<glyph unicode="&#x203a;" horiz-adv-x="794" d="M90 266l191 193q24 25 81 71q-44 35 -79 70l-193 193l184 184l467 -445l-469 -446z" />
<glyph unicode="&#x205f;" horiz-adv-x="443" />
<glyph unicode="&#x20ac;" horiz-adv-x="1134" d="M33 399v113h100l-2 49v29h-98v115h110q37 206 172.5 324t331.5 118q113 0 211.5 -26t216.5 -87l-100 -239q-156 59 -273 59q-145 0 -186 -149h363l-37 -115h-342l-2 -29q0 -33 2 -49h317l-37 -113h-262q24 -72 70 -99.5t112 -27.5q139 0 295 86l117 -227 q-109 -81 -214.5 -115t-252.5 -34q-120 0 -220 42.5t-176.5 138.5t-103.5 236h-112z" />
<glyph unicode="&#x2122;" horiz-adv-x="1617" d="M27 1057v192h618v-192h-199v-424h-219v424h-200zM686 633l27 616h237l135 -315q5 -11 11.5 -30t7.5 -21q1 3 5 22t9 29l135 315h238l29 -616h-215l-7 295l-116 -295h-158l-117 293l-8 -293h-213z" />
<glyph unicode="&#x25fc;" horiz-adv-x="993" d="M0 0v993h993v-993h-993z" />
<glyph unicode="&#xfb03;" horiz-adv-x="2070" d="M16 690v307h131v21q0 203 101 296t317 93q105 0 221 -25l-24 -254l-125 2q-67 0 -93 -29.5t-26 -86.5v-17l238 -2h123v23q0 205 98.5 297t314.5 92q65 0 201 -25l-25 -254q-45 2 -104 2q-65 0 -90 -28t-25 -84v-21h713v-997h-371v690h-342v-690h-370v690h-361v-690h-371 v690h-131zM1573 1286q0 91 61 141t148 50t148 -50t61 -141q0 -89 -61 -138.5t-148 -49.5t-148 49.5t-61 138.5z" />
<glyph unicode="&#xfb04;" horiz-adv-x="2029" d="M16 690v307h131v21q0 203 101 296t317 93q105 0 221 -25l-24 -254l-125 2q-67 0 -93 -29.5t-26 -86.5v-17l238 -2h104v23q0 204 99.5 296.5t314.5 92.5q94 0 299 -47v29h371v-1389h-371v1126q-88 4 -227 4q-65 0 -90 -27.5t-25 -84.5v-23h233v-305h-233v-690h-371v690 h-342v-690h-371v690h-131z" />
</font>
</defs>
</svg>
